{
copyright = "Copyright \U00A9 2015 by James Puckett. All rights reserved. Copyright \U00A9 2015 by Aoife Mooney. All rights reserved. Copyright \U00A9 2015 by Indian Type Foundry. All rights reserved.";
customParameters = (
{
name = glyphOrder;
value = (
    knA,
    knAA,
    knI,
    knII,
    knU,
    knUU,
    knvR,
    knvRR,
    knvL,
    knvLL,
    knE,
    knEE,
    knAI,
    knO,
    knOO,
    knAU,
    knmAA,
    knmI,
    knmII,
    knmU,
    knmUU,
    knmvR,
    knmvRR,
    knmvL,
    knmvLL,
    knmE,
    knmEE,
    knmAI,
    knmO,
    knmOO,
    knmAU,
    knLengthmark,
    knAIlengthmark,
    knKA,
    knKHA,
    knGA,
    knGHA,
    knNGA,
    knCA,
    knCHA,
    knJA,
    knJHA,
    knNYA,
    knTTA,
    knTTHA,
    knDDA,
    knDDHA,
    knNNA,
    knTA,
    knTHA,
    knDA,
    knDHA,
    knNA,
    knPA,
    knPHA,
    knBA,
    knBHA,
    knMA,
    knYA,
    knRA,
    knLA,
    knVA,
    knSHA,
    knSSA,
    knSA,
    knHA,
    knRRA,
    knLLA,
    knLLLA,
    knAnusvara,
    knCandrabindu,
    knVisarga,
    knVirama,
    knNukta,
    knAvagraha,
    knZero,
    knOne,
    knTwo,
    knThree,
    knFour,
    knFive,
    knSix,
    knSeven,
    knEight,
    knNine,
    ".notdef",
    NULL,
    CR,
    space,
    indianrupee,
    zerowidthnonjoiner,
    zerowidthjoiner,
    dottedcircle,
    ITF,
    knReph,
    knKAc2,
    knKHAc2,
    knGAc2,
    knGHAc2,
    knNGAc2,
    knCAc2,
    knCHAc2,
    knJAc2,
    knJHAc2,
    knNYAc2,
    knTTAc2,
    knTTHAc2,
    knDDAc2,
    knDDHAc2,
    knNNAc2,
    knTAc2,
    knTHAc2,
    knDAc2,
    knDHAc2,
    knNAc2,
    knPAc2,
    knPHAc2,
    knBAc2,
    knBHAc2,
    knMAc2,
    knYAc2,
    knRAc2,
    knLAc2,
    knVAc2,
    knSHAc2,
    knSSAc2,
    knSAc2,
    knHAc2,
    knRRAc2,
    knLLAc2,
    knLLLAc2,
    knKSSAc2,
    "knTAc2_RAc2",
    knKAA,
    knKHAA,
    knGAA,
    knGHAA,
    knNGAA,
    knCAA,
    knCHAA,
    knJAA,
    knJHAA,
    knNYAA,
    knTTAA,
    knTTHAA,
    knDDAA,

glyphs = (
{
glyphname = knA;
lastChange = "2015-09-28 22:19:15 +0000";
layers = (
{
background = {
paths = (
{
closed = 1;
nodes = (
"804 -21 OFFCURVE",
"1006 60 OFFCURVE",
"1006 220 CURVE SMOOTH",
"1006 328 OFFCURVE",
"930 417 OFFCURVE",
"795 417 CURVE SMOOTH",
"718 417 OFFCURVE",
"657 386 OFFCURVE",
"657 323 CURVE SMOOTH",
"657 259 OFFCURVE",
"718 233 OFFCURVE",
"811 233 CURVE",
"811 251 LINE",
"741 251 OFFCURVE",
"681 268 OFFCURVE",
"681 323 CURVE SMOOTH",
"681 371 OFFCURVE",
"727 393 OFFCURVE",
"793 393 CURVE SMOOTH",
"932 393 OFFCURVE",
"982 304 OFFCURVE",
"982 222 CURVE SMOOTH",
"982 81 OFFCURVE",
"799 4 OFFCURVE",
"542 4 CURVE SMOOTH",
"287 4 OFFCURVE",
"102 81 OFFCURVE",
"102 222 CURVE SMOOTH",
"102 304 OFFCURVE",
"163 393 OFFCURVE",
"312 393 CURVE SMOOTH",
"385 393 OFFCURVE",
"434 371 OFFCURVE",
"434 323 CURVE SMOOTH",
"434 268 OFFCURVE",
"373 251 OFFCURVE",
"304 251 CURVE SMOOTH",
"240 251 OFFCURVE",
"165 266 OFFCURVE",
"114 302 CURVE",
"102 286 LINE",
"165 242 OFFCURVE",
"241 227 OFFCURVE",
"302 227 CURVE SMOOTH",
"394 227 OFFCURVE",
"458 261 OFFCURVE",
"458 323 CURVE SMOOTH",
"458 386 OFFCURVE",
"394 417 OFFCURVE",
"310 417 CURVE SMOOTH",
"168 417 OFFCURVE",
"78 328 OFFCURVE",
"78 220 CURVE SMOOTH",
"78 60 OFFCURVE",
"282 -21 OFFCURVE",
"542 -21 CURVE SMOOTH"
);
},
{
closed = 1;
nodes = (
"811 227 LINE",
"811 251 LINE",
"506 251 LINE",
"506 227 LINE"
);
}
);
};
guideLines = (
{
angle = 90;
position = "{996, 220}";
},
{
angle = 90;
position = "{492, 220}";
}
);
layerId = "034236B8-3FA8-43DA-9EDA-EFF269A687EC";
name = Light;
paths = (
{
closed = 1;
nodes = (
"803 -21 OFFCURVE",
"1006 58 OFFCURVE",
"1006 224 CURVE SMOOTH",
"1006 326 OFFCURVE",
"930 417 OFFCURVE",
"796 417 CURVE SMOOTH",
"717 417 OFFCURVE",
"657 386 OFFCURVE",
"657 323 CURVE SMOOTH",
"657 259 OFFCURVE",
"718 233 OFFCURVE",
"823 233 CURVE",
"823 251 LINE",
"741 251 OFFCURVE",
"681 268 OFFCURVE",
"681 323 CURVE SMOOTH",
"681 371 OFFCURVE",
"726 393 OFFCURVE",
"794 393 CURVE SMOOTH",
"932 393 OFFCURVE",
"982 302 OFFCURVE",
"982 226 CURVE SMOOTH",
"982 80 OFFCURVE",
"800 4 OFFCURVE",
"544 4 CURVE SMOOTH",
"286 4 OFFCURVE",
"102 81 OFFCURVE",
"102 222 CURVE SMOOTH",
"102 304 OFFCURVE",
"163 393 OFFCURVE",
"312 393 CURVE SMOOTH",
"385 393 OFFCURVE",
"434 371 OFFCURVE",
"434 323 CURVE SMOOTH",
"434 268 OFFCURVE",
"373 251 OFFCURVE",
"304 251 CURVE SMOOTH",
"240 251 OFFCURVE",
"165 266 OFFCURVE",
"114 302 CURVE",
"102 286 LINE",
"165 242 OFFCURVE",
"241 227 OFFCURVE",
"302 227 CURVE SMOOTH",
"394 227 OFFCURVE",
"458 261 OFFCURVE",
"458 323 CURVE SMOOTH",
"458 386 OFFCURVE",
"394 417 OFFCURVE",
"310 417 CURVE SMOOTH",
"168 417 OFFCURVE",
"78 328 OFFCURVE",
"78 221 CURVE SMOOTH",
"78 60 OFFCURVE",
"280 -21 OFFCURVE",
"543 -21 CURVE SMOOTH"
);
},
{
closed = 1;
nodes = (
"823 227 LINE",
"823 251 LINE",
"506 251 LINE",
"506 227 LINE"
);
}
);
width = 1084;
}
);
unicode = 0C85;
},
{
glyphname = knAA;
lastChange = "2015-09-28 22:19:15 +0000";
layers = (
{
background = {
guideLines = (
{
angle = 90;
position = "{78, 220}";
},
{
position = "{865, -9}";
},
{
angle = 90;
position = "{825, -9}";
},
{
angle = 180;
position = "{865, 129}";
},
{
angle = 180;
position = "{865, 267}";
},
{
angle = 90;
position = "{965, 265}";
},
{
angle = 45;
position = "{762, 129}";
},
{
position = "{880, 235}";
}
);
paths = (
{
closed = 1;
nodes = (
"805 229 LINE SMOOTH",
"909 229 OFFCURVE",
"965 262 OFFCURVE",
"965 325 CURVE SMOOTH",
"965 383 OFFCURVE",
"917 416 OFFCURVE",
"826 416 CURVE SMOOTH",
"738 416 OFFCURVE",
"686 385 OFFCURVE",
"686 326 CURVE SMOOTH",
"686 271 OFFCURVE",
"730 249 OFFCURVE",
"779 233 CURVE",
"835 215 OFFCURVE",
"865 190 OFFCURVE",
"865 135 CURVE SMOOTH",
"865 44 OFFCURVE",
"785 4 OFFCURVE",
"565 4 CURVE SMOOTH",
"249 4 OFFCURVE",
"100 86 OFFCURVE",
"100 227 CURVE SMOOTH",
"100 328 OFFCURVE",
"177 393 OFFCURVE",
"305 393 CURVE SMOOTH",
"383 393 OFFCURVE",
"424 369 OFFCURVE",
"424 323 CURVE SMOOTH",
"424 275 OFFCURVE",
"380 251 OFFCURVE",
"297 251 CURVE SMOOTH",
"224 251 OFFCURVE",
"158 270 OFFCURVE",
"114 303 CURVE",
"100 285 LINE",
"147 251 OFFCURVE",
"217 227 OFFCURVE",
"297 227 CURVE SMOOTH",
"393 227 OFFCURVE",
"446 261 OFFCURVE",
"446 323 CURVE SMOOTH",
"446 384 OFFCURVE",
"395 417 OFFCURVE",
"304 417 CURVE SMOOTH",
"165 417 OFFCURVE",
"78 340 OFFCURVE",
"78 225 CURVE SMOOTH",
"78 68 OFFCURVE",
"241 -21 OFFCURVE",
"560 -21 CURVE SMOOTH",
"794 -21 OFFCURVE",
"887 27 OFFCURVE",
"887 134 CURVE SMOOTH",
"887 209 OFFCURVE",
"841 233 OFFCURVE",
"787 248 CURVE",
"743 267 OFFCURVE",
"708 284 OFFCURVE",
"708 326 CURVE SMOOTH",
"708 371 OFFCURVE",
"748 391 OFFCURVE",
"826 391 CURVE SMOOTH",
"903 391 OFFCURVE",
"943 371 OFFCURVE",
"943 325 CURVE SMOOTH",
"943 276 OFFCURVE",
"897 251 OFFCURVE",
"805 251 CURVE SMOOTH",
"504 251 LINE",
"504 229 LINE"
);
}
);
};
guideLines = (
{
angle = 90;
position = "{965, 224}";
},
{
position = "{523, -9}";
},
{
angle = 90;
position = "{887, 224}";
},
{
angle = 90;
position = "{831, 314}";
}
);
layerId = "034236B8-3FA8-43DA-9EDA-EFF269A687EC";
name = Light;
paths = (
{
closed = 1;
nodes = (
"807 229 LINE SMOOTH",
"916 229 OFFCURVE",
"977 262 OFFCURVE",
"977 325 CURVE SMOOTH",
"977 383 OFFCURVE",
"923 417 OFFCURVE",
"824 417 CURVE SMOOTH",
"719 417 OFFCURVE",
"670 383 OFFCURVE",
"670 326 CURVE SMOOTH",
"670 269 OFFCURVE",
"722 249 OFFCURVE",
"773 236 CURVE",
"774 231 LINE",
"841 213 OFFCURVE",
"873 188 OFFCURVE",
"873 129 CURVE SMOOTH",
"873 44 OFFCURVE",
"788 4 OFFCURVE",
"553 4 CURVE SMOOTH",
"244 4 OFFCURVE",
"98 86 OFFCURVE",
"98 227 CURVE SMOOTH",
"98 328 OFFCURVE",
"175 393 OFFCURVE",
"303 393 CURVE SMOOTH",
"381 393 OFFCURVE",
"422 369 OFFCURVE",
"422 323 CURVE SMOOTH",
"422 275 OFFCURVE",
"378 251 OFFCURVE",
"295 251 CURVE SMOOTH",
"222 251 OFFCURVE",
"156 270 OFFCURVE",
"112 303 CURVE",
"98 285 LINE",
"145 251 OFFCURVE",
"215 227 OFFCURVE",
"295 227 CURVE SMOOTH",
"391 227 OFFCURVE",
"444 261 OFFCURVE",
"444 323 CURVE SMOOTH",
"444 384 OFFCURVE",
"393 417 OFFCURVE",
"302 417 CURVE SMOOTH",
"163 417 OFFCURVE",
"76 340 OFFCURVE",
"76 225 CURVE SMOOTH",
"76 68 OFFCURVE",
"236 -21 OFFCURVE",
"548 -21 CURVE SMOOTH",
"796 -21 OFFCURVE",
"895 27 OFFCURVE",
"895 128 CURVE SMOOTH",
"895 203 OFFCURVE",
"848 230 OFFCURVE",
"785 246 CURVE",
"784 249 LINE",
"735 263 OFFCURVE",
"692 282 OFFCURVE",
"692 324 CURVE SMOOTH",
"692 369 OFFCURVE",
"728 392 OFFCURVE",
"824 393 CURVE SMOOTH",
"909 394 OFFCURVE",
"955 371 OFFCURVE",
"955 325 CURVE SMOOTH",
"955 276 OFFCURVE",
"906 251 OFFCURVE",
"807 251 CURVE SMOOTH",
"502 251 LINE",
"502 229 LINE"
);
}
);
width = 1037;
}
);
rightMetricsKey = _part.knmAA;
unicode = 0C86;
},
{
glyphname = knI;
lastChange = "2015-09-28 22:19:15 +0000";
layers = (
{
anchors = (
{
name = headline;
position = "{1055, 381}";
}
);
background = {
anchors = (
{
name = dot;
position = "{512, 261}";
},
{
name = headline;
position = "{954, 381}";
},
{
name = teardrop;
position = "{512, -21}";
}
);
paths = (
{
closed = 1;
nodes = (
"744 -1 OFFCURVE",
"954 52 OFFCURVE",
"954 247 CURVE SMOOTH",
"954 370 OFFCURVE",
"860 417 OFFCURVE",
"754 417 CURVE SMOOTH",
"640 417 OFFCURVE",
"559 377 OFFCURVE",
"512 283 CURVE",
"465 377 OFFCURVE",
"384 417 OFFCURVE",
"270 417 CURVE SMOOTH",
"164 417 OFFCURVE",
"70 370 OFFCURVE",
"70 247 CURVE SMOOTH",
"70 52 OFFCURVE",
"280 -1 OFFCURVE",
"411 -4 CURVE",
"411 15 LINE",
"290 15 OFFCURVE",
"91 72 OFFCURVE",
"91 242 CURVE SMOOTH",
"91 346 OFFCURVE",
"174 392 OFFCURVE",
"274 392 CURVE SMOOTH",
"393 392 OFFCURVE",
"459 343 OFFCURVE",
"500 256 CURVE",
"524 256 LINE",
"565 343 OFFCURVE",
"631 392 OFFCURVE",
"750 392 CURVE SMOOTH",
"850 392 OFFCURVE",
"933 346 OFFCURVE",
"933 242 CURVE SMOOTH",
"933 72 OFFCURVE",
"734 15 OFFCURVE",
"613 15 CURVE",
"613 -4 LINE"
);
}
);
};
guideLines = (
{
angle = 90;
position = "{511, 283}";
},
{
angle = 90;
position = "{705, 332}";
},
{
angle = 90;
position = "{954, 247}";
},
{
angle = 90;
position = "{931, 242}";
},
{
angle = 90;
position = "{316, 332}";
}
);
layerId = "034236B8-3FA8-43DA-9EDA-EFF269A687EC";
name = Light;
paths = (
{
closed = 1;
nodes = (
"854 392 OFFCURVE",
"932 344 OFFCURVE",
"932 241 CURVE SMOOTH",
"932 57 OFFCURVE",
"692 -5 OFFCURVE",
"490 -5 CURVE SMOOTH",
"404 -5 OFFCURVE",
"336 8 OFFCURVE",
"336 65 CURVE SMOOTH",
"336 113 OFFCURVE",
"388 130 OFFCURVE",
"479 130 CURVE SMOOTH",
"647 130 OFFCURVE",
"738 74 OFFCURVE",
"738 -100 CURVE",
"762 -98 LINE",
"762 86 OFFCURVE",
"651 152 OFFCURVE",
"483 152 CURVE SMOOTH",
"380 152 OFFCURVE",
"314 129 OFFCURVE",
"314 64 CURVE SMOOTH",
"314 -3 OFFCURVE",
"379 -29 OFFCURVE",
"495 -29 CURVE SMOOTH",
"695 -29 OFFCURVE",
"954 40 OFFCURVE",
"954 247 CURVE SMOOTH",
"954 368 OFFCURVE",
"862 417 OFFCURVE",
"751 417 CURVE SMOOTH",
"640 417 OFFCURVE",
"559 377 OFFCURVE",
"512 283 CURVE",
"465 377 OFFCURVE",
"384 417 OFFCURVE",
"272 417 CURVE SMOOTH",
"161 417 OFFCURVE",
"70 370 OFFCURVE",
"70 246 CURVE SMOOTH",
"70 209 OFFCURVE",
"78 175 OFFCURVE",
"94 144 CURVE",
"115 151 LINE",
"100 182 OFFCURVE",
"92 212 OFFCURVE",
"92 242 CURVE SMOOTH",
"92 346 OFFCURVE",
"172 392 OFFCURVE",
"276 392 CURVE SMOOTH",
"393 392 OFFCURVE",
"459 343 OFFCURVE",
"500 256 CURVE",
"524 256 LINE",
"565 343 OFFCURVE",
"631 392 OFFCURVE",
"748 392 CURVE SMOOTH"
);
}
);
width = 1026;
}
);
unicode = 0C87;
},
{
glyphname = knII;
lastChange = "2015-09-28 22:19:15 +0000";
layers = (
{
background = {
guideLines = (
{
angle = 90;
position = "{921, 182}";
showMeasurement = 1;
}
);
paths = (
{
closed = 1;
nodes = (
"1055 184 OFFCURVE",
"1095 224 OFFCURVE",
"1095 296 CURVE SMOOTH",
"1095 359 OFFCURVE",
"1037 393 OFFCURVE",
"969 393 CURVE SMOOTH",
"902 393 OFFCURVE",
"839 365 OFFCURVE",
"839 294 CURVE SMOOTH",
"839 261 OFFCURVE",
"854 230 OFFCURVE",
"879 211 CURVE SMOOTH",
"907 189 OFFCURVE",
"942 175 OFFCURVE",
"983 162 CURVE SMOOTH",
"1014 152 OFFCURVE",
"1062 136 OFFCURVE",
"1062 81 CURVE SMOOTH",
"1062 37 OFFCURVE",
"1034 15 OFFCURVE",
"945 15 CURVE",
"951 -9 LINE",
"1050 -5 OFFCURVE",
"1084 22 OFFCURVE",
"1084 82 CURVE SMOOTH",
"1084 146 OFFCURVE",
"1031 168 OFFCURVE",
"993 180 CURVE SMOOTH",
"951 193 OFFCURVE",
"919 205 OFFCURVE",
"896 223 CURVE SMOOTH",
"874 240 OFFCURVE",
"861 266 OFFCURVE",
"861 294 CURVE SMOOTH",
"861 347 OFFCURVE",
"910 369 OFFCURVE",
"969 369 CURVE SMOOTH",
"1026 369 OFFCURVE",
"1073 341 OFFCURVE",
"1073 294 CURVE SMOOTH",
"1073 236 OFFCURVE",
"1040 208 OFFCURVE",
"920 208 CURVE SMOOTH",
"18 208 LINE",
"18 184 LINE",
"914 184 LINE SMOOTH"
);
}
);
};
components = (
{
name = knRA;
transform = "{1, 0, 0, 1, 53, 0}";
}
);
guideLines = (
{
angle = 90;
position = "{783, 184}";
}
);
layerId = "034236B8-3FA8-43DA-9EDA-EFF269A687EC";
name = Light;
paths = (
{
closed = 1;
nodes = (
"1079 184 OFFCURVE",
"1119 224 OFFCURVE",
"1119 296 CURVE SMOOTH",
"1119 359 OFFCURVE",
"1061 393 OFFCURVE",
"993 393 CURVE SMOOTH",
"926 393 OFFCURVE",
"863 365 OFFCURVE",
"863 294 CURVE SMOOTH",
"863 261 OFFCURVE",
"878 230 OFFCURVE",
"903 211 CURVE SMOOTH",
"931 189 OFFCURVE",
"966 175 OFFCURVE",
"1007 162 CURVE SMOOTH",
"1038 152 OFFCURVE",
"1086 136 OFFCURVE",
"1086 81 CURVE SMOOTH",
"1086 37 OFFCURVE",
"1058 15 OFFCURVE",
"969 15 CURVE SMOOTH",
"975 -9 LINE SMOOTH",
"1074 -5 OFFCURVE",
"1108 22 OFFCURVE",
"1108 82 CURVE SMOOTH",
"1108 146 OFFCURVE",
"1055 168 OFFCURVE",
"1017 180 CURVE SMOOTH",
"975 193 OFFCURVE",
"943 205 OFFCURVE",
"920 223 CURVE SMOOTH",
"898 240 OFFCURVE",
"885 266 OFFCURVE",
"885 294 CURVE SMOOTH",
"885 347 OFFCURVE",
"934 369 OFFCURVE",
"993 369 CURVE SMOOTH",
"1050 369 OFFCURVE",
"1097 341 OFFCURVE",
"1097 294 CURVE SMOOTH",
"1097 236 OFFCURVE",
"1064 208 OFFCURVE",
"944 208 CURVE SMOOTH",
"15 208 LINE",
"15 184 LINE",
"938 184 LINE SMOOTH"
);
}
);
width = 1174;
}
);
unicode = 0C88;
},
{
color = 0;
glyphname = knU;
lastChange = "2015-09-28 22:19:15 +0000";
layers = (
{
background = {
paths = (
{
closed = 1;
nodes = (
"80 61 OFFCURVE",
"189 -21 OFFCURVE",
"343 -21 CURVE SMOOTH",
"456 -21 OFFCURVE",
"541 19 OFFCURVE",
"541 101 CURVE SMOOTH",
"541 164 OFFCURVE",
"521 201 OFFCURVE",
"521 268 CURVE SMOOTH",
"521 350 OFFCURVE",
"566 392 OFFCURVE",
"641 392 CURVE SMOOTH",
"715 392 OFFCURVE",
"761 350 OFFCURVE",
"761 268 CURVE SMOOTH",
"761 201 OFFCURVE",
"741 164 OFFCURVE",
"741 101 CURVE SMOOTH",
"741 19 OFFCURVE",
"801 -21 OFFCURVE",
"886 -21 CURVE SMOOTH",
"988 -21 OFFCURVE",
"1035 47 OFFCURVE",
"1035 169 CURVE SMOOTH",
"1035 263 OFFCURVE",
"1000 351 OFFCURVE",
"944 403 CURVE",
"927 386 LINE",
"979 338 OFFCURVE",
"1013 262 OFFCURVE",
"1013 171 CURVE SMOOTH",
"1013 62 OFFCURVE",
"975 4 OFFCURVE",
"886 4 CURVE SMOOTH",
"808 4 OFFCURVE",
"763 40 OFFCURVE",
"763 103 CURVE SMOOTH",
"763 159 OFFCURVE",
"783 199 OFFCURVE",
"783 269 CURVE SMOOTH",
"783 364 OFFCURVE",
"729 417 OFFCURVE",
"641 417 CURVE SMOOTH",
"552 417 OFFCURVE",
"499 364 OFFCURVE",
"499 269 CURVE SMOOTH",
"499 199 OFFCURVE",
"519 159 OFFCURVE",
"519 103 CURVE SMOOTH",
"519 40 OFFCURVE",
"451 4 OFFCURVE",
"343 4 CURVE SMOOTH",
"201 4 OFFCURVE",
"102 76 OFFCURVE",
"102 211 CURVE SMOOTH",
"102 301 OFFCURVE",
"153 393 OFFCURVE",
"281 393 CURVE SMOOTH",
"343 393 OFFCURVE",
"382 371 OFFCURVE",
"382 323 CURVE SMOOTH",
"382 268 OFFCURVE",
"332 252 OFFCURVE",
"274 252 CURVE SMOOTH",
"220 252 OFFCURVE",
"156 266 OFFCURVE",
"112 302 CURVE",
"102 286 LINE",
"156 242 OFFCURVE",
"220 227 OFFCURVE",
"273 227 CURVE SMOOTH",
"350 227 OFFCURVE",
"404 261 OFFCURVE",
"404 323 CURVE SMOOTH",
"404 386 OFFCURVE",
"350 417 OFFCURVE",
"279 417 CURVE SMOOTH",
"157 417 OFFCURVE",
"80 328 OFFCURVE",
"80 209 CURVE SMOOTH"
);
}
);
};
guideLines = (
{
angle = 90;
position = "{141, -37}";
},
{
position = "{131, 184}";
}
);
layerId = "034236B8-3FA8-43DA-9EDA-EFF269A687EC";
leftMetricsKey = "=80";
rightMetricsKey = "=80";
name = Light;
paths = (
{
closed = 1;
nodes = (
"80 61 OFFCURVE",
"188 -21 OFFCURVE",
"348 -21 CURVE SMOOTH",
"455 -21 OFFCURVE",
"541 16 OFFCURVE",
"541 109 CURVE SMOOTH",
"541 154 OFFCURVE",
"521 208 OFFCURVE",
"521 265 CURVE SMOOTH",
"521 351 OFFCURVE",
"566 392 OFFCURVE",
"641 392 CURVE SMOOTH",
"715 392 OFFCURVE",
"761 352 OFFCURVE",
"761 265 CURVE SMOOTH",
"761 207 OFFCURVE",
"741 157 OFFCURVE",
"741 106 CURVE SMOOTH",
"741 18 OFFCURVE",
"801 -21 OFFCURVE",
"882 -21 CURVE SMOOTH",
"988 -21 OFFCURVE",
"1035 46 OFFCURVE",
"1035 164 CURVE SMOOTH",
"1035 265 OFFCURVE",
"1001 349 OFFCURVE",
"944 403 CURVE",
"927 386 LINE",
"976 340 OFFCURVE",
"1013 270 OFFCURVE",
"1013 166 CURVE SMOOTH",
"1013 61 OFFCURVE",
"975 4 OFFCURVE",
"882 4 CURVE SMOOTH",
"808 4 OFFCURVE",
"763 40 OFFCURVE",
"763 107 CURVE SMOOTH",
"763 152 OFFCURVE",
"783 205 OFFCURVE",
"783 266 CURVE SMOOTH",
"783 366 OFFCURVE",
"729 417 OFFCURVE",
"641 417 CURVE SMOOTH",
"552 417 OFFCURVE",
"499 365 OFFCURVE",
"499 267 CURVE SMOOTH",
"499 206 OFFCURVE",
"519 149 OFFCURVE",
"519 110 CURVE SMOOTH",
"519 38 OFFCURVE",
"451 4 OFFCURVE",
"349 4 CURVE SMOOTH",
"200 4 OFFCURVE",
"102 76 OFFCURVE",
"102 207 CURVE SMOOTH",
"102 302 OFFCURVE",
"153 393 OFFCURVE",
"281 393 CURVE SMOOTH",
"343 393 OFFCURVE",
"382 371 OFFCURVE",
"382 323 CURVE SMOOTH",
"382 268 OFFCURVE",
"332 252 OFFCURVE",
"274 252 CURVE SMOOTH",
"220 252 OFFCURVE",
"156 266 OFFCURVE",
"112 302 CURVE",
"102 286 LINE",
"156 242 OFFCURVE",
"220 227 OFFCURVE",
"272 227 CURVE SMOOTH",
"351 227 OFFCURVE",
"404 261 OFFCURVE",
"404 323 CURVE SMOOTH",
"404 386 OFFCURVE",
"350 417 OFFCURVE",
"278 417 CURVE SMOOTH",
"157 417 OFFCURVE",
"80 329 OFFCURVE",
"80 206 CURVE SMOOTH"
);
}
);
width = 1115;
},
{
associatedMasterId = "034236B8-3FA8-43DA-9EDA-EFF269A687EC";
background = {
paths = (
{
closed = 1;
nodes = (
"615 17 OFFCURVE",
"711 -21 OFFCURVE",
"816 -21 CURVE SMOOTH",
"968 -21 OFFCURVE",
"1072 59 OFFCURVE",
"1072 200 CURVE SMOOTH",
"1072 328 OFFCURVE",
"986 417 OFFCURVE",
"851 417 CURVE SMOOTH",
"772 417 OFFCURVE",
"712 386 OFFCURVE",
"712 323 CURVE SMOOTH",
"712 261 OFFCURVE",
"772 227 OFFCURVE",
"858 227 CURVE SMOOTH",
"916 227 OFFCURVE",
"988 242 OFFCURVE",
"1048 286 CURVE",
"1036 302 LINE",
"988 266 OFFCURVE",
"916 252 OFFCURVE",
"856 252 CURVE SMOOTH",
"792 252 OFFCURVE",
"734 268 OFFCURVE",
"734 323 CURVE SMOOTH",
"734 371 OFFCURVE",
"780 393 OFFCURVE",
"849 393 CURVE SMOOTH",
"991 393 OFFCURVE",
"1050 301 OFFCURVE",
"1050 202 CURVE SMOOTH",
"1050 85 OFFCURVE",
"967 4 OFFCURVE",
"814 4 CURVE SMOOTH",
"684 4 OFFCURVE",
"618 64 OFFCURVE",
"588 140 CURVE",
"564 140 LINE",
"534 64 OFFCURVE",
"468 4 OFFCURVE",
"338 4 CURVE SMOOTH",
"186 4 OFFCURVE",
"102 84 OFFCURVE",
"102 202 CURVE SMOOTH",
"102 301 OFFCURVE",
"161 393 OFFCURVE",
"303 393 CURVE SMOOTH",
"372 393 OFFCURVE",
"418 371 OFFCURVE",
"418 323 CURVE SMOOTH",
"418 268 OFFCURVE",
"360 252 OFFCURVE",
"296 252 CURVE SMOOTH",
"236 252 OFFCURVE",
"164 266 OFFCURVE",
"116 302 CURVE",
"104 286 LINE",
"164 242 OFFCURVE",
"236 227 OFFCURVE",
"294 227 CURVE SMOOTH",
"380 227 OFFCURVE",
"440 261 OFFCURVE",
"440 323 CURVE SMOOTH",
"440 386 OFFCURVE",
"380 417 OFFCURVE",
"301 417 CURVE SMOOTH",
"166 417 OFFCURVE",
"80 328 OFFCURVE",
"80 200 CURVE SMOOTH",
"80 59 OFFCURVE",
"184 -21 OFFCURVE",
"336 -21 CURVE SMOOTH",
"441 -21 OFFCURVE",
"537 17 OFFCURVE",
"576 113 CURVE"
);
}
);
};
layerId = "3879D685-2849-43C3-A048-4A52CFB37C0C";
name = "Light Sep 25 15, 12:14";
paths = (
{
closed = 1;
nodes = (
"758 485 LINE",
"849 485 OFFCURVE",
"901 393 OFFCURVE",
"901 272 CURVE SMOOTH",
"901 127 OFFCURVE",
"859 43 OFFCURVE",
"782 43 CURVE SMOOTH",
"709 43 OFFCURVE",
"686 94 OFFCURVE",
"686 165 CURVE SMOOTH",
"686 250 OFFCURVE",
"712 314 OFFCURVE",
"712 403 CURVE SMOOTH",
"712 489 OFFCURVE",
"664 556 OFFCURVE",
"563 556 CURVE SMOOTH",
"467 556 OFFCURVE",
"411 490 OFFCURVE",
"411 403 CURVE SMOOTH",
"411 315 OFFCURVE",
"430 272 OFFCURVE",
"430 189 CURVE SMOOTH",
"430 99 OFFCURVE",
"373 43 OFFCURVE",
"293 43 CURVE SMOOTH",
"171 43 OFFCURVE",
"101 150 OFFCURVE",
"101 286 CURVE SMOOTH",
"101 323 OFFCURVE",
"111 372 OFFCURVE",
"119 414 CURVE",
"100 415 LINE",
"100 333 OFFCURVE",
"152 277 OFFCURVE",
"230 277 CURVE SMOOTH",
"310 277 OFFCURVE",
"368 341 OFFCURVE",
"368 418 CURVE SMOOTH",
"368 492 OFFCURVE",
"311 556 OFFCURVE",
"230 556 CURVE SMOOTH",
"102 556 OFFCURVE",
"47 427 OFFCURVE",
"47 286 CURVE SMOOTH",
"47 126 OFFCURVE",
"130 -9 OFFCURVE",
"293 -9 CURVE SMOOTH",
"408 -9 OFFCURVE",
"492 69 OFFCURVE",
"492 182 CURVE SMOOTH",
"492 264 OFFCURVE",
"472 327 OFFCURVE",
"472 401 CURVE SMOOTH",
"472 466 OFFCURVE",
"510 503 OFFCURVE",
"564 503 CURVE SMOOTH",
"619 503 OFFCURVE",
"651 465 OFFCURVE",
"651 401 CURVE SMOOTH",
"651 325 OFFCURVE",
"624 242 OFFCURVE",
"624 159 CURVE SMOOTH",
"624 63 OFFCURVE",
"672 -9 OFFCURVE",
"784 -9 CURVE SMOOTH",
"898 -9 OFFCURVE",
"963 101 OFFCURVE",
"963 271 CURVE SMOOTH",
"963 427 OFFCURVE",
"889 546 OFFCURVE",
"758 546 CURVE"
);
},
{
closed = 1;
nodes = (
"227 329 CURVE SMOOTH",
"172 329 OFFCURVE",
"139 368 OFFCURVE",
"139 413 CURVE SMOOTH",
"139 462 OFFCURVE",
"177 503 OFFCURVE",
"224 503 CURVE SMOOTH",
"274 503 OFFCURVE",
"305 465 OFFCURVE",
"305 417 CURVE SMOOTH",
"305 370 OFFCURVE",
"276 329 OFFCURVE"
);
}
);
width = 1010;
}
);
rightMetricsKey = _part.knmU;
unicode = 0C89;
},
{
color = 0;
glyphname = knUU;
lastChange = "2015-09-28 22:19:15 +0000";
layers = (
{
background = {
paths = (
{
closed = 1;
nodes = (
"956 -21 OFFCURVE",
"1013 14 OFFCURVE",
"1013 91 CURVE SMOOTH",
"1013 150 OFFCURVE",
"985 203 OFFCURVE",
"985 259 CURVE SMOOTH",
"985 349 OFFCURVE",
"1056 393 OFFCURVE",
"1163 393 CURVE SMOOTH",
"1327 393 OFFCURVE",
"1426 289 OFFCURVE",
"1426 166 CURVE SMOOTH",
"1426 89 OFFCURVE",
"1388 3 OFFCURVE",
"1261 3 CURVE SMOOTH",
"1175 3 OFFCURVE",
"1127 42 OFFCURVE",
"1127 103 CURVE SMOOTH",
"1127 156 OFFCURVE",
"1163 191 OFFCURVE",
"1206 199 CURVE",
"1203 193 OFFCURVE",
"1202 187 OFFCURVE",
"1202 182 CURVE SMOOTH",
"1202 159 OFFCURVE",
"1223 145 OFFCURVE",
"1249 145 CURVE SMOOTH",
"1275 145 OFFCURVE",
"1298 158 OFFCURVE",
"1298 183 CURVE SMOOTH",
"1298 212 OFFCURVE",
"1269 221 OFFCURVE",
"1235 221 CURVE SMOOTH",
"1165 221 OFFCURVE",
"1105 182 OFFCURVE",
"1105 104 CURVE SMOOTH",
"1105 29 OFFCURVE",
"1162 -21 OFFCURVE",
"1260 -21 CURVE SMOOTH",
"1385 -21 OFFCURVE",
"1448 60 OFFCURVE",
"1448 162 CURVE SMOOTH",
"1448 297 OFFCURVE",
"1338 417 OFFCURVE",
"1164 417 CURVE SMOOTH",
"1045 417 OFFCURVE",
"963 361 OFFCURVE",
"963 264 CURVE SMOOTH",
"963 207 OFFCURVE",
"991 143 OFFCURVE",
"991 92 CURVE SMOOTH",
"991 33 OFFCURVE",
"945 4 OFFCURVE",
"882 4 CURVE SMOOTH",
"808 4 OFFCURVE",
"763 40 OFFCURVE",
"763 107 CURVE SMOOTH",
"763 152 OFFCURVE",
"783 205 OFFCURVE",
"783 266 CURVE SMOOTH",
"783 366 OFFCURVE",
"729 417 OFFCURVE",
"641 417 CURVE SMOOTH",
"552 417 OFFCURVE",
"499 365 OFFCURVE",
"499 267 CURVE SMOOTH",
"499 206 OFFCURVE",
"519 149 OFFCURVE",
"519 110 CURVE SMOOTH",
"519 38 OFFCURVE",
"451 4 OFFCURVE",
"349 4 CURVE SMOOTH",
"200 4 OFFCURVE",
"102 76 OFFCURVE",
"102 207 CURVE SMOOTH",
"102 302 OFFCURVE",
"153 393 OFFCURVE",
"281 393 CURVE SMOOTH",
"343 393 OFFCURVE",
"382 371 OFFCURVE",
"382 323 CURVE SMOOTH",
"382 268 OFFCURVE",
"332 252 OFFCURVE",
"274 252 CURVE SMOOTH",
"220 252 OFFCURVE",
"156 266 OFFCURVE",
"112 302 CURVE",
"102 286 LINE",
"156 242 OFFCURVE",
"220 227 OFFCURVE",
"272 227 CURVE SMOOTH",
"351 227 OFFCURVE",
"404 261 OFFCURVE",
"404 323 CURVE SMOOTH",
"404 386 OFFCURVE",
"350 417 OFFCURVE",
"278 417 CURVE SMOOTH",
"157 417 OFFCURVE",
"80 329 OFFCURVE",
"80 206 CURVE SMOOTH",
"80 61 OFFCURVE",
"188 -21 OFFCURVE",
"348 -21 CURVE SMOOTH",
"455 -21 OFFCURVE",
"541 16 OFFCURVE",
"541 109 CURVE SMOOTH",
"541 154 OFFCURVE",
"521 208 OFFCURVE",
"521 265 CURVE SMOOTH",
"521 351 OFFCURVE",
"566 392 OFFCURVE",
"641 392 CURVE SMOOTH",
"715 392 OFFCURVE",
"761 352 OFFCURVE",
"761 265 CURVE SMOOTH",
"761 207 OFFCURVE",
"741 157 OFFCURVE",
"741 106 CURVE SMOOTH",
"741 18 OFFCURVE",
"801 -21 OFFCURVE",
"882 -21 CURVE SMOOTH"
);
}
);
};
layerId = "034236B8-3FA8-43DA-9EDA-EFF269A687EC";
leftMetricsKey = "=80";
rightMetricsKey = "=80";
name = Light;
paths = (
{
closed = 1;
nodes = (
"956 -21 OFFCURVE",
"1013 14 OFFCURVE",
"1013 91 CURVE SMOOTH",
"1013 150 OFFCURVE",
"985 203 OFFCURVE",
"985 259 CURVE SMOOTH",
"985 349 OFFCURVE",
"1056 393 OFFCURVE",
"1163 393 CURVE SMOOTH",
"1327 393 OFFCURVE",
"1426 289 OFFCURVE",
"1426 166 CURVE SMOOTH",
"1426 89 OFFCURVE",
"1388 3 OFFCURVE",
"1261 3 CURVE SMOOTH",
"1175 3 OFFCURVE",
"1127 42 OFFCURVE",
"1127 103 CURVE SMOOTH",
"1127 156 OFFCURVE",
"1163 191 OFFCURVE",
"1206 199 CURVE",
"1203 193 OFFCURVE",
"1202 187 OFFCURVE",
"1202 182 CURVE SMOOTH",
"1202 159 OFFCURVE",
"1223 145 OFFCURVE",
"1249 145 CURVE SMOOTH",
"1275 145 OFFCURVE",
"1298 158 OFFCURVE",
"1298 183 CURVE SMOOTH",
"1298 212 OFFCURVE",
"1269 221 OFFCURVE",
"1235 221 CURVE SMOOTH",
"1165 221 OFFCURVE",
"1105 182 OFFCURVE",
"1105 104 CURVE SMOOTH",
"1105 29 OFFCURVE",
"1162 -21 OFFCURVE",
"1260 -21 CURVE SMOOTH",
"1385 -21 OFFCURVE",
"1448 60 OFFCURVE",
"1448 162 CURVE SMOOTH",
"1448 297 OFFCURVE",
"1338 417 OFFCURVE",
"1164 417 CURVE SMOOTH",
"1045 417 OFFCURVE",
"963 361 OFFCURVE",
"963 264 CURVE SMOOTH",
"963 207 OFFCURVE",
"991 143 OFFCURVE",
"991 92 CURVE SMOOTH",
"991 33 OFFCURVE",
"945 4 OFFCURVE",
"882 4 CURVE SMOOTH",
"808 4 OFFCURVE",
"763 40 OFFCURVE",
"763 107 CURVE SMOOTH",
"763 152 OFFCURVE",
"783 205 OFFCURVE",
"783 266 CURVE SMOOTH",
"783 366 OFFCURVE",
"729 417 OFFCURVE",
"641 417 CURVE SMOOTH",
"552 417 OFFCURVE",
"499 365 OFFCURVE",
"499 267 CURVE SMOOTH",
"499 206 OFFCURVE",
"519 149 OFFCURVE",
"519 110 CURVE SMOOTH",
"519 38 OFFCURVE",
"451 4 OFFCURVE",
"349 4 CURVE SMOOTH",
"200 4 OFFCURVE",
"102 76 OFFCURVE",
"102 207 CURVE SMOOTH",
"102 302 OFFCURVE",
"153 393 OFFCURVE",
"281 393 CURVE SMOOTH",
"343 393 OFFCURVE",
"382 371 OFFCURVE",
"382 323 CURVE SMOOTH",
"382 268 OFFCURVE",
"332 252 OFFCURVE",
"274 252 CURVE SMOOTH",
"220 252 OFFCURVE",
"156 266 OFFCURVE",
"112 302 CURVE",
"102 286 LINE",
"156 242 OFFCURVE",
"220 227 OFFCURVE",
"272 227 CURVE SMOOTH",
"351 227 OFFCURVE",
"404 261 OFFCURVE",
"404 323 CURVE SMOOTH",
"404 386 OFFCURVE",
"350 417 OFFCURVE",
"278 417 CURVE SMOOTH",
"157 417 OFFCURVE",
"80 329 OFFCURVE",
"80 206 CURVE SMOOTH",
"80 61 OFFCURVE",
"188 -21 OFFCURVE",
"348 -21 CURVE SMOOTH",
"455 -21 OFFCURVE",
"541 16 OFFCURVE",
"541 109 CURVE SMOOTH",
"541 154 OFFCURVE",
"521 208 OFFCURVE",
"521 265 CURVE SMOOTH",
"521 351 OFFCURVE",
"566 392 OFFCURVE",
"641 392 CURVE SMOOTH",
"715 392 OFFCURVE",
"761 352 OFFCURVE",
"761 265 CURVE SMOOTH",
"761 207 OFFCURVE",
"741 157 OFFCURVE",
"741 106 CURVE SMOOTH",
"741 18 OFFCURVE",
"801 -21 OFFCURVE",
"882 -21 CURVE SMOOTH"
);
}
);
width = 1528;
}
);
unicode = 0C8A;
},
{
glyphname = knvRR;
lastChange = "2015-09-28 22:19:15 +0000";
layers = (
{
background = {
components = (
{
name = _part.headline;
transform = "{1, 0, 0, 1, 507, 0}";
piece = {
Width = 194;
};
},
{
name = _part.knmU;
transform = "{1, 0, 0, 1, 511, 0}";
piece = {
"Terminal Height" = 195;
};
},
{
name = _part.knvR;
transform = "{1, 0, 0, 1, 10, 0}";
}
);
paths = (
{
closed = 1;
nodes = (
"1143 149 OFFCURVE",
"1121 205 OFFCURVE",
"1121 257 CURVE SMOOTH",
"1121 346 OFFCURVE",
"1185 389 OFFCURVE",
"1297 389 CURVE SMOOTH",
"1470 389 OFFCURVE",
"1563 286 OFFCURVE",
"1563 170 CURVE SMOOTH",
"1563 88 OFFCURVE",
"1516 3 OFFCURVE",
"1391 3 CURVE SMOOTH",
"1307 3 OFFCURVE",
"1263 42 OFFCURVE",
"1263 102 CURVE SMOOTH",
"1263 154 OFFCURVE",
"1296 187 OFFCURVE",
"1335 196 CURVE",
"1333 192 OFFCURVE",
"1332 187 OFFCURVE",
"1332 182 CURVE SMOOTH",
"1332 159 OFFCURVE",
"1353 145 OFFCURVE",
"1379 145 CURVE SMOOTH",
"1405 145 OFFCURVE",
"1428 158 OFFCURVE",
"1428 183 CURVE SMOOTH",
"1428 212 OFFCURVE",
"1399 221 OFFCURVE",
"1367 221 CURVE SMOOTH",
"1300 221 OFFCURVE",
"1239 182 OFFCURVE",
"1239 104 CURVE SMOOTH",
"1239 31 OFFCURVE",
"1293 -21 OFFCURVE",
"1392 -21 CURVE SMOOTH",
"1513 -21 OFFCURVE",
"1585 58 OFFCURVE",
"1585 166 CURVE SMOOTH",
"1585 294 OFFCURVE",
"1483 413 OFFCURVE",
"1300 413 CURVE SMOOTH",
"1175 413 OFFCURVE",
"1097 358 OFFCURVE",
"1097 263 CURVE SMOOTH",
"1097 211 OFFCURVE",
"1121 142 OFFCURVE",
"1121 95 CURVE SMOOTH",
"1121 34 OFFCURVE",
"1093 4 OFFCURVE",
"1036 4 CURVE SMOOTH",
"968 4 OFFCURVE",
"926 28 OFFCURVE",
"926 188 CURVE",
"906 174 LINE",
"906 40 OFFCURVE",
"937 -21 OFFCURVE",
"1038 -21 CURVE SMOOTH",
"1107 -21 OFFCURVE",
"1143 23 OFFCURVE",
"1143 97 CURVE SMOOTH"
);
}
);
};
components = (
{
name = _part.headline;
transform = "{1, 0, 0, 1, 438, 0}";
piece = {
Width = 204;
};
},
{
name = _part.knmU;
transform = "{1, 0, 0, 1, 492, 0}";
piece = {
"Terminal Height" = 195;
};
},
{
name = _part.knvR;
},
{
name = _part.knmUU;
transform = "{1, 0, 0, 1, 888, 0}";
}
);
guideLines = (
{
position = "{450, 198}";
}
);
layerId = "034236B8-3FA8-43DA-9EDA-EFF269A687EC";
name = Light;
width = 1609;
}
);
leftMetricsKey = _part.knvR;
rightMetricsKey = _part.knmU;
unicode = 0CE0;
},
{
glyphname = knvL;
lastChange = "2015-09-28 22:19:15 +0000";
layers = (
{
background = {
guideLines = (
{
position = "{970, 159}";
}
);
paths = (
{
closed = 1;
nodes = (
"950 365 OFFCURVE",
"859 417 OFFCURVE",
"751 417 CURVE SMOOTH",
"640 417 OFFCURVE",
"555 378 OFFCURVE",
"508 283 CURVE",
"461 377 OFFCURVE",
"380 417 OFFCURVE",
"268 417 CURVE SMOOTH",
"157 417 OFFCURVE",
"66 370 OFFCURVE",
"66 246 CURVE SMOOTH",
"66 209 OFFCURVE",
"74 175 OFFCURVE",
"90 144 CURVE",
"111 151 LINE",
"96 182 OFFCURVE",
"88 212 OFFCURVE",
"88 242 CURVE SMOOTH",
"88 346 OFFCURVE",
"168 392 OFFCURVE",
"272 392 CURVE SMOOTH",
"389 392 OFFCURVE",
"455 343 OFFCURVE",
"496 256 CURVE",
"520 256 LINE",
"561 344 OFFCURVE",
"631 392 OFFCURVE",
"748 392 CURVE SMOOTH",
"859 392 OFFCURVE",
"928 333 OFFCURVE",
"928 259 CURVE SMOOTH",
"928 209 OFFCURVE",
"910 193 OFFCURVE",
"889 169 CURVE SMOOTH",
"861 136 OFFCURVE",
"848 113 OFFCURVE",
"848 77 CURVE SMOOTH",
"848 20 OFFCURVE",
"889 -21 OFFCURVE",
"966 -21 CURVE SMOOTH",
"1038 -21 OFFCURVE",
"1076 20 OFFCURVE",
"1076 88 CURVE SMOOTH",
"1076 105 OFFCURVE",
"1074 121 OFFCURVE",
"1071 133 CURVE",
"1049 135 LINE",
"1052 120 OFFCURVE",
"1054 105 OFFCURVE",
"1054 88 CURVE SMOOTH",
"1054 34 OFFCURVE",
"1030 3 OFFCURVE",
"966 3 CURVE SMOOTH",
"898 3 OFFCURVE",
"870 34 OFFCURVE",
"870 77 CURVE SMOOTH",
"870 115 OFFCURVE",
"890 137 OFFCURVE",
"907 157 CURVE SMOOTH",
"929 183 OFFCURVE",
"950 203 OFFCURVE",
"950 261 CURVE SMOOTH"
);
}
);
};
guideLines = (
{
angle = 90;
position = "{1060, 2}";
},
{
angle = 90;
position = "{853, 1}";
},
{
angle = 90;
position = "{1129, 2}";
},
{
angle = 90;
position = "{950, 249}";
},
{
position = "{970, 159}";
}
);
layerId = "034236B8-3FA8-43DA-9EDA-EFF269A687EC";
name = Light;
paths = (
{
closed = 1;
nodes = (
"946 365 OFFCURVE",
"855 417 OFFCURVE",
"747 417 CURVE SMOOTH",
"636 417 OFFCURVE",
"555 378 OFFCURVE",
"508 283 CURVE",
"461 377 OFFCURVE",
"384 417 OFFCURVE",
"272 417 CURVE SMOOTH",
"161 417 OFFCURVE",
"70 370 OFFCURVE",
"70 246 CURVE SMOOTH",
"70 209 OFFCURVE",
"78 175 OFFCURVE",
"94 144 CURVE",
"115 151 LINE",
"100 182 OFFCURVE",
"92 212 OFFCURVE",
"92 242 CURVE SMOOTH",
"92 346 OFFCURVE",
"172 392 OFFCURVE",
"276 392 CURVE SMOOTH",
"393 392 OFFCURVE",
"455 343 OFFCURVE",
"496 256 CURVE",
"520 256 LINE",
"561 344 OFFCURVE",
"627 392 OFFCURVE",
"744 392 CURVE SMOOTH",
"855 392 OFFCURVE",
"924 333 OFFCURVE",
"924 259 CURVE SMOOTH",
"924 209 OFFCURVE",
"906 193 OFFCURVE",
"885 169 CURVE SMOOTH",
"857 136 OFFCURVE",
"844 109 OFFCURVE",
"844 77 CURVE SMOOTH",
"844 20 OFFCURVE",
"885 -21 OFFCURVE",
"962 -21 CURVE SMOOTH",
"1034 -21 OFFCURVE",
"1072 20 OFFCURVE",
"1072 88 CURVE SMOOTH",
"1072 105 OFFCURVE",
"1070 121 OFFCURVE",
"1067 133 CURVE",
"1045 135 LINE",
"1048 120 OFFCURVE",
"1050 105 OFFCURVE",
"1050 88 CURVE SMOOTH",
"1050 34 OFFCURVE",
"1026 3 OFFCURVE",
"962 3 CURVE SMOOTH",
"894 3 OFFCURVE",
"866 34 OFFCURVE",
"866 77 CURVE SMOOTH",
"866 115 OFFCURVE",
"886 137 OFFCURVE",
"903 157 CURVE SMOOTH",
"925 183 OFFCURVE",
"946 203 OFFCURVE",
"946 261 CURVE SMOOTH"
);
}
);
width = 1097;
}
);
unicode = 0C8C;
},
{
glyphname = knvLL;
lastChange = "2015-09-28 22:19:15 +0000";
layers = (
{
background = {
paths = (
{
closed = 1;
nodes = (
"946 365 OFFCURVE",
"855 417 OFFCURVE",
"747 417 CURVE SMOOTH",
"636 417 OFFCURVE",
"555 378 OFFCURVE",
"508 283 CURVE",
"461 377 OFFCURVE",
"384 417 OFFCURVE",
"272 417 CURVE SMOOTH",
"161 417 OFFCURVE",
"70 370 OFFCURVE",
"70 246 CURVE SMOOTH",
"70 209 OFFCURVE",
"78 175 OFFCURVE",
"94 144 CURVE",
"115 151 LINE",
"100 182 OFFCURVE",
"92 212 OFFCURVE",
"92 242 CURVE SMOOTH",
"92 346 OFFCURVE",
"172 392 OFFCURVE",
"276 392 CURVE SMOOTH",
"393 392 OFFCURVE",
"455 343 OFFCURVE",
"496 256 CURVE",
"520 256 LINE",
"561 344 OFFCURVE",
"627 392 OFFCURVE",
"744 392 CURVE SMOOTH",
"855 392 OFFCURVE",
"924 333 OFFCURVE",
"924 259 CURVE SMOOTH",
"924 176 OFFCURVE",
"804 164 OFFCURVE",
"804 70 CURVE SMOOTH",
"804 16 OFFCURVE",
"843 -21 OFFCURVE",
"924 -21 CURVE SMOOTH",
"1048 -21 OFFCURVE",
"1094 57 OFFCURVE",
"1094 188 CURVE SMOOTH",
"1094 266 OFFCURVE",
"1082 341 OFFCURVE",
"1054 405 CURVE",
"1032 405 LINE",
"1032 404 LINE",
"1057 336 OFFCURVE",
"1072 266 OFFCURVE",
"1072 188 CURVE SMOOTH",
"1072 71 OFFCURVE",
"1041 3 OFFCURVE",
"924 3 CURVE SMOOTH",
"852 3 OFFCURVE",
"826 30 OFFCURVE",
"826 70 CURVE SMOOTH",
"826 152 OFFCURVE",
"946 160 OFFCURVE",
"946 261 CURVE SMOOTH"
);
},
{
closed = 1;
nodes = (
"1227 214 OFFCURVE",
"1173 172 OFFCURVE",
"1173 99 CURVE SMOOTH",
"1173 25 OFFCURVE",
"1227 -21 OFFCURVE",
"1329 -21 CURVE SMOOTH",
"1437 -21 OFFCURVE",
"1509 51 OFFCURVE",
"1509 175 CURVE SMOOTH",
"1509 319 OFFCURVE",
"1407 405 OFFCURVE",
"1190 405 CURVE SMOOTH",
"1045 405 LINE",
"1053 381 LINE",
"1192 381 LINE SMOOTH",
"1382 381 OFFCURVE",
"1485 308 OFFCURVE",
"1485 170 CURVE SMOOTH",
"1485 66 OFFCURVE",
"1425 4 OFFCURVE",
"1327 4 CURVE SMOOTH",
"1233 4 OFFCURVE",
"1195 44 OFFCURVE",
"1195 102 CURVE SMOOTH",
"1195 149 OFFCURVE",
"1222 185 OFFCURVE",
"1284 192 CURVE",
"1285 191 LINE",
"1282 185 OFFCURVE",
"1281 179 OFFCURVE",
"1281 174 CURVE SMOOTH",
"1281 151 OFFCURVE",
"1299 139 OFFCURVE",
"1327 139 CURVE SMOOTH",
"1358 139 OFFCURVE",
"1375 154 OFFCURVE",
"1375 174 CURVE SMOOTH",
"1375 202 OFFCURVE",
"1357 214 OFFCURVE",
"1310 214 CURVE SMOOTH"
);
}
);
};
guideLines = (
{
angle = 90;
position = "{1221, 102}";
},
{
position = "{833, 208}";
}
);
layerId = "034236B8-3FA8-43DA-9EDA-EFF269A687EC";
name = Light;
paths = (
{
closed = 1;
nodes = (
"946 357 OFFCURVE",
"866 417 OFFCURVE",
"741 417 CURVE SMOOTH",
"646 417 OFFCURVE",
"556 382 OFFCURVE",
"508 283 CURVE",
"462 376 OFFCURVE",
"383 417 OFFCURVE",
"275 417 CURVE SMOOTH",
"160 417 OFFCURVE",
"70 370 OFFCURVE",
"70 246 CURVE SMOOTH",
"70 209 OFFCURVE",
"78 175 OFFCURVE",
"94 144 CURVE",
"115 151 LINE",
"100 182 OFFCURVE",
"92 211 OFFCURVE",
"92 244 CURVE SMOOTH",
"92 346 OFFCURVE",
"171 392 OFFCURVE",
"279 392 CURVE SMOOTH",
"397 392 OFFCURVE",
"458 337 OFFCURVE",
"496 256 CURVE",
"520 256 LINE",
"559 342 OFFCURVE",
"629 392 OFFCURVE",
"738 392 CURVE SMOOTH",
"861 392 OFFCURVE",
"924 329 OFFCURVE",
"924 263 CURVE SMOOTH",
"924 171 OFFCURVE",
"804 166 OFFCURVE",
"804 70 CURVE SMOOTH",
"804 16 OFFCURVE",
"842 -21 OFFCURVE",
"930 -21 CURVE SMOOTH",
"1053 -21 OFFCURVE",
"1098 58 OFFCURVE",
"1098 194 CURVE SMOOTH",
"1098 264 OFFCURVE",
"1086 341 OFFCURVE",
"1058 405 CURVE",
"1036 405 LINE",
"1036 404 LINE",
"1061 336 OFFCURVE",
"1076 267 OFFCURVE",
"1076 187 CURVE SMOOTH",
"1076 72 OFFCURVE",
"1045 3 OFFCURVE",
"929 3 CURVE SMOOTH",
"852 3 OFFCURVE",
"826 30 OFFCURVE",
"826 70 CURVE SMOOTH",
"826 155 OFFCURVE",
"946 154 OFFCURVE",
"946 266 CURVE SMOOTH"
);
},
{
closed = 1;
nodes = (
"1229 214 OFFCURVE",
"1175 172 OFFCURVE",
"1175 99 CURVE SMOOTH",
"1175 25 OFFCURVE",
"1232 -21 OFFCURVE",
"1325 -21 CURVE SMOOTH",
"1441 -21 OFFCURVE",
"1511 51 OFFCURVE",
"1511 173 CURVE SMOOTH",
"1511 320 OFFCURVE",
"1409 405 OFFCURVE",
"1192 405 CURVE SMOOTH",
"1049 405 LINE",
"1057 381 LINE",
"1194 381 LINE SMOOTH",
"1384 381 OFFCURVE",
"1487 308 OFFCURVE",
"1487 170 CURVE SMOOTH",
"1487 66 OFFCURVE",
"1430 4 OFFCURVE",
"1324 4 CURVE SMOOTH",
"1238 4 OFFCURVE",
"1197 44 OFFCURVE",
"1197 102 CURVE SMOOTH",
"1197 149 OFFCURVE",
"1224 185 OFFCURVE",
"1286 192 CURVE",
"1287 191 LINE",
"1284 185 OFFCURVE",
"1283 179 OFFCURVE",
"1283 174 CURVE SMOOTH",
"1283 151 OFFCURVE",
"1301 139 OFFCURVE",
"1329 139 CURVE SMOOTH",
"1360 139 OFFCURVE",
"1377 153 OFFCURVE",
"1377 177 CURVE SMOOTH",
"1377 202 OFFCURVE",
"1357 214 OFFCURVE",
"1312 214 CURVE SMOOTH"
);
}
);
width = 1611;
}
);
unicode = 0CE1;
},
{
glyphname = knE;
lastChange = "2015-09-28 22:19:15 +0000";
layers = (
{
background = {
paths = (
{
closed = 1;
nodes = (
"836 -21 OFFCURVE",
"911 36 OFFCURVE",
"911 143 CURVE SMOOTH",
"911 325 OFFCURVE",
"701 401 OFFCURVE",
"291 401 CURVE",
"289 381 LINE",
"650 381 OFFCURVE",
"889 318 OFFCURVE",
"889 141 CURVE SMOOTH",
"889 52 OFFCURVE",
"818 4 OFFCURVE",
"721 4 CURVE SMOOTH",
"602 4 OFFCURVE",
"532 50 OFFCURVE",
"490 140 CURVE",
"466 140 LINE",
"428 52 OFFCURVE",
"361 4 OFFCURVE",
"251 4 CURVE SMOOTH",
"157 4 OFFCURVE",
"91 36 OFFCURVE",
"91 107 CURVE SMOOTH",
"91 175 OFFCURVE",
"149 206 OFFCURVE",
"232 206 CURVE SMOOTH",
"269 206 OFFCURVE",
"300 201 OFFCURVE",
"327 191 CURVE",
"332 212 LINE",
"313 221 OFFCURVE",
"276 228 OFFCURVE",
"230 228 CURVE SMOOTH",
"140 228 OFFCURVE",
"69 189 OFFCURVE",
"69 105 CURVE SMOOTH",
"69 19 OFFCURVE",
"143 -21 OFFCURVE",
"247 -21 CURVE SMOOTH",
"362 -21 OFFCURVE",
"435 23 OFFCURVE",
"478 113 CURVE",
"526 17 OFFCURVE",
"607 -21 OFFCURVE",
"725 -21 CURVE SMOOTH"
);
}
);
};
guideLines = (
{
angle = 90;
position = "{327, 191}";
},
{
angle = 90;
position = "{478, 113}";
},
{
angle = 90;
position = "{230, 228}";
}
);
layerId = "034236B8-3FA8-43DA-9EDA-EFF269A687EC";
name = Light;
paths = (
{
closed = 1;
nodes = (
"849 -21 OFFCURVE",
"927 36 OFFCURVE",
"927 144 CURVE SMOOTH",
"927 325 OFFCURVE",
"711 401 OFFCURVE",
"295 401 CURVE",
"293 381 LINE",
"657 381 OFFCURVE",
"905 318 OFFCURVE",
"905 144 CURVE SMOOTH",
"905 50 OFFCURVE",
"833 4 OFFCURVE",
"723 4 CURVE SMOOTH",
"608 4 OFFCURVE",
"538 54 OFFCURVE",
"498 140 CURVE",
"474 140 LINE",
"435 52 OFFCURVE",
"368 4 OFFCURVE",
"253 4 CURVE SMOOTH",
"159 4 OFFCURVE",
"91 36 OFFCURVE",
"91 108 CURVE SMOOTH",
"91 175 OFFCURVE",
"151 206 OFFCURVE",
"237 206 CURVE SMOOTH",
"272 206 OFFCURVE",
"304 201 OFFCURVE",
"332 191 CURVE",
"337 212 LINE",
"318 221 OFFCURVE",
"278 228 OFFCURVE",
"237 228 CURVE SMOOTH",
"139 228 OFFCURVE",
"69 189 OFFCURVE",
"69 105 CURVE SMOOTH",
"69 19 OFFCURVE",
"143 -21 OFFCURVE",
"252 -21 CURVE SMOOTH",
"367 -21 OFFCURVE",
"442 23 OFFCURVE",
"486 113 CURVE",
"532 20 OFFCURVE",
"616 -21 OFFCURVE",
"723 -21 CURVE SMOOTH"
);
}
);
width = 1007;
}
);
unicode = 0C8E;
},
{
glyphname = knEE;
lastChange = "2015-09-28 22:19:15 +0000";
layers = (
{
anchors = (
{
name = headline;
position = "{911, 381}";
},
{
name = teardrop;
position = "{491, 0}";
}
);
background = {
paths = (
{
closed = 1;
nodes = (
"610 325 OFFCURVE",
"553 285 OFFCURVE",
"472 285 CURVE SMOOTH",
"355 285 OFFCURVE",
"292 368 OFFCURVE",
"282 507 CURVE",
"304 511 LINE",
"314 382 OFFCURVE",
"368 310 OFFCURVE",
"472 310 CURVE SMOOTH",
"544 310 OFFCURVE",
"593 345 OFFCURVE",
"607 417 CURVE",
"799 392 OFFCURVE",
"911 319 OFFCURVE",
"911 167 CURVE SMOOTH",
"911 39 OFFCURVE",
"832 -21 OFFCURVE",
"709 -21 CURVE SMOOTH",
"613 -21 OFFCURVE",
"523 15 OFFCURVE",
"478 113 CURVE",
"435 23 OFFCURVE",
"361 -21 OFFCURVE",
"249 -21 CURVE SMOOTH",
"142 -21 OFFCURVE",
"69 19 OFFCURVE",
"69 105 CURVE SMOOTH",
"69 189 OFFCURVE",
"138 228 OFFCURVE",
"234 228 CURVE SMOOTH",
"274 228 OFFCURVE",
"313 221 OFFCURVE",
"332 212 CURVE",
"327 191 LINE",
"300 201 OFFCURVE",
"268 206 OFFCURVE",
"234 206 CURVE SMOOTH",
"149 206 OFFCURVE",
"91 175 OFFCURVE",
"91 108 CURVE SMOOTH",
"91 36 OFFCURVE",
"157 4 OFFCURVE",
"249 4 CURVE SMOOTH",
"362 4 OFFCURVE",
"428 52 OFFCURVE",
"466 140 CURVE",
"490 140 LINE",
"527 54 OFFCURVE",
"598 4 OFFCURVE",
"707 4 CURVE SMOOTH",
"811 4 OFFCURVE",
"889 50 OFFCURVE",
"889 169 CURVE SMOOTH",
"889 304 OFFCURVE",
"787 372 OFFCURVE",
"612 396 CURVE",
"625 404 LINE"
);
}
);
};
guideLines = (
{
angle = -7.30576;
position = "{611, 404}";
},
{
position = "{23, 298}";
},
{
position = "{481, 512}";
},
{
position = "{456, 468}";
}
);
layerId = "034236B8-3FA8-43DA-9EDA-EFF269A687EC";
name = Light;
paths = (
{
closed = 1;
nodes = (
"624 325 OFFCURVE",
"566 285 OFFCURVE",
"483 285 CURVE SMOOTH",
"363 285 OFFCURVE",
"298 368 OFFCURVE",
"288 507 CURVE",
"310 511 LINE",
"321 382 OFFCURVE",
"376 310 OFFCURVE",
"483 310 CURVE SMOOTH",
"557 310 OFFCURVE",
"607 345 OFFCURVE",
"622 417 CURVE",
"819 392 OFFCURVE",
"934 319 OFFCURVE",
"934 167 CURVE SMOOTH",
"934 39 OFFCURVE",
"853 -21 OFFCURVE",
"727 -21 CURVE SMOOTH",
"630 -21 OFFCURVE",
"537 15 OFFCURVE",
"491 113 CURVE",
"447 23 OFFCURVE",
"371 -21 OFFCURVE",
"255 -21 CURVE SMOOTH",
"144 -21 OFFCURVE",
"69 19 OFFCURVE",
"69 105 CURVE SMOOTH",
"69 189 OFFCURVE",
"140 228 OFFCURVE",
"238 228 CURVE SMOOTH",
"280 228 OFFCURVE",
"320 221 OFFCURVE",
"339 212 CURVE",
"334 191 LINE",
"306 201 OFFCURVE",
"273 206 OFFCURVE",
"238 206 CURVE SMOOTH",
"151 206 OFFCURVE",
"91 175 OFFCURVE",
"91 108 CURVE SMOOTH",
"91 36 OFFCURVE",
"159 4 OFFCURVE",
"255 4 CURVE SMOOTH",
"372 4 OFFCURVE",
"440 52 OFFCURVE",
"479 140 CURVE",
"503 140 LINE",
"541 54 OFFCURVE",
"614 4 OFFCURVE",
"725 4 CURVE SMOOTH",
"832 4 OFFCURVE",
"912 50 OFFCURVE",
"912 169 CURVE SMOOTH",
"912 304 OFFCURVE",
"807 372 OFFCURVE",
"627 397 CURVE",
"639 404 LINE"
);
}
);
width = 1014;
}
);
unicode = 0C8F;
},
{
glyphname = knAI;
lastChange = "2015-09-28 22:19:15 +0000";
layers = (
{
background = {
paths = (
{
closed = 1;
nodes = (
"665 417 OFFCURVE",
"591 376 OFFCURVE",
"543 291 CURVE",
"492 385 OFFCURVE",
"411 417 OFFCURVE",
"322 417 CURVE SMOOTH",
"225 417 OFFCURVE",
"148 379 OFFCURVE",
"112 296 CURVE",
"131 286 LINE",
"164 352 OFFCURVE",
"218 393 OFFCURVE",
"321 393 CURVE SMOOTH",
"426 393 OFFCURVE",
"489 350 OFFCURVE",
"532 266 CURVE",
"556 266 LINE",
"600 353 OFFCURVE",
"662 393 OFFCURVE",
"763 393 CURVE SMOOTH",
"882 393 OFFCURVE",
"970 337 OFFCURVE",
"970 194 CURVE SMOOTH",
"970 55 OFFCURVE",
"887 4 OFFCURVE",
"776 4 CURVE SMOOTH",
"675 4 OFFCURVE",
"599 47 OFFCURVE",
"556 140 CURVE",
"532 140 LINE",
"486 49 OFFCURVE",
"410 4 OFFCURVE",
"287 4 CURVE SMOOTH",
"184 4 OFFCURVE",
"112 35 OFFCURVE",
"112 106 CURVE SMOOTH",
"112 172 OFFCURVE",
"173 206 OFFCURVE",
"272 206 CURVE SMOOTH",
"306 206 OFFCURVE",
"342 202 OFFCURVE",
"372 192 CURVE",
"376 213 LINE",
"354 222 OFFCURVE",
"311 228 OFFCURVE",
"270 228 CURVE SMOOTH",
"164 228 OFFCURVE",
"90 186 OFFCURVE",
"90 104 CURVE SMOOTH",
"90 19 OFFCURVE",
"167 -21 OFFCURVE",
"287 -21 CURVE SMOOTH",
"405 -21 OFFCURVE",
"494 18 OFFCURVE",
"544 113 CURVE",
"591 15 OFFCURVE",
"682 -21 OFFCURVE",
"777 -21 CURVE SMOOTH",
"911 -21 OFFCURVE",
"992 51 OFFCURVE",
"992 193 CURVE SMOOTH",
"992 337 OFFCURVE",
"907 417 OFFCURVE",
"766 417 CURVE SMOOTH"
);
}
);
};
guideLines = (
{
angle = 90;
position = "{992, 188}";
},
{
angle = 90;
position = "{112, 106}";
},
{
angle = 90;
position = "{556, 140}";
},
{
angle = 90;
position = "{532, 140}";
},
{
angle = 90;
position = "{90, 104}";
},
{
position = "{532, 266}";
}
);
layerId = "034236B8-3FA8-43DA-9EDA-EFF269A687EC";
name = Light;
paths = (
{
closed = 1;
nodes = (
"664 417 OFFCURVE",
"588 378 OFFCURVE",
"541 291 CURVE",
"491 385 OFFCURVE",
"410 417 OFFCURVE",
"323 417 CURVE SMOOTH",
"226 417 OFFCURVE",
"147 373 OFFCURVE",
"110 276 CURVE",
"129 266 LINE",
"163 344 OFFCURVE",
"216 393 OFFCURVE",
"322 393 CURVE SMOOTH",
"425 393 OFFCURVE",
"488 350 OFFCURVE",
"530 266 CURVE",
"554 266 LINE",
"596 353 OFFCURVE",
"660 393 OFFCURVE",
"759 393 CURVE SMOOTH",
"880 393 OFFCURVE",
"968 337 OFFCURVE",
"968 194 CURVE SMOOTH",
"968 55 OFFCURVE",
"885 4 OFFCURVE",
"774 4 CURVE SMOOTH",
"673 4 OFFCURVE",
"597 47 OFFCURVE",
"554 140 CURVE",
"530 140 LINE",
"484 49 OFFCURVE",
"408 4 OFFCURVE",
"285 4 CURVE SMOOTH",
"182 4 OFFCURVE",
"110 35 OFFCURVE",
"110 106 CURVE SMOOTH",
"110 172 OFFCURVE",
"171 206 OFFCURVE",
"270 206 CURVE SMOOTH",
"304 206 OFFCURVE",
"340 202 OFFCURVE",
"370 192 CURVE",
"374 213 LINE",
"352 222 OFFCURVE",
"309 228 OFFCURVE",
"268 228 CURVE SMOOTH",
"162 228 OFFCURVE",
"88 186 OFFCURVE",
"88 104 CURVE SMOOTH",
"88 19 OFFCURVE",
"165 -21 OFFCURVE",
"285 -21 CURVE SMOOTH",
"403 -21 OFFCURVE",
"492 18 OFFCURVE",
"542 113 CURVE",
"589 15 OFFCURVE",
"680 -21 OFFCURVE",
"775 -21 CURVE SMOOTH",
"909 -21 OFFCURVE",
"990 51 OFFCURVE",
"990 193 CURVE SMOOTH",
"990 337 OFFCURVE",
"905 417 OFFCURVE",
"762 417 CURVE SMOOTH"
);
}
);
width = 1087;
}
);
unicode = 0C90;
},
{
glyphname = knO;
lastChange = "2015-09-30 06:09:04 +0000";
layers = (
{
anchors = (
{
name = dot;
position = "{519, 246}";
},
{
name = headline;
position = "{982, 381}";
},
{
name = knmU;
position = "{969, -21}";
},
{
name = knmUU;
position = "{982, -31}";
},
{
name = teardrop;
position = "{519, 0}";
}
);
background = {
anchors = (
{
name = dot;
position = "{519, 246}";
},
{
name = headline;
position = "{982, 381}";
},
{
name = knmU;
position = "{969, -21}";
},
{
name = knmUU;
position = "{982, -31}";
},
{
name = teardrop;
position = "{519, 0}";
}
);
paths = (
{
closed = 0;
nodes = (
"269 -21 LINE"
);
},
{
closed = 1;
nodes = (
"982 184 OFFCURVE",
"979 204 OFFCURVE",
"975 219 CURVE",
"952 221 LINE",
"957 203 OFFCURVE",
"960 185 OFFCURVE",
"960 165 CURVE SMOOTH",
"960 52 OFFCURVE",
"880 4 OFFCURVE",
"754 4 CURVE SMOOTH",
"632 4 OFFCURVE",
"566 48 OFFCURVE",
"531 140 CURVE",
"507 140 LINE",
"458 43 OFFCURVE",
"390 4 OFFCURVE",
"272 4 CURVE SMOOTH",
"165 4 OFFCURVE",
"90 31 OFFCURVE",
"90 104 CURVE SMOOTH",
"90 170 OFFCURVE",
"155 186 OFFCURVE",
"247 206 CURVE SMOOTH",
"330 224 OFFCURVE",
"375 250 OFFCURVE",
"375 317 CURVE SMOOTH",
"375 375 OFFCURVE",
"340 417 OFFCURVE",
"254 417 CURVE SMOOTH",
"172 417 OFFCURVE",
"115 384 OFFCURVE",
"115 315 CURVE SMOOTH",
"115 299 OFFCURVE",
"118 283 OFFCURVE",
"123 271 CURVE",
"146 269 LINE",
"140 284 OFFCURVE",
"137 300 OFFCURVE",
"137 315 CURVE SMOOTH",
"137 370 OFFCURVE",
"178 393 OFFCURVE",
"252 393 CURVE SMOOTH",
"328 393 OFFCURVE",
"353 364 OFFCURVE",
"353 320 CURVE SMOOTH",
"353 257 OFFCURVE",
"302 241 OFFCURVE",
"227 224 CURVE SMOOTH",
"139 204 OFFCURVE",
"68 186 OFFCURVE",
"68 103 CURVE SMOOTH",
"68 10 OFFCURVE",
"157 -21 OFFCURVE",
"269 -21 CURVE SMOOTH",
"385 -21 OFFCURVE",
"468 15 OFFCURVE",
"519 112 CURVE",
"557 18 OFFCURVE",
"642 -21 OFFCURVE",
"757 -21 CURVE SMOOTH",
"894 -21 OFFCURVE",
"982 35 OFFCURVE",
"982 163 CURVE SMOOTH"
);
}
);
};
layerId = "034236B8-3FA8-43DA-9EDA-EFF269A687EC";
name = Light;
paths = (
{
closed = 0;
nodes = (
"269 -21 LINE"
);
},
{
closed = 1;
nodes = (
"934 264 LINE",
"950 235 OFFCURVE",
"960 203 OFFCURVE",
"960 165 CURVE SMOOTH",
"960 52 OFFCURVE",
"880 4 OFFCURVE",
"754 4 CURVE SMOOTH",
"632 4 OFFCURVE",
"566 48 OFFCURVE",
"531 140 CURVE",
"507 140 LINE",
"458 43 OFFCURVE",
"390 4 OFFCURVE",
"272 4 CURVE SMOOTH",
"165 4 OFFCURVE",
"90 31 OFFCURVE",
"90 104 CURVE SMOOTH",
"90 170 OFFCURVE",
"155 186 OFFCURVE",
"247 206 CURVE SMOOTH",
"330 224 OFFCURVE",
"375 250 OFFCURVE",
"375 317 CURVE SMOOTH",
"375 375 OFFCURVE",
"340 417 OFFCURVE",
"254 417 CURVE SMOOTH",
"172 417 OFFCURVE",
"115 384 OFFCURVE",
"115 315 CURVE SMOOTH",
"115 299 OFFCURVE",
"118 283 OFFCURVE",
"123 271 CURVE",
"146 269 LINE",
"140 284 OFFCURVE",
"137 300 OFFCURVE",
"137 315 CURVE SMOOTH",
"137 370 OFFCURVE",
"178 393 OFFCURVE",
"252 393 CURVE SMOOTH",
"328 393 OFFCURVE",
"353 364 OFFCURVE",
"353 320 CURVE SMOOTH",
"353 257 OFFCURVE",
"302 241 OFFCURVE",
"227 224 CURVE SMOOTH",
"139 204 OFFCURVE",
"68 186 OFFCURVE",
"68 103 CURVE SMOOTH",
"68 10 OFFCURVE",
"157 -21 OFFCURVE",
"269 -21 CURVE SMOOTH",
"385 -21 OFFCURVE",
"468 15 OFFCURVE",
"519 112 CURVE",
"557 18 OFFCURVE",
"642 -21 OFFCURVE",
"757 -21 CURVE SMOOTH",
"894 -21 OFFCURVE",
"982 35 OFFCURVE",
"982 163 CURVE SMOOTH",
"982 204 OFFCURVE",
"973 238 OFFCURVE",
"955 271 CURVE"
);
}
);
width = 1064;
}
);
leftMetricsKey = knBA.base;
unicode = 0C92;
},
{
glyphname = knOO;
lastChange = "2015-09-28 22:19:15 +0000";
layers = (
{
background = {
components = (
{
name = knO;
}
);
guideLines = (
{
angle = 90;
position = "{262, 417}";
}
);
paths = (
{
closed = 1;
nodes = (
"262 417 LINE",
"236 417 OFFCURVE",
"189 429 OFFCURVE",
"189 478 CURVE SMOOTH",
"189 522 OFFCURVE",
"227 537 OFFCURVE",
"274 537 CURVE SMOOTH",
"291 537 OFFCURVE",
"313 535 OFFCURVE",
"334 528 CURVE",
"338 550 LINE",
"318 557 OFFCURVE",
"295 560 OFFCURVE",
"274 560 CURVE SMOOTH",
"207 560 OFFCURVE",
"167 531 OFFCURVE",
"167 482 CURVE SMOOTH",
"167 433 OFFCURVE",
"198 405 OFFCURVE",
"262 402 CURVE"
);
}
);
};
components = (
{
name = knO;
}
);
guideLines = (
{
angle = 90;
position = "{353, 320}";
},
{
angle = 90;
position = "{254, 417}";
},
{
angle = 90;
position = "{126, 315}";
},
{
angle = 90;
position = "{137, 315}";
}
);
layerId = "034236B8-3FA8-43DA-9EDA-EFF269A687EC";
name = Light;
paths = (
{
closed = 1;
nodes = (
"254 402 LINE",
"254 417 LINE",
"233 417 LINE SMOOTH",
"204 417 OFFCURVE",
"148 429 OFFCURVE",
"148 479 CURVE SMOOTH",
"148 524 OFFCURVE",
"192 540 OFFCURVE",
"252 540 CURVE SMOOTH",
"267 540 OFFCURVE",
"298 539 OFFCURVE",
"326 531 CURVE",
"330 553 LINE",
"304 560 OFFCURVE",
"273 563 OFFCURVE",
"248 563 CURVE SMOOTH",
"171 563 OFFCURVE",
"126 533 OFFCURVE",
"126 480 CURVE SMOOTH",
"126 431 OFFCURVE",
"164 402 OFFCURVE",
"233 402 CURVE SMOOTH"
);
}
);
width = 1064;
}
);
leftMetricsKey = knBA.base;
rightMetricsKey = knO;
unicode = 0C93;
},
{
glyphname = knAU;
lastChange = "2015-09-28 22:19:15 +0000";
layers = (
{
background = {
paths = (
{
closed = 1;
nodes = (
"126 550 LINE",
"126 526 LINE",
"636 526 LINE SMOOTH",
"792 526 OFFCURVE",
"873 471 OFFCURVE",
"873 359 CURVE SMOOTH",
"873 272 OFFCURVE",
"813 222 OFFCURVE",
"713 222 CURVE SMOOTH",
"631 222 OFFCURVE",
"597 255 OFFCURVE",
"597 301 CURVE SMOOTH",
"597 339 OFFCURVE",
"620 367 OFFCURVE",
"678 373 CURVE",
"679 372 LINE",
"676 366 OFFCURVE",
"675 360 OFFCURVE",
"675 355 CURVE SMOOTH",
"675 332 OFFCURVE",
"693 320 OFFCURVE",
"721 320 CURVE SMOOTH",
"752 320 OFFCURVE",
"769 335 OFFCURVE",
"769 355 CURVE SMOOTH",
"769 383 OFFCURVE",
"751 395 OFFCURVE",
"704 395 CURVE SMOOTH",
"625 395 OFFCURVE",
"575 360 OFFCURVE",
"575 298 CURVE SMOOTH",
"575 237 OFFCURVE",
"624 197 OFFCURVE",
"714 197 CURVE SMOOTH",
"825 197 OFFCURVE",
"895 257 OFFCURVE",
"895 363 CURVE SMOOTH",
"895 481 OFFCURVE",
"806 550 OFFCURVE",
"634 550 CURVE SMOOTH"
);
},
{
closed = 1;
nodes = (
"351 538 LINE",
"359 525 OFFCURVE",
"365 506 OFFCURVE",
"365 486 CURVE SMOOTH",
"365 437 OFFCURVE",
"335 417 OFFCURVE",
"266 417 CURVE",
"273 395 LINE",
"348 395 OFFCURVE",
"387 426 OFFCURVE",
"387 483 CURVE SMOOTH",
"387 505 OFFCURVE",
"381 524 OFFCURVE",
"371 538 CURVE"
);
}
);
};
components = (
{
name = knO;
}
);
layerId = "034236B8-3FA8-43DA-9EDA-EFF269A687EC";
name = Light;
paths = (
{
closed = 1;
nodes = (
"126 550 LINE",
"126 526 LINE",
"635 526 LINE SMOOTH",
"791 526 OFFCURVE",
"872 471 OFFCURVE",
"872 359 CURVE SMOOTH",
"872 272 OFFCURVE",
"812 222 OFFCURVE",
"712 222 CURVE SMOOTH",
"630 222 OFFCURVE",
"596 255 OFFCURVE",
"596 301 CURVE SMOOTH",
"596 339 OFFCURVE",
"619 367 OFFCURVE",
"677 373 CURVE",
"678 372 LINE",
"675 366 OFFCURVE",
"674 360 OFFCURVE",
"674 355 CURVE SMOOTH",
"674 332 OFFCURVE",
"692 320 OFFCURVE",
"720 320 CURVE SMOOTH",
"751 320 OFFCURVE",
"768 335 OFFCURVE",
"768 355 CURVE SMOOTH",
"768 383 OFFCURVE",
"750 395 OFFCURVE",
"703 395 CURVE SMOOTH",
"624 395 OFFCURVE",
"574 360 OFFCURVE",
"574 298 CURVE SMOOTH",
"574 237 OFFCURVE",
"623 197 OFFCURVE",
"713 197 CURVE SMOOTH",
"824 197 OFFCURVE",
"894 257 OFFCURVE",
"894 363 CURVE SMOOTH",
"894 481 OFFCURVE",
"805 550 OFFCURVE",
"633 550 CURVE SMOOTH"
);
},
{
closed = 1;
nodes = (
"351 538 LINE",
"359 525 OFFCURVE",
"365 506 OFFCURVE",
"365 486 CURVE SMOOTH",
"365 437 OFFCURVE",
"335 417 OFFCURVE",
"254 417 CURVE",
"261 395 LINE",
"348 395 OFFCURVE",
"387 426 OFFCURVE",
"387 483 CURVE SMOOTH",
"387 505 OFFCURVE",
"381 524 OFFCURVE",
"371 538 CURVE"
);
}
);
width = 1092;
}
);
leftMetricsKey = knBA.base;
unicode = 0C94;
},
{
glyphname = knmAA;
lastChange = "2015-09-30 05:17:33 +0000";
layers = (
{
background = {
guideLines = (
{
position = "{315, 250}";
},
{
position = "{333, 52}";
},
{
angle = 90;
position = "{194, 155}";
},
{
angle = 257.074;
position = "{411, 268}";
}
);
paths = (
{
closed = 0;
nodes = (
"339 76 LINE",
"266 76 OFFCURVE",
"216 100 OFFCURVE",
"216 154 CURVE SMOOTH",
"216 203 OFFCURVE",
"260 226 OFFCURVE",
"324 226 CURVE SMOOTH",
"352 226 OFFCURVE",
"377 222 OFFCURVE",
"399 215 CURVE",
"404 239 LINE",
"388 245 OFFCURVE",
"359 250 OFFCURVE",
"322 250 CURVE SMOOTH",
"250 250 OFFCURVE",
"194 219 OFFCURVE",
"194 152 CURVE SMOOTH",
"194 84 OFFCURVE",
"253 52 OFFCURVE",
"336 52 CURVE"
);
}
);
};
components = (
{
name = _part.knmAA;
}
);
guideLines = (
{
position = "{315, 250}";
},
{
position = "{333, 52}";
},
{
angle = 90;
position = "{194, 155}";
}
);
layerId = "034236B8-3FA8-43DA-9EDA-EFF269A687EC";
name = Light;
width = 670;
}
);
rightMetricsKey = _part.knmAA;
unicode = 0CBE;
},
{
glyphname = knmI;
lastChange = "2015-09-30 05:39:54 +0000";
layers = (
{
layerId = "034236B8-3FA8-43DA-9EDA-EFF269A687EC";
name = Light;
paths = (
{
closed = 1;
nodes = (
"230 360 OFFCURVE",
"198 290 OFFCURVE",
"74 290 CURVE",
"74 266 LINE",
"209 266 OFFCURVE",
"250 350 OFFCURVE",
"250 420 CURVE SMOOTH",
"250 498 OFFCURVE",
"197 555 OFFCURVE",
"110 555 CURVE SMOOTH",
"47 555 OFFCURVE",
"0 525 OFFCURVE",
"0 473 CURVE SMOOTH",
"0 419 OFFCURVE",
"51 391 OFFCURVE",
"119 391 CURVE SMOOTH",
"158 391 OFFCURVE",
"210 400 OFFCURVE",
"242 420 CURVE",
"236 438 LINE",
"208 424 OFFCURVE",
"159 415 OFFCURVE",
"120 415 CURVE SMOOTH",
"61 415 OFFCURVE",
"22 436 OFFCURVE",
"22 474 CURVE SMOOTH",
"22 513 OFFCURVE",
"61 531 OFFCURVE",
"109 531 CURVE SMOOTH",
"173 531 OFFCURVE",
"230 498 OFFCURVE",
"230 419 CURVE SMOOTH"
);
}
);
width = 0;
}
);
unicode = 0CBF;
},
{
glyphname = knmII;
lastChange = "2015-09-30 05:45:06 +0000";
layers = (
{
background = {
paths = (
{
closed = 1;
nodes = (
"235 302 OFFCURVE",
"179 245 OFFCURVE",
"44 245 CURVE SMOOTH",
"39 245 LINE",
"41 221 LINE",
"223 221 OFFCURVE",
"255 320 OFFCURVE",
"255 400 CURVE SMOOTH",
"255 489 OFFCURVE",
"202 543 OFFCURVE",
"115 543 CURVE SMOOTH",
"52 543 OFFCURVE",
"5 513 OFFCURVE",
"5 461 CURVE SMOOTH",
"5 407 OFFCURVE",
"56 379 OFFCURVE",
"124 379 CURVE SMOOTH",
"163 379 OFFCURVE",
"215 388 OFFCURVE",
"247 408 CURVE",
"241 426 LINE",
"213 412 OFFCURVE",
"164 403 OFFCURVE",
"125 403 CURVE SMOOTH",
"66 403 OFFCURVE",
"27 424 OFFCURVE",
"27 462 CURVE SMOOTH",
"27 501 OFFCURVE",
"66 519 OFFCURVE",
"114 519 CURVE SMOOTH",
"178 519 OFFCURVE",
"235 488 OFFCURVE",
"235 400 CURVE SMOOTH"
);
}
);
};
guideLines = (
{
position = "{102, 221}";
},
{
position = "{358, 543}";
},
{
angle = 90;
position = "{330, 234}";
},
{
angle = 90;
position = "{27, 462}";
},
{
angle = 90;
position = "{255, 392}";
},
{
position = "{-330, -8}";
},
{
position = "{514, 233}";
},
{
angle = -43.9499;
position = "{196, 300}";
showMeasurement = 1;
}
);
layerId = "034236B8-3FA8-43DA-9EDA-EFF269A687EC";
name = Light;
paths = (
{
closed = 1;
nodes = (
"235 304 OFFCURVE",
"179 245 OFFCURVE",
"44 245 CURVE SMOOTH",
"39 245 LINE",
"41 221 LINE",
"221 221 OFFCURVE",
"255 320 OFFCURVE",
"255 396 CURVE SMOOTH",
"255 491 OFFCURVE",
"202 543 OFFCURVE",
"116 543 CURVE SMOOTH",
"51 543 OFFCURVE",
"5 513 OFFCURVE",
"5 461 CURVE SMOOTH",
"5 407 OFFCURVE",
"56 379 OFFCURVE",
"124 379 CURVE SMOOTH",
"163 379 OFFCURVE",
"215 388 OFFCURVE",
"247 408 CURVE",
"241 426 LINE",
"213 412 OFFCURVE",
"164 403 OFFCURVE",
"125 403 CURVE SMOOTH",
"66 403 OFFCURVE",
"27 424 OFFCURVE",
"27 462 CURVE SMOOTH",
"27 501 OFFCURVE",
"66 519 OFFCURVE",
"115 519 CURVE SMOOTH",
"178 519 OFFCURVE",
"235 490 OFFCURVE",
"235 397 CURVE SMOOTH"
);
},
{
closed = 1;
nodes = (
"386 346 OFFCURVE",
"464 393 OFFCURVE",
"552 393 CURVE SMOOTH",
"619 393 OFFCURVE",
"674 367 OFFCURVE",
"674 313 CURVE SMOOTH",
"674 259 OFFCURVE",
"616 233 OFFCURVE",
"538 233 CURVE SMOOTH",
"482 233 OFFCURVE",
"418 246 OFFCURVE",
"380 265 CURVE",
"371 248 LINE",
"416 222 OFFCURVE",
"485 209 OFFCURVE",
"538 209 CURVE SMOOTH",
"627 209 OFFCURVE",
"696 246 OFFCURVE",
"696 313 CURVE SMOOTH",
"696 380 OFFCURVE",
"629 417 OFFCURVE",
"550 417 CURVE SMOOTH",
"456 417 OFFCURVE",
"364 362 OFFCURVE",
"364 234 CURVE SMOOTH",
"364 101 OFFCURVE",
"463 22 OFFCURVE",
"602 -5 CURVE",
"609 19 LINE",
"472 45 OFFCURVE",
"386 117 OFFCURVE",
"386 233 CURVE SMOOTH"
);
}
);
width = 731;
}
);
rightMetricsKey = knLengthmark;
unicode = 0CC0;
},
{
glyphname = knmU;
lastChange = "2015-09-30 05:45:18 +0000";
layers = (
{
background = {
paths = (
{
closed = 1;
nodes = (
"-99 131 LINE",
"-52 32 OFFCURVE",
"43 -21 OFFCURVE",
"171 -21 CURVE SMOOTH",
"314 -21 OFFCURVE",
"404 61 OFFCURVE",
"404 190 CURVE SMOOTH",
"404 296 OFFCURVE",
"348 373 OFFCURVE",
"226 403 CURVE",
"220 384 LINE",
"314 360 OFFCURVE",
"382 303 OFFCURVE",
"382 193 CURVE SMOOTH",
"382 77 OFFCURVE",
"305 4 OFFCURVE",
"172 4 CURVE SMOOTH",
"46 4 OFFCURVE",
"-40 56 OFFCURVE",
"-87 151 CURVE"
);
}
);
};
components = (
{
name = _part.knmU;
}
);
guideLines = (
{
angle = 58.3087;
position = "{-85, 154}";
},
{
position = "{85, 154}";
}
);
layerId = "034236B8-3FA8-43DA-9EDA-EFF269A687EC";
name = Light;
width = 446;
}
);
rightMetricsKey = _part.knmU;
unicode = 0CC1;
},
{
glyphname = knmUU;
lastChange = "2015-09-30 05:44:18 +0000";
layers = (
{
background = {
paths = (
{
closed = 1;
nodes = (
"-14 155 LINE",
"-14 58 OFFCURVE",
"25 -9 OFFCURVE",
"124 -9 CURVE SMOOTH",
"220 -9 OFFCURVE",
"272 57 OFFCURVE",
"272 143 CURVE SMOOTH",
"272 232 OFFCURVE",
"254 273 OFFCURVE",
"254 358 CURVE SMOOTH",
"254 447 OFFCURVE",
"310 503 OFFCURVE",
"391 503 CURVE SMOOTH",
"513 503 OFFCURVE",
"584 397 OFFCURVE",
"584 259 CURVE SMOOTH",
"584 177 OFFCURVE",
"558 43 OFFCURVE",
"460 43 CURVE SMOOTH",
"410 43 OFFCURVE",
"379 79 OFFCURVE",
"379 128 CURVE SMOOTH",
"380 183 OFFCURVE",
"417 211 OFFCURVE",
"466 211 CURVE SMOOTH",
"481 211 OFFCURVE",
"497 208 OFFCURVE",
"514 203 CURVE",
"514 256 LINE",
"495 261 OFFCURVE",
"476 264 OFFCURVE",
"458 264 CURVE SMOOTH",
"382 264 OFFCURVE",
"317 217 OFFCURVE",
"316 127 CURVE SMOOTH",
"316 52 OFFCURVE",
"374 -9 OFFCURVE",
"456 -9 CURVE SMOOTH",
"582 -9 OFFCURVE",
"638 119 OFFCURVE",
"638 260 CURVE SMOOTH",
"638 419 OFFCURVE",
"555 556 OFFCURVE",
"391 556 CURVE SMOOTH",
"274 556 OFFCURVE",
"192 476 OFFCURVE",
"192 364 CURVE SMOOTH",
"192 282 OFFCURVE",
"211 220 OFFCURVE",
"211 145 CURVE SMOOTH",
"211 81 OFFCURVE",
"175 43 OFFCURVE",
"120 43 CURVE SMOOTH",
"64 43 OFFCURVE",
"31 79 OFFCURVE",
"31 155 CURVE"
);
}
);
};
components = (
{
name = _part.knmUU;
transform = "{1, 0, 0, 1, -11, 0}";
}
);
guideLines = (
{
angle = 90;
position = "{-65, 111}";
}
);
layerId = "034236B8-3FA8-43DA-9EDA-EFF269A687EC";
name = Light;
width = 710;
}
);
leftMetricsKey = knmUU;
rightMetricsKey = _part.knmUU;
unicode = 0CC2;
},
{
glyphname = knmvR;
lastChange = "2015-09-28 22:19:15 +0000";
layers = (
{
background = {
paths = (
{
closed = 1;
nodes = (
"32 -31 OFFCURVE",
"70 4 OFFCURVE",
"70 57 CURVE SMOOTH",
"70 90 OFFCURVE",
"58 117 OFFCURVE",
"42 141 CURVE",
"22 131 LINE",
"39 108 OFFCURVE",
"48 87 OFFCURVE",
"48 58 CURVE SMOOTH",
"48 23 OFFCURVE",
"22 -10 OFFCURVE",
"-36 -10 CURVE SMOOTH",
"-79 -10 LINE",
"-79 -32 LINE",
"21 -36 OFFCURVE",
"59 -91 OFFCURVE",
"59 -179 CURVE SMOOTH",
"59 -271 OFFCURVE",
"5 -330 OFFCURVE",
"-98 -330 CURVE SMOOTH",
"-188 -330 OFFCURVE",
"-239 -294 OFFCURVE",
"-239 -234 CURVE SMOOTH",
"-239 -178 OFFCURVE",
"-198 -144 OFFCURVE",
"-130 -144 CURVE SMOOTH",
"-90 -144 OFFCURVE",
"-68 -155 OFFCURVE",
"-68 -184 CURVE SMOOTH",
"-68 -212 OFFCURVE",
"-90 -225 OFFCURVE",
"-133 -225 CURVE SMOOTH",
"-174 -225 OFFCURVE",
"-210 -213 OFFCURVE",
"-236 -192 CURVE",
"-247 -211 LINE",
"-211 -239 OFFCURVE",
"-169 -249 OFFCURVE",
"-134 -249 CURVE SMOOTH",
"-83 -249 OFFCURVE",
"-47 -228 OFFCURVE",
"-47 -183 CURVE SMOOTH",
"-47 -139 OFFCURVE",
"-83 -120 OFFCURVE",
"-132 -120 CURVE SMOOTH",
"-206 -120 OFFCURVE",
"-259 -165 OFFCURVE",
"-259 -235 CURVE SMOOTH",
"-259 -310 OFFCURVE",
"-194 -353 OFFCURVE",
"-97 -353 CURVE SMOOTH",
"17 -353 OFFCURVE",
"81 -282 OFFCURVE",
"81 -174 CURVE SMOOTH",
"81 -84 OFFCURVE",
"34 -31 OFFCURVE",
"-37 -18 CURVE",
"-37 -31 LINE"
);
}
);
};
layerId = "034236B8-3FA8-43DA-9EDA-EFF269A687EC";
name = Light;
paths = (
{
closed = 1;
nodes = (
"11 -353 OFFCURVE",
"75 -287 OFFCURVE",
"75 -162 CURVE SMOOTH",
"75 -106 OFFCURVE",
"62 -40 OFFCURVE",
"37 24 CURVE",
"13 26 LINE",
"13 25 LINE",
"37 -35 OFFCURVE",
"54 -98 OFFCURVE",
"54 -163 CURVE SMOOTH",
"54 -275 OFFCURVE",
"2 -329 OFFCURVE",
"-107 -329 CURVE SMOOTH",
"-196 -329 OFFCURVE",
"-244 -293 OFFCURVE",
"-244 -234 CURVE SMOOTH",
"-244 -177 OFFCURVE",
"-203 -144 OFFCURVE",
"-135 -144 CURVE SMOOTH",
"-95 -144 OFFCURVE",
"-73 -155 OFFCURVE",
"-73 -184 CURVE SMOOTH",
"-73 -212 OFFCURVE",
"-95 -225 OFFCURVE",
"-138 -225 CURVE SMOOTH",
"-179 -225 OFFCURVE",
"-215 -213 OFFCURVE",
"-241 -192 CURVE",
"-252 -211 LINE",
"-216 -239 OFFCURVE",
"-174 -249 OFFCURVE",
"-139 -249 CURVE SMOOTH",
"-88 -249 OFFCURVE",
"-52 -228 OFFCURVE",
"-52 -183 CURVE SMOOTH",
"-52 -139 OFFCURVE",
"-88 -120 OFFCURVE",
"-137 -120 CURVE SMOOTH",
"-211 -120 OFFCURVE",
"-264 -164 OFFCURVE",
"-264 -235 CURVE SMOOTH",
"-264 -309 OFFCURVE",
"-203 -353 OFFCURVE",
"-107 -353 CURVE SMOOTH"
);
}
);
width = 40;
},
{
associatedMasterId = "034236B8-3FA8-43DA-9EDA-EFF269A687EC";
background = {
paths = (
{
closed = 1;
nodes = (
"13 -353 OFFCURVE",
"78 -287 OFFCURVE",
"78 -161 CURVE SMOOTH",
"78 -107 OFFCURVE",
"65 -40 OFFCURVE",
"40 24 CURVE",
"16 26 LINE",
"16 25 LINE",
"40 -35 OFFCURVE",
"57 -98 OFFCURVE",
"57 -163 CURVE SMOOTH",
"57 -273 OFFCURVE",
"5 -330 OFFCURVE",
"-99 -330 CURVE SMOOTH",
"-190 -330 OFFCURVE",
"-238 -293 OFFCURVE",
"-238 -235 CURVE SMOOTH",
"-238 -178 OFFCURVE",
"-196 -145 OFFCURVE",
"-130 -145 CURVE SMOOTH",
"-90 -145 OFFCURVE",
"-70 -157 OFFCURVE",
"-70 -184 CURVE SMOOTH",
"-70 -210 OFFCURVE",
"-90 -223 OFFCURVE",
"-132 -223 CURVE SMOOTH",
"-172 -223 OFFCURVE",
"-208 -211 OFFCURVE",
"-230 -193 CURVE",
"-241 -211 LINE",
"-209 -236 OFFCURVE",
"-167 -246 OFFCURVE",
"-133 -246 CURVE SMOOTH",
"-83 -246 OFFCURVE",
"-49 -225 OFFCURVE",
"-49 -183 CURVE SMOOTH",
"-49 -141 OFFCURVE",
"-83 -122 OFFCURVE",
"-131 -122 CURVE SMOOTH",
"-204 -122 OFFCURVE",
"-257 -165 OFFCURVE",
"-257 -236 CURVE SMOOTH",
"-257 -309 OFFCURVE",
"-197 -353 OFFCURVE",
"-99 -353 CURVE SMOOTH"
);
}
);
};
layerId = "D0C3A5F5-632A-4710-A169-7414E4F64027";
name = "Light Sep 28 15, 10:13";
paths = (
{
closed = 1;
nodes = (
"13 -353 OFFCURVE",
"78 -287 OFFCURVE",
"78 -161 CURVE SMOOTH",
"78 -107 OFFCURVE",
"65 -40 OFFCURVE",
"40 24 CURVE",
"16 26 LINE",
"16 25 LINE",
"40 -35 OFFCURVE",
"57 -98 OFFCURVE",
"57 -163 CURVE SMOOTH",
"57 -273 OFFCURVE",
"5 -330 OFFCURVE",
"-99 -330 CURVE SMOOTH",
"-190 -330 OFFCURVE",
"-238 -293 OFFCURVE",
"-238 -235 CURVE SMOOTH",
"-238 -178 OFFCURVE",
"-196 -145 OFFCURVE",
"-130 -145 CURVE SMOOTH",
"-90 -145 OFFCURVE",
"-70 -157 OFFCURVE",
"-70 -184 CURVE SMOOTH",
"-70 -210 OFFCURVE",
"-90 -223 OFFCURVE",
"-132 -223 CURVE SMOOTH",
"-172 -223 OFFCURVE",
"-208 -211 OFFCURVE",
"-230 -193 CURVE",
"-241 -211 LINE",
"-209 -236 OFFCURVE",
"-167 -246 OFFCURVE",
"-133 -246 CURVE SMOOTH",
"-83 -246 OFFCURVE",
"-49 -225 OFFCURVE",
"-49 -183 CURVE SMOOTH",
"-49 -141 OFFCURVE",
"-83 -122 OFFCURVE",
"-131 -122 CURVE SMOOTH",
"-204 -122 OFFCURVE",
"-257 -165 OFFCURVE",
"-257 -236 CURVE SMOOTH",
"-257 -309 OFFCURVE",
"-197 -353 OFFCURVE",
"-99 -353 CURVE SMOOTH"
);
}
);
width = 45;
}
);
unicode = 0CC3;
},
{
glyphname = knmvRR;
lastChange = "2015-09-28 22:19:15 +0000";
layers = (
{
background = {
guideLines = (
{
angle = 90;
position = "{-100, -363}";
}
);
paths = (
{
closed = 1;
nodes = (
"329 -308 OFFCURVE",
"386 -253 OFFCURVE",
"386 -158 CURVE SMOOTH",
"386 -41 OFFCURVE",
"299 26 OFFCURVE",
"118 26 CURVE SMOOTH",
"-8 26 LINE",
"5 4 LINE",
"120 4 LINE SMOOTH",
"279 4 OFFCURVE",
"365 -54 OFFCURVE",
"365 -161 CURVE SMOOTH",
"365 -239 OFFCURVE",
"319 -285 OFFCURVE",
"236 -285 CURVE SMOOTH",
"162 -285 OFFCURVE",
"127 -250 OFFCURVE",
"127 -204 CURVE SMOOTH",
"127 -158 OFFCURVE",
"152 -132 OFFCURVE",
"201 -128 CURVE",
"198 -133 OFFCURVE",
"197 -138 OFFCURVE",
"197 -143 CURVE SMOOTH",
"197 -163 OFFCURVE",
"212 -174 OFFCURVE",
"238 -174 CURVE SMOOTH",
"265 -174 OFFCURVE",
"280 -161 OFFCURVE",
"280 -140 CURVE SMOOTH",
"280 -116 OFFCURVE",
"262 -106 OFFCURVE",
"224 -106 CURVE SMOOTH",
"151 -106 OFFCURVE",
"106 -140 OFFCURVE",
"106 -206 CURVE SMOOTH",
"106 -267 OFFCURVE",
"155 -308 OFFCURVE",
"237 -308 CURVE SMOOTH"
);
}
);
};
components = (
{
name = knmvR;
}
);
guideLines = (
{
position = "{28, -122}";
},
{
angle = 90;
position = "{-100, -363}";
},
{
position = "{40, -330}";
},
{
position = "{23, -236}";
}
);
layerId = "034236B8-3FA8-43DA-9EDA-EFF269A687EC";
name = Light;
paths = (
{
closed = 1;
nodes = (
"367 -318 OFFCURVE",
"427 -267 OFFCURVE",
"427 -174 CURVE SMOOTH",
"427 -43 OFFCURVE",
"333 26 OFFCURVE",
"152 26 CURVE SMOOTH",
"13 26 LINE",
"26 4 LINE",
"154 4 LINE SMOOTH",
"315 4 OFFCURVE",
"406 -54 OFFCURVE",
"406 -177 CURVE SMOOTH",
"406 -253 OFFCURVE",
"357 -295 OFFCURVE",
"276 -295 CURVE SMOOTH",
"198 -295 OFFCURVE",
"163 -263 OFFCURVE",
"163 -220 CURVE SMOOTH",
"163 -178 OFFCURVE",
"188 -154 OFFCURVE",
"237 -150 CURVE",
"234 -155 OFFCURVE",
"233 -160 OFFCURVE",
"233 -165 CURVE SMOOTH",
"233 -185 OFFCURVE",
"248 -196 OFFCURVE",
"274 -196 CURVE SMOOTH",
"301 -196 OFFCURVE",
"316 -183 OFFCURVE",
"316 -162 CURVE SMOOTH",
"316 -138 OFFCURVE",
"298 -128 OFFCURVE",
"260 -128 CURVE SMOOTH",
"187 -128 OFFCURVE",
"142 -160 OFFCURVE",
"142 -222 CURVE SMOOTH",
"142 -279 OFFCURVE",
"191 -318 OFFCURVE",
"277 -318 CURVE SMOOTH"
);
}
);
width = 357;
}
);
unicode = 0CC4;
},
{
glyphname = knmvL;
lastChange = "2015-09-28 22:19:15 +0000";
layers = (
{
background = {
paths = (
{
closed = 1;
nodes = (
"127 -327 OFFCURVE",
"155 -353 OFFCURVE",
"209 -353 CURVE SMOOTH",
"255 -353 OFFCURVE",
"283 -327 OFFCURVE",
"283 -284 CURVE SMOOTH",
"283 -273 OFFCURVE",
"282 -263 OFFCURVE",
"280 -255 CURVE",
"259 -254 LINE",
"261 -264 OFFCURVE",
"262 -273 OFFCURVE",
"262 -284 CURVE SMOOTH",
"262 -312 OFFCURVE",
"250 -329 OFFCURVE",
"209 -329 CURVE SMOOTH",
"166 -329 OFFCURVE",
"148 -313 OFFCURVE",
"148 -291 CURVE SMOOTH",
"147 -267 OFFCURVE",
"161 -253 OFFCURVE",
"172 -240 CURVE SMOOTH",
"185 -224 OFFCURVE",
"199 -211 OFFCURVE",
"199 -174 CURVE SMOOTH",
"199 -108 OFFCURVE",
"141 -75 OFFCURVE",
"73 -75 CURVE SMOOTH",
"2 -75 OFFCURVE",
"-52 -100 OFFCURVE",
"-81 -160 CURVE",
"-111 -100 OFFCURVE",
"-163 -75 OFFCURVE",
"-234 -75 CURVE SMOOTH",
"-304 -75 OFFCURVE",
"-362 -105 OFFCURVE",
"-362 -184 CURVE SMOOTH",
"-362 -207 OFFCURVE",
"-358 -229 OFFCURVE",
"-344 -255 CURVE",
"-324 -247 LINE",
"-334 -232 OFFCURVE",
"-341 -210 OFFCURVE",
"-341 -186 CURVE SMOOTH",
"-341 -130 OFFCURVE",
"-300 -98 OFFCURVE",
"-231 -98 CURVE SMOOTH",
"-164 -98 OFFCURVE",
"-121 -124 OFFCURVE",
"-93 -184 CURVE",
"-70 -184 LINE",
"-43 -125 OFFCURVE",
"2 -98 OFFCURVE",
"71 -98 CURVE SMOOTH",
"133 -98 OFFCURVE",
"178 -129 OFFCURVE",
"178 -175 CURVE SMOOTH",
"178 -198 OFFCURVE",
"174 -206 OFFCURVE",
"156 -227 CURVE SMOOTH",
"134 -252 OFFCURVE",
"127 -269 OFFCURVE",
"127 -291 CURVE SMOOTH"
);
}
);
};
guideLines = (
{
angle = 90;
position = "{-232, -65}";
showMeasurement = 1;
},
{
angle = 29.0546;
position = "{-344, -256}";
showMeasurement = 1;
},
{
position = "{-382, -185}";
showMeasurement = 1;
},
{
angle = -40.6013;
position = "{179, -247}";
showMeasurement = 1;
},
{
angle = 90;
position = "{-81, -160}";
}
);
layerId = "034236B8-3FA8-43DA-9EDA-EFF269A687EC";
name = Light;
paths = (
{
closed = 1;
nodes = (
"125 -327 OFFCURVE",
"153 -353 OFFCURVE",
"207 -353 CURVE SMOOTH",
"253 -353 OFFCURVE",
"281 -327 OFFCURVE",
"281 -284 CURVE SMOOTH",
"281 -273 OFFCURVE",
"280 -263 OFFCURVE",
"278 -255 CURVE",
"257 -254 LINE",
"259 -264 OFFCURVE",
"260 -273 OFFCURVE",
"260 -284 CURVE SMOOTH",
"260 -312 OFFCURVE",
"248 -329 OFFCURVE",
"207 -329 CURVE SMOOTH",
"164 -329 OFFCURVE",
"146 -313 OFFCURVE",
"146 -291 CURVE SMOOTH",
"145 -267 OFFCURVE",
"159 -253 OFFCURVE",
"170 -240 CURVE SMOOTH",
"183 -224 OFFCURVE",
"197 -211 OFFCURVE",
"197 -174 CURVE SMOOTH",
"197 -108 OFFCURVE",
"139 -75 OFFCURVE",
"71 -75 CURVE SMOOTH",
"0 -75 OFFCURVE",
"-52 -100 OFFCURVE",
"-81 -160 CURVE",
"-111 -100 OFFCURVE",
"-161 -75 OFFCURVE",
"-232 -75 CURVE SMOOTH",
"-302 -75 OFFCURVE",
"-360 -105 OFFCURVE",
"-360 -184 CURVE SMOOTH",
"-360 -207 OFFCURVE",
"-356 -229 OFFCURVE",
"-342 -255 CURVE",
"-322 -247 LINE",
"-332 -232 OFFCURVE",
"-339 -210 OFFCURVE",
"-339 -186 CURVE SMOOTH",
"-339 -130 OFFCURVE",
"-298 -98 OFFCURVE",
"-229 -98 CURVE SMOOTH",
"-162 -98 OFFCURVE",
"-121 -124 OFFCURVE",
"-93 -184 CURVE",
"-70 -184 LINE",
"-43 -125 OFFCURVE",
"0 -98 OFFCURVE",
"69 -98 CURVE SMOOTH",
"131 -98 OFFCURVE",
"176 -129 OFFCURVE",
"176 -175 CURVE SMOOTH",
"176 -198 OFFCURVE",
"172 -208 OFFCURVE",
"155 -227 CURVE SMOOTH",
"133 -252 OFFCURVE",
"125 -269 OFFCURVE",
"125 -291 CURVE SMOOTH"
);
}
);
width = 0;
}
);
unicode = 0CE2;
},
{
glyphname = knmvLL;
lastChange = "2015-09-28 22:19:15 +0000";
layers = (
{
background = {
paths = (
{
closed = 1;
nodes = (
"-336 -256 CURVE",
"-316 -248 LINE",
"-327 -225 OFFCURVE",
"-334 -207 OFFCURVE",
"-334 -185 CURVE SMOOTH",
"-334 -129 OFFCURVE",
"-294 -98 OFFCURVE",
"-224 -98 CURVE SMOOTH",
"-159 -98 OFFCURVE",
"-119 -125 OFFCURVE",
"-92 -184 CURVE",
"-68 -184 LINE",
"-45 -127 OFFCURVE",
"-1 -98 OFFCURVE",
"63 -98 CURVE SMOOTH",
"128 -98 OFFCURVE",
"173 -129 OFFCURVE",
"173 -173 CURVE SMOOTH",
"173 -237 OFFCURVE",
"98 -231 OFFCURVE",
"98 -294 CURVE SMOOTH",
"98 -330 OFFCURVE",
"123 -353 OFFCURVE",
"180 -353 CURVE SMOOTH",
"256 -353 OFFCURVE",
"285 -303 OFFCURVE",
"285 -217 CURVE SMOOTH",
"285 -172 OFFCURVE",
"277 -123 OFFCURVE",
"262 -83 CURVE",
"242 -83 LINE",
"257 -127 OFFCURVE",
"265 -170 OFFCURVE",
"265 -221 CURVE SMOOTH",
"265 -289 OFFCURVE",
"246 -330 OFFCURVE",
"180 -330 CURVE SMOOTH",
"135 -330 OFFCURVE",
"118 -316 OFFCURVE",
"118 -294 CURVE SMOOTH",
"118 -244 OFFCURVE",
"193 -250 OFFCURVE",
"193 -171 CURVE SMOOTH",
"193 -113 OFFCURVE",
"143 -75 OFFCURVE",
"65 -75 CURVE SMOOTH",
"6 -75 OFFCURVE",
"-51 -97 OFFCURVE",
"-81 -160 CURVE",
"-109 -101 OFFCURVE",
"-159 -75 OFFCURVE",
"-226 -75 CURVE SMOOTH",
"-298 -75 OFFCURVE",
"-354 -105 OFFCURVE",
"-354 -184 CURVE SMOOTH",
"-354 -203 OFFCURVE",
"-349 -226 OFFCURVE"
);
},
{
closed = 1;
nodes = (
"367 -201 OFFCURVE",
"330 -227 OFFCURVE",
"330 -277 CURVE SMOOTH",
"330 -324 OFFCURVE",
"367 -353 OFFCURVE",
"427 -353 CURVE SMOOTH",
"502 -353 OFFCURVE",
"546 -308 OFFCURVE",
"546 -230 CURVE SMOOTH",
"546 -137 OFFCURVE",
"479 -83 OFFCURVE",
"341 -83 CURVE SMOOTH",
"254 -83 LINE",
"259 -103 LINE",
"342 -103 LINE SMOOTH",
"460 -103 OFFCURVE",
"526 -147 OFFCURVE",
"526 -232 CURVE SMOOTH",
"526 -294 OFFCURVE",
"492 -330 OFFCURVE",
"427 -330 CURVE SMOOTH",
"375 -330 OFFCURVE",
"350 -308 OFFCURVE",
"350 -275 CURVE SMOOTH",
"350 -245 OFFCURVE",
"370 -224 OFFCURVE",
"402 -221 CURVE",
"403 -222 LINE",
"400 -226 OFFCURVE",
"399 -230 OFFCURVE",
"399 -234 CURVE SMOOTH",
"399 -247 OFFCURVE",
"409 -255 OFFCURVE",
"429 -255 CURVE SMOOTH",
"450 -255 OFFCURVE",
"462 -246 OFFCURVE",
"462 -231 CURVE SMOOTH",
"462 -212 OFFCURVE",
"448 -201 OFFCURVE",
"419 -201 CURVE SMOOTH"
);
}
);
};
guideLines = (
{
angle = 130.417;
position = "{131, -227}";
showMeasurement = 1;
},
{
angle = 90;
position = "{-81, -160}";
},
{
position = "{183, -330}";
},
{
position = "{348, -103}";
}
);
layerId = "034236B8-3FA8-43DA-9EDA-EFF269A687EC";
name = Light;
paths = (
{
closed = 1;
nodes = (
"-336 -256 CURVE",
"-316 -248 LINE",
"-327 -225 OFFCURVE",
"-334 -207 OFFCURVE",
"-334 -184 CURVE SMOOTH",
"-334 -129 OFFCURVE",
"-294 -98 OFFCURVE",
"-224 -98 CURVE SMOOTH",
"-159 -98 OFFCURVE",
"-119 -125 OFFCURVE",
"-92 -184 CURVE",
"-68 -184 LINE",
"-45 -127 OFFCURVE",
"-1 -98 OFFCURVE",
"63 -98 CURVE SMOOTH",
"128 -98 OFFCURVE",
"173 -128 OFFCURVE",
"173 -175 CURVE SMOOTH",
"173 -235 OFFCURVE",
"98 -232 OFFCURVE",
"98 -294 CURVE SMOOTH",
"98 -330 OFFCURVE",
"124 -353 OFFCURVE",
"178 -353 CURVE SMOOTH",
"256 -353 OFFCURVE",
"285 -304 OFFCURVE",
"285 -217 CURVE SMOOTH",
"285 -172 OFFCURVE",
"277 -123 OFFCURVE",
"262 -83 CURVE",
"242 -83 LINE",
"257 -127 OFFCURVE",
"265 -171 OFFCURVE",
"265 -219 CURVE SMOOTH",
"265 -292 OFFCURVE",
"246 -330 OFFCURVE",
"178 -330 CURVE SMOOTH",
"136 -330 OFFCURVE",
"118 -316 OFFCURVE",
"118 -293 CURVE SMOOTH",
"118 -246 OFFCURVE",
"193 -247 OFFCURVE",
"193 -173 CURVE SMOOTH",
"193 -112 OFFCURVE",
"143 -75 OFFCURVE",
"65 -75 CURVE SMOOTH",
"6 -75 OFFCURVE",
"-51 -97 OFFCURVE",
"-81 -160 CURVE",
"-109 -101 OFFCURVE",
"-159 -75 OFFCURVE",
"-226 -75 CURVE SMOOTH",
"-298 -75 OFFCURVE",
"-354 -106 OFFCURVE",
"-354 -181 CURVE SMOOTH",
"-354 -204 OFFCURVE",
"-349 -226 OFFCURVE"
);
},
{
closed = 1;
nodes = (
"369 -201 OFFCURVE",
"330 -227 OFFCURVE",
"330 -276 CURVE SMOOTH",
"330 -324 OFFCURVE",
"367 -353 OFFCURVE",
"427 -353 CURVE SMOOTH",
"502 -353 OFFCURVE",
"546 -308 OFFCURVE",
"546 -231 CURVE SMOOTH",
"546 -136 OFFCURVE",
"478 -83 OFFCURVE",
"341 -83 CURVE SMOOTH",
"254 -83 LINE",
"259 -103 LINE",
"342 -103 LINE SMOOTH",
"460 -103 OFFCURVE",
"526 -147 OFFCURVE",
"526 -232 CURVE SMOOTH",
"526 -294 OFFCURVE",
"492 -330 OFFCURVE",
"426 -330 CURVE SMOOTH",
"375 -330 OFFCURVE",
"350 -308 OFFCURVE",
"350 -275 CURVE SMOOTH",
"350 -245 OFFCURVE",
"370 -224 OFFCURVE",
"402 -221 CURVE",
"403 -222 LINE",
"400 -226 OFFCURVE",
"399 -230 OFFCURVE",
"399 -234 CURVE SMOOTH",
"399 -247 OFFCURVE",
"409 -255 OFFCURVE",
"429 -255 CURVE SMOOTH",
"449 -255 OFFCURVE",
"462 -247 OFFCURVE",
"462 -230 CURVE SMOOTH",
"462 -212 OFFCURVE",
"448 -201 OFFCURVE",
"417 -201 CURVE SMOOTH"
);
}
);
width = 100;
}
);
unicode = 0CE3;
},
{
glyphname = knmE;
lastChange = "2015-09-30 05:44:38 +0000";
layers = (
{
background = {
paths = (
{
closed = 1;
nodes = (
"-180 492 LINE",
"139 492 LINE SMOOTH",
"222 492 OFFCURVE",
"271 537 OFFCURVE",
"271 607 CURVE SMOOTH",
"271 666 OFFCURVE",
"232 717 OFFCURVE",
"158 717 CURVE SMOOTH",
"144 717 OFFCURVE",
"127 716 OFFCURVE",
"113 712 CURVE",
"113 661 LINE",
"126 663 OFFCURVE",
"138 664 OFFCURVE",
"148 664 CURVE SMOOTH",
"190 664 OFFCURVE",
"210 643 OFFCURVE",
"210 607 CURVE SMOOTH",
"210 570 OFFCURVE",
"188 546 OFFCURVE",
"130 546 CURVE SMOOTH",
"-180 546 LINE"
);
}
);
};
components = (
{
name = _part.knmE;
piece = {
Width = 350;
};
}
);
layerId = "034236B8-3FA8-43DA-9EDA-EFF269A687EC";
name = Light;
width = 0;
}
);
unicode = 0CC6;
},
{
glyphname = knmAI;
lastChange = "2015-09-30 05:23:23 +0000";
layers = (
{
background = {
paths = (
{
closed = 1;
nodes = (
"214 381 LINE",
"214 405 LINE",
"-502 405 LINE",
"-502 381 LINE"
);
},
{
closed = 1;
nodes = (
"69 381 LINE",
"194 381 OFFCURVE",
"398 324 OFFCURVE",
"398 154 CURVE SMOOTH",
"398 50 OFFCURVE",
"313 4 OFFCURVE",
"210 4 CURVE SMOOTH",
"87 4 OFFCURVE",
"20 53 OFFCURVE",
"-23 140 CURVE",
"-47 140 LINE",
"-90 53 OFFCURVE",
"-157 4 OFFCURVE",
"-280 4 CURVE SMOOTH",
"-383 4 OFFCURVE",
"-468 50 OFFCURVE",
"-468 154 CURVE SMOOTH",
"-468 324 OFFCURVE",
"-264 381 OFFCURVE",
"-139 381 CURVE",
"-139 400 LINE",
"-274 397 OFFCURVE",
"-490 344 OFFCURVE",
"-490 149 CURVE SMOOTH",
"-490 26 OFFCURVE",
"-393 -21 OFFCURVE",
"-284 -21 CURVE SMOOTH",
"-167 -21 OFFCURVE",
"-83 19 OFFCURVE",
"-35 113 CURVE",
"13 19 OFFCURVE",
"97 -21 OFFCURVE",
"214 -21 CURVE SMOOTH",
"323 -21 OFFCURVE",
"420 26 OFFCURVE",
"420 149 CURVE SMOOTH",
"420 344 OFFCURVE",
"204 397 OFFCURVE",
"69 400 CURVE"
);
}
);
};
components = (
{
name = knmE;
}
);
layerId = "034236B8-3FA8-43DA-9EDA-EFF269A687EC";
name = Light;
paths = (
{
closed = 1;
nodes = (
"40 -43 LINE",
"123 -61 OFFCURVE",
"157 -113 OFFCURVE",
"157 -187 CURVE SMOOTH",
"157 -274 OFFCURVE",
"110 -329 OFFCURVE",
"1 -329 CURVE SMOOTH",
"-86 -329 OFFCURVE",
"-141 -294 OFFCURVE",
"-141 -232 CURVE SMOOTH",
"-141 -178 OFFCURVE",
"-99 -144 OFFCURVE",
"-32 -144 CURVE SMOOTH",
"7 -144 OFFCURVE",
"30 -155 OFFCURVE",
"30 -184 CURVE SMOOTH",
"30 -212 OFFCURVE",
"8 -225 OFFCURVE",
"-35 -225 CURVE SMOOTH",
"-76 -225 OFFCURVE",
"-112 -213 OFFCURVE",
"-138 -192 CURVE",
"-149 -211 LINE",
"-113 -239 OFFCURVE",
"-71 -249 OFFCURVE",
"-36 -249 CURVE SMOOTH",
"15 -249 OFFCURVE",
"51 -228 OFFCURVE",
"51 -183 CURVE SMOOTH",
"51 -139 OFFCURVE",
"15 -120 OFFCURVE",
"-33 -120 CURVE SMOOTH",
"-108 -120 OFFCURVE",
"-161 -166 OFFCURVE",
"-161 -233 CURVE SMOOTH",
"-161 -310 OFFCURVE",
"-92 -353 OFFCURVE",
"1 -353 CURVE SMOOTH",
"119 -353 OFFCURVE",
"179 -284 OFFCURVE",
"179 -185 CURVE SMOOTH",
"179 -96 OFFCURVE",
"129 -42 OFFCURVE",
"56 -27 CURVE",
"56 -40 LINE",
"128 -34 OFFCURVE",
"168 -8 OFFCURVE",
"168 47 CURVE SMOOTH",
"168 78 OFFCURVE",
"156 106 OFFCURVE",
"140 130 CURVE",
"120 120 LINE",
"137 97 OFFCURVE",
"146 74 OFFCURVE",
"146 51 CURVE SMOOTH",
"146 10 OFFCURVE",
"118 -21 OFFCURVE",
"57 -21 CURVE SMOOTH",
"40 -21 LINE"
);
}
);
width = 209;
}
);
unicode = 0CC8;
},
{
glyphname = knmO;
lastChange = "2015-09-30 05:44:26 +0000";
layers = (
{
background = {
components = (
{
name = knmUU;
transform = "{1, 0, 0, 1, 143, 0}";
}
);
paths = (
{
closed = 1;
nodes = (
"-103 492 LINE",
"160 492 LINE SMOOTH",
"243 492 OFFCURVE",
"292 537 OFFCURVE",
"292 607 CURVE SMOOTH",
"292 666 OFFCURVE",
"253 717 OFFCURVE",
"178 717 CURVE SMOOTH",
"165 717 OFFCURVE",
"148 716 OFFCURVE",
"133 712 CURVE",
"133 661 LINE",
"147 663 OFFCURVE",
"159 664 OFFCURVE",
"169 664 CURVE SMOOTH",
"211 664 OFFCURVE",
"230 643 OFFCURVE",
"230 607 CURVE SMOOTH",
"230 570 OFFCURVE",
"208 546 OFFCURVE",
"150 546 CURVE SMOOTH",
"-103 546 LINE"
);
}
);
};
components = (
{
disableAlignment = 1;
name = knmUU;
transform = "{1, 0, 0, 1, -57, 0}";
},
{
name = _part.knmE;
transform = "{1, 0, 0, 1, -1, 0}";
}
);
layerId = "034236B8-3FA8-43DA-9EDA-EFF269A687EC";
name = Light;
width = 653;
}
);
rightMetricsKey = _part.knmUU;
unicode = 0CCA;
},
{
glyphname = knmAU;
lastChange = "2015-09-30 05:45:35 +0000";
layers = (
{
background = {
paths = (
{
closed = 1;
nodes = (
"42 353 LINE SMOOTH",
"110 353 OFFCURVE",
"147 381 OFFCURVE",
"147 435 CURVE SMOOTH",
"147 447 OFFCURVE",
"145 460 OFFCURVE",
"140 472 CURVE",
"114 472 LINE",
"119 462 OFFCURVE",
"123 449 OFFCURVE",
"123 434 CURVE SMOOTH",
"123 396 OFFCURVE",
"98 377 OFFCURVE",
"44 377 CURVE SMOOTH",
"-214 377 LINE",
"-214 353 LINE"
);
},
{
closed = 1;
nodes = (
"-111 486 LINE",
"-111 462 LINE",
"245 462 LINE SMOOTH",
"380 462 OFFCURVE",
"480 403 OFFCURVE",
"480 295 CURVE SMOOTH",
"480 208 OFFCURVE",
"422 158 OFFCURVE",
"322 158 CURVE SMOOTH",
"240 158 OFFCURVE",
"206 191 OFFCURVE",
"206 237 CURVE SMOOTH",
"206 275 OFFCURVE",
"229 303 OFFCURVE",
"287 309 CURVE",
"288 308 LINE",
"285 302 OFFCURVE",
"284 296 OFFCURVE",
"284 291 CURVE SMOOTH",
"284 268 OFFCURVE",
"302 256 OFFCURVE",
"330 256 CURVE SMOOTH",
"361 256 OFFCURVE",
"378 270 OFFCURVE",
"378 294 CURVE SMOOTH",
"378 319 OFFCURVE",
"358 331 OFFCURVE",
"312 331 CURVE SMOOTH",
"234 331 OFFCURVE",
"184 296 OFFCURVE",
"184 234 CURVE SMOOTH",
"184 173 OFFCURVE",
"233 133 OFFCURVE",
"323 133 CURVE SMOOTH",
"434 133 OFFCURVE",
"504 194 OFFCURVE",
"504 298 CURVE SMOOTH",
"504 414 OFFCURVE",
"417 486 OFFCURVE",
"243 486 CURVE SMOOTH"
);
}
);
};
components = (
{
name = _part.knmAU;
piece = {
Weight = 214;
};
}
);
guideLines = (
{
position = "{346, 184}";
}
);
layerId = "034236B8-3FA8-43DA-9EDA-EFF269A687EC";
name = Light;
width = 568;
}
);
rightMetricsKey = _part.knmAU;
unicode = 0CCC;
},
{
glyphname = knLengthmark;
lastChange = "2015-09-28 22:19:15 +0000";
layers = (
{
background = {
paths = (
{
closed = 1;
nodes = (
"77 346 OFFCURVE",
"155 393 OFFCURVE",
"243 393 CURVE SMOOTH",
"310 393 OFFCURVE",
"365 367 OFFCURVE",
"365 313 CURVE SMOOTH",
"365 259 OFFCURVE",
"307 233 OFFCURVE",
"229 233 CURVE SMOOTH",
"173 233 OFFCURVE",
"109 246 OFFCURVE",
"71 265 CURVE",
"62 248 LINE",
"107 222 OFFCURVE",
"176 209 OFFCURVE",
"229 209 CURVE SMOOTH",
"318 209 OFFCURVE",
"387 246 OFFCURVE",
"387 313 CURVE SMOOTH",
"387 380 OFFCURVE",
"320 417 OFFCURVE",
"241 417 CURVE SMOOTH",
"147 417 OFFCURVE",
"55 362 OFFCURVE",
"55 234 CURVE SMOOTH",
"55 132 OFFCURVE",
"109 50 OFFCURVE",
"181 -9 CURVE",
"199 8 LINE",
"132 60 OFFCURVE",
"77 135 OFFCURVE",
"77 233 CURVE SMOOTH"
);
}
);
};
guideLines = (
{
angle = 90;
position = "{365, 313}";
},
{
angle = 90;
position = "{293, 179}";
},
{
angle = 79.729;
position = "{293, -5}";
showMeasurement = 1;
},
{
angle = 90;
position = "{221, 313}";
}
);
layerId = "034236B8-3FA8-43DA-9EDA-EFF269A687EC";
name = Light;
paths = (
{
closed = 1;
nodes = (
"77 346 OFFCURVE",
"155 393 OFFCURVE",
"243 393 CURVE SMOOTH",
"310 393 OFFCURVE",
"365 367 OFFCURVE",
"365 313 CURVE SMOOTH",
"365 259 OFFCURVE",
"307 233 OFFCURVE",
"229 233 CURVE SMOOTH",
"173 233 OFFCURVE",
"109 246 OFFCURVE",
"71 265 CURVE",
"62 248 LINE",
"107 222 OFFCURVE",
"176 209 OFFCURVE",
"229 209 CURVE SMOOTH",
"318 209 OFFCURVE",
"387 246 OFFCURVE",
"387 313 CURVE SMOOTH",
"387 380 OFFCURVE",
"320 417 OFFCURVE",
"241 417 CURVE SMOOTH",
"147 417 OFFCURVE",
"55 362 OFFCURVE",
"55 234 CURVE SMOOTH",
"55 101 OFFCURVE",
"154 22 OFFCURVE",
"293 -5 CURVE",
"300 19 LINE",
"163 45 OFFCURVE",
"77 117 OFFCURVE",
"77 233 CURVE SMOOTH"
);
}
);
width = 422;
}
);
unicode = 0CD5;
},
{
glyphname = knAIlengthmark;
lastChange = "2015-09-28 22:19:15 +0000";
layers = (
{
background = {
paths = (
{
closed = 1;
nodes = (
"-8 -43 LINE",
"75 -61 OFFCURVE",
"109 -113 OFFCURVE",
"109 -186 CURVE SMOOTH",
"109 -274 OFFCURVE",
"62 -329 OFFCURVE",
"-47 -329 CURVE SMOOTH",
"-134 -329 OFFCURVE",
"-189 -294 OFFCURVE",
"-189 -232 CURVE SMOOTH",
"-189 -178 OFFCURVE",
"-147 -144 OFFCURVE",
"-80 -144 CURVE SMOOTH",
"-41 -144 OFFCURVE",
"-18 -155 OFFCURVE",
"-18 -184 CURVE SMOOTH",
"-18 -212 OFFCURVE",
"-40 -225 OFFCURVE",
"-83 -225 CURVE SMOOTH",
"-124 -225 OFFCURVE",
"-160 -213 OFFCURVE",
"-186 -192 CURVE",
"-197 -211 LINE",
"-161 -239 OFFCURVE",
"-119 -249 OFFCURVE",
"-84 -249 CURVE SMOOTH",
"-33 -249 OFFCURVE",
"3 -228 OFFCURVE",
"3 -183 CURVE SMOOTH",
"3 -139 OFFCURVE",
"-33 -120 OFFCURVE",
"-81 -120 CURVE SMOOTH",
"-156 -120 OFFCURVE",
"-209 -166 OFFCURVE",
"-209 -233 CURVE SMOOTH",
"-209 -310 OFFCURVE",
"-140 -353 OFFCURVE",
"-47 -353 CURVE SMOOTH",
"71 -353 OFFCURVE",
"131 -284 OFFCURVE",
"131 -185 CURVE SMOOTH",
"131 -96 OFFCURVE",
"81 -42 OFFCURVE",
"8 -27 CURVE",
"8 -40 LINE",
"80 -34 OFFCURVE",
"120 -8 OFFCURVE",
"120 47 CURVE SMOOTH",
"120 78 OFFCURVE",
"108 106 OFFCURVE",
"92 130 CURVE",
"72 120 LINE",
"89 97 OFFCURVE",
"98 74 OFFCURVE",
"98 51 CURVE SMOOTH",
"98 10 OFFCURVE",
"70 -21 OFFCURVE",
"9 -21 CURVE SMOOTH",
"-8 -21 LINE"
);
}
);
};
guideLines = (
{
angle = 90;
position = "{3, -183}";
}
);
layerId = "034236B8-3FA8-43DA-9EDA-EFF269A687EC";
name = Light;
paths = (
{
closed = 1;
nodes = (
"1 -43 LINE",
"84 -61 OFFCURVE",
"118 -113 OFFCURVE",
"118 -187 CURVE SMOOTH",
"118 -274 OFFCURVE",
"71 -329 OFFCURVE",
"-38 -329 CURVE SMOOTH",
"-125 -329 OFFCURVE",
"-180 -294 OFFCURVE",
"-180 -232 CURVE SMOOTH",
"-180 -178 OFFCURVE",
"-138 -144 OFFCURVE",
"-71 -144 CURVE SMOOTH",
"-32 -144 OFFCURVE",
"-9 -155 OFFCURVE",
"-9 -184 CURVE SMOOTH",
"-9 -212 OFFCURVE",
"-31 -225 OFFCURVE",
"-74 -225 CURVE SMOOTH",
"-115 -225 OFFCURVE",
"-151 -213 OFFCURVE",
"-177 -192 CURVE",
"-188 -211 LINE",
"-152 -239 OFFCURVE",
"-110 -249 OFFCURVE",
"-75 -249 CURVE SMOOTH",
"-24 -249 OFFCURVE",
"12 -228 OFFCURVE",
"12 -183 CURVE SMOOTH",
"12 -139 OFFCURVE",
"-24 -120 OFFCURVE",
"-72 -120 CURVE SMOOTH",
"-147 -120 OFFCURVE",
"-200 -166 OFFCURVE",
"-200 -233 CURVE SMOOTH",
"-200 -310 OFFCURVE",
"-131 -353 OFFCURVE",
"-38 -353 CURVE SMOOTH",
"80 -353 OFFCURVE",
"140 -284 OFFCURVE",
"140 -185 CURVE SMOOTH",
"140 -96 OFFCURVE",
"90 -42 OFFCURVE",
"17 -27 CURVE",
"17 -40 LINE",
"89 -34 OFFCURVE",
"129 -8 OFFCURVE",
"129 47 CURVE SMOOTH",
"129 78 OFFCURVE",
"117 106 OFFCURVE",
"101 130 CURVE",
"81 120 LINE",
"98 97 OFFCURVE",
"107 74 OFFCURVE",
"107 51 CURVE SMOOTH",
"107 10 OFFCURVE",
"79 -21 OFFCURVE",
"18 -21 CURVE SMOOTH",
"1 -21 LINE"
);
}
);
width = 170;
},
{
associatedMasterId = "034236B8-3FA8-43DA-9EDA-EFF269A687EC";
background = {
paths = (
{
closed = 1;
nodes = (
"0 83 LINE",
"52 111 OFFCURVE",
"105 125 OFFCURVE",
"149 125 CURVE SMOOTH",
"211 125 OFFCURVE",
"236 98 OFFCURVE",
"236 52 CURVE SMOOTH",
"236 -6 OFFCURVE",
"200 -29 OFFCURVE",
"94 -29 CURVE SMOOTH",
"0 -29 LINE",
"0 -53 LINE",
"88 -53 LINE SMOOTH",
"205 -53 OFFCURVE",
"261 -102 OFFCURVE",
"261 -194 CURVE SMOOTH",
"261 -301 OFFCURVE",
"186 -337 OFFCURVE",
"91 -337 CURVE SMOOTH",
"-7 -337 OFFCURVE",
"-69 -302 OFFCURVE",
"-69 -230 CURVE SMOOTH",
"-69 -177 OFFCURVE",
"-38 -145 OFFCURVE",
"29 -145 CURVE SMOOTH",
"78 -145 OFFCURVE",
"99 -162 OFFCURVE",
"99 -189 CURVE SMOOTH",
"99 -218 OFFCURVE",
"75 -234 OFFCURVE",
"15 -234 CURVE SMOOTH",
"-20 -234 OFFCURVE",
"-44 -229 OFFCURVE",
"-79 -216 CURVE",
"-83 -234 LINE",
"-58 -247 OFFCURVE",
"-20 -258 OFFCURVE",
"24 -258 CURVE SMOOTH",
"88 -258 OFFCURVE",
"121 -231 OFFCURVE",
"121 -188 CURVE SMOOTH",
"121 -149 OFFCURVE",
"91 -121 OFFCURVE",
"32 -121 CURVE SMOOTH",
"-46 -121 OFFCURVE",
"-89 -166 OFFCURVE",
"-89 -232 CURVE SMOOTH",
"-89 -314 OFFCURVE",
"-16 -361 OFFCURVE",
"93 -361 CURVE SMOOTH",
"205 -361 OFFCURVE",
"283 -306 OFFCURVE",
"283 -195 CURVE SMOOTH",
"283 -101 OFFCURVE",
"222 -39 OFFCURVE",
"121 -35 CURVE",
"121 -47 LINE",
"212 -46 OFFCURVE",
"258 -13 OFFCURVE",
"258 57 CURVE SMOOTH",
"258 118 OFFCURVE",
"216 149 OFFCURVE",
"153 149 CURVE SMOOTH",
"102 149 OFFCURVE",
"44 134 OFFCURVE",
"-8 107 CURVE"
);
}
);
};
layerId = "78D8EC50-A9BF-462F-B38D-8F46C51F696E";
name = "Light Sep 28 15, 10:16";
paths = (
{
closed = 1;
nodes = (
"186 -353 OFFCURVE",
"250 -287 OFFCURVE",
"250 -162 CURVE SMOOTH",
"250 -106 OFFCURVE",
"237 -40 OFFCURVE",
"212 24 CURVE",
"188 26 LINE",
"188 25 LINE",
"212 -35 OFFCURVE",
"229 -98 OFFCURVE",
"229 -163 CURVE SMOOTH",
"229 -275 OFFCURVE",
"177 -330 OFFCURVE",
"68 -330 CURVE SMOOTH",
"-21 -330 OFFCURVE",
"-70 -293 OFFCURVE",
"-70 -234 CURVE SMOOTH",
"-70 -179 OFFCURVE",
"-28 -145 OFFCURVE",
"40 -145 CURVE SMOOTH",
"80 -145 OFFCURVE",
"102 -157 OFFCURVE",
"102 -186 CURVE SMOOTH",
"102 -214 OFFCURVE",
"80 -227 OFFCURVE",
"37 -227 CURVE SMOOTH",
"-4 -227 OFFCURVE",
"-40 -215 OFFCURVE",
"-66 -194 CURVE",
"-77 -212 LINE",
"-41 -240 OFFCURVE",
"1 -250 OFFCURVE",
"36 -250 CURVE SMOOTH",
"87 -250 OFFCURVE",
"123 -229 OFFCURVE",
"123 -185 CURVE SMOOTH",
"123 -141 OFFCURVE",
"87 -122 OFFCURVE",
"38 -122 CURVE SMOOTH",
"-36 -122 OFFCURVE",
"-89 -166 OFFCURVE",
"-89 -235 CURVE SMOOTH",
"-89 -309 OFFCURVE",
"-28 -353 OFFCURVE",
"68 -353 CURVE SMOOTH"
);
}
);
width = 500;
}
);
unicode = 0CD6;
},
{
glyphname = knGHA;
lastChange = "2015-09-28 22:19:15 +0000";
layers = (
{
background = {
paths = (
{
closed = 1;
nodes = (
"361 -21 OFFCURVE",
"435 23 OFFCURVE",
"478 113 CURVE",
"521 22 OFFCURVE",
"599 -21 OFFCURVE",
"709 -21 CURVE SMOOTH",
"831 -21 OFFCURVE",
"911 31 OFFCURVE",
"911 151 CURVE SMOOTH",
"911 170 OFFCURVE",
"909 191 OFFCURVE",
"903 211 CURVE",
"901 211 LINE",
"947 155 OFFCURVE",
"998 132 OFFCURVE",
"1056 132 CURVE SMOOTH",
"1132 132 OFFCURVE",
"1177 171 OFFCURVE",
"1177 244 CURVE SMOOTH",
"1177 316 OFFCURVE",
"1133 371 OFFCURVE",
"1049 403 CURVE",
"1040 384 LINE",
"1115 357 OFFCURVE",
"1155 307 OFFCURVE",
"1155 245 CURVE SMOOTH",
"1155 187 OFFCURVE",
"1118 156 OFFCURVE",
"1056 156 CURVE SMOOTH",
"979 156 OFFCURVE",
"917 207 OFFCURVE",
"864 291 CURVE",
"846 279 LINE",
"879 239 OFFCURVE",
"889 193 OFFCURVE",
"889 153 CURVE SMOOTH",
"889 48 OFFCURVE",
"821 4 OFFCURVE",
"710 4 CURVE SMOOTH",
"597 4 OFFCURVE",
"530 50 OFFCURVE",
"490 140 CURVE",
"466 140 LINE",
"428 52 OFFCURVE",
"362 4 OFFCURVE",
"249 4 CURVE SMOOTH",
"157 4 OFFCURVE",
"91 36 OFFCURVE",
"91 108 CURVE SMOOTH",
"91 175 OFFCURVE",
"149 206 OFFCURVE",
"234 206 CURVE SMOOTH",
"268 206 OFFCURVE",
"300 201 OFFCURVE",
"327 191 CURVE",
"332 212 LINE",
"313 221 OFFCURVE",
"274 228 OFFCURVE",
"234 228 CURVE SMOOTH",
"138 228 OFFCURVE",
"69 189 OFFCURVE",
"69 105 CURVE SMOOTH",
"69 19 OFFCURVE",
"142 -21 OFFCURVE",
"249 -21 CURVE SMOOTH"
);
},
{
closed = 1;
nodes = (
"678 381 LINE",
"678 405 LINE",
"57 405 LINE",
"57 381 LINE"
);
}
);
};
components = (
{
name = knGHA.base;
},
{
disableAlignment = 1;
name = _part.headline;
transform = "{1, 0, 0, 1, 491, 0}";
piece = {
Width = 280.312;
};
}
);
guideLines = (
{
angle = 90;
position = "{69, 105}";
},
{
angle = 90;
position = "{1177, 105}";
}
);
layerId = "034236B8-3FA8-43DA-9EDA-EFF269A687EC";
name = Light;
width = 1232;
}
);
unicode = 0C98;
},
{
glyphname = knNGA;
lastChange = "2015-09-28 22:19:15 +0000";
layers = (
{
background = {
guideLines = (
{
position = "{408, 318}";
}
);
paths = (
{
closed = 1;
nodes = (
"363 312 LINE",
"456 363 OFFCURVE",
"571 417 OFFCURVE",
"704 417 CURVE SMOOTH",
"801 417 OFFCURVE",
"846 388 OFFCURVE",
"846 327 CURVE SMOOTH",
"846 299 OFFCURVE",
"837 281 OFFCURVE",
"826 265 CURVE",
"845 257 LINE",
"858 275 OFFCURVE",
"868 296 OFFCURVE",
"868 328 CURVE SMOOTH",
"868 405 OFFCURVE",
"811 441 OFFCURVE",
"704 441 CURVE SMOOTH",
"577 441 OFFCURVE",
"463 390 OFFCURVE",
"363 332 CURVE"
);
},
{
closed = 1;
nodes = (
"477 239 OFFCURVE",
"499 224 OFFCURVE",
"526 224 CURVE SMOOTH",
"553 224 OFFCURVE",
"575 239 OFFCURVE",
"575 261 CURVE SMOOTH",
"575 283 OFFCURVE",
"553 298 OFFCURVE",
"526 298 CURVE SMOOTH",
"499 298 OFFCURVE",
"477 283 OFFCURVE",
"477 261 CURVE SMOOTH"
);
}
);
};
components = (
{
name = knO;
},
{
name = _part.dot;
transform = "{1, 0, 0, 1, 406, 0}";
}
);
layerId = "034236B8-3FA8-43DA-9EDA-EFF269A687EC";
name = Light;
paths = (
{
closed = 1;
nodes = (
"370 307 LINE",
"471 363 OFFCURVE",
"586 417 OFFCURVE",
"719 417 CURVE SMOOTH",
"816 417 OFFCURVE",
"859 388 OFFCURVE",
"859 327 CURVE SMOOTH",
"859 299 OFFCURVE",
"850 281 OFFCURVE",
"839 265 CURVE",
"858 257 LINE",
"871 275 OFFCURVE",
"881 296 OFFCURVE",
"881 328 CURVE SMOOTH",
"881 405 OFFCURVE",
"826 441 OFFCURVE",
"719 441 CURVE SMOOTH",
"592 441 OFFCURVE",
"478 390 OFFCURVE",
"370 326 CURVE"
);
}
);
width = 1096;
}
);
leftMetricsKey = knBA.base;
unicode = 0C99;
},
{
glyphname = knJA;
lastChange = "2015-09-28 22:19:15 +0000";
layers = (
{
background = {
paths = (
{
closed = 1;
nodes = (
"588 255 OFFCURVE",
"466 317 OFFCURVE",
"379 385 CURVE",
"365 372 LINE",
"465 288 OFFCURVE",
"597 231 OFFCURVE",
"758 231 CURVE SMOOTH",
"885 231 OFFCURVE",
"951 266 OFFCURVE",
"951 346 CURVE SMOOTH",
"951 371 OFFCURVE",
"944 396 OFFCURVE",
"929 417 CURVE",
"912 403 LINE",
"922 389 OFFCURVE",
"929 368 OFFCURVE",
"929 347 CURVE SMOOTH",
"929 283 OFFCURVE",
"868 255 OFFCURVE",
"755 255 CURVE SMOOTH"
);
}
);
};
components = (
{
name = knJA.base;
}
);
layerId = "034236B8-3FA8-43DA-9EDA-EFF269A687EC";
name = Light;
width = 1067;
}
);
unicode = 0C9C;
},
{
glyphname = knJHA;
lastChange = "2015-09-28 22:19:15 +0000";
layers = (
{
background = {
paths = (
{
closed = 1;
nodes = (
"707 191 LINE",
"754 53 OFFCURVE",
"869 -21 OFFCURVE",
"1039 -21 CURVE SMOOTH",
"1190 -21 OFFCURVE",
"1285 61 OFFCURVE",
"1285 190 CURVE SMOOTH",
"1285 296 OFFCURVE",
"1229 373 OFFCURVE",
"1107 403 CURVE",
"1101 384 LINE",
"1195 360 OFFCURVE",
"1263 303 OFFCURVE",
"1263 193 CURVE SMOOTH",
"1263 77 OFFCURVE",
"1181 4 OFFCURVE",
"1040 4 CURVE SMOOTH",
"876 4 OFFCURVE",
"773 73 OFFCURVE",
"727 194 CURVE"
);
}
);
};
components = (
{
name = knJHA.base;
piece = {
Group = 1;
"Terminal Height" = 0.309187;
Width = -0.104903;
};
},
{
disableAlignment = 1;
name = _part.headline;
transform = "{1, 0, 0, 1, 308, 0}";
}
);
guideLines = (
{
angle = 90;
position = "{728, 200}";
}
);
layerId = "034236B8-3FA8-43DA-9EDA-EFF269A687EC";
name = Light;
width = 1656;
}
);
leftMetricsKey = knRA.base;
rightMetricsKey = _part.knmU;
unicode = 0C9D;
},
{
glyphname = knNYA;
lastChange = "2015-09-28 22:19:15 +0000";
layers = (
{
anchors = (
{
name = headline;
position = "{1349, 381}";
}
);
background = {
paths = (
{
closed = 1;
nodes = (
"953 256 LINE",
"988 343 OFFCURVE",
"1044 392 OFFCURVE",
"1144 392 CURVE SMOOTH",
"1232 392 OFFCURVE",
"1297 346 OFFCURVE",
"1297 242 CURVE SMOOTH",
"1297 212 OFFCURVE",
"1290 182 OFFCURVE",
"1278 151 CURVE",
"1299 144 LINE",
"1312 175 OFFCURVE",
"1319 209 OFFCURVE",
"1319 246 CURVE SMOOTH",
"1319 370 OFFCURVE",
"1242 417 OFFCURVE",
"1147 417 CURVE SMOOTH",
"1048 417 OFFCURVE",
"976 373 OFFCURVE",
"939 269 CURVE"
);
}
);
};
components = (
{
name = knI;
}
);
layerId = "034236B8-3FA8-43DA-9EDA-EFF269A687EC";
name = Light;
paths = (
{
closed = 1;
nodes = (
"953 256 LINE",
"991 341 OFFCURVE",
"1047 392 OFFCURVE",
"1143 392 CURVE SMOOTH",
"1236 392 OFFCURVE",
"1297 344 OFFCURVE",
"1297 245 CURVE SMOOTH",
"1297 211 OFFCURVE",
"1290 182 OFFCURVE",
"1278 151 CURVE",
"1299 144 LINE",
"1312 175 OFFCURVE",
"1319 209 OFFCURVE",
"1319 246 CURVE SMOOTH",
"1319 368 OFFCURVE",
"1241 417 OFFCURVE",
"1145 417 CURVE SMOOTH",
"1053 417 OFFCURVE",
"980 373 OFFCURVE",
"939 269 CURVE"
);
}
);
width = 1389;
}
);
unicode = 0C9E;
},
{
glyphname = knTTA;
lastChange = "2015-09-28 22:19:15 +0000";
layers = (
{
anchors = (
{
name = knmU;
position = "{1048, -21}";
}
);
background = {
guideLines = (
{
angle = 90;
position = "{308, 417}";
}
);
paths = (
{
closed = 0;
nodes = (
"844 382 LINE",
"924 385 OFFCURVE",
"970 414 OFFCURVE",
"970 468 CURVE SMOOTH",
"970 524 OFFCURVE",
"919 555 OFFCURVE",
"817 555 CURVE SMOOTH",
"781 555 OFFCURVE",
"748 551 OFFCURVE",
"722 545 CURVE",
"725 521 LINE",
"749 527 OFFCURVE",
"783 531 OFFCURVE",
"822 531 CURVE SMOOTH",
"895 531 OFFCURVE",
"948 516 OFFCURVE",
"948 468 CURVE SMOOTH",
"948 410 OFFCURVE",
"871 398 OFFCURVE",
"833 397 CURVE"
);
}
);
};
layerId = "034236B8-3FA8-43DA-9EDA-EFF269A687EC";
name = Light;
paths = (
{
closed = 1;
nodes = (
"319 396 LINE",
"281 397 OFFCURVE",
"204 410 OFFCURVE",
"204 468 CURVE SMOOTH",
"204 516 OFFCURVE",
"257 531 OFFCURVE",
"330 531 CURVE SMOOTH",
"369 531 OFFCURVE",
"403 527 OFFCURVE",
"427 521 CURVE",
"430 545 LINE",
"404 551 OFFCURVE",
"371 555 OFFCURVE",
"335 555 CURVE SMOOTH",
"233 555 OFFCURVE",
"182 524 OFFCURVE",
"182 468 CURVE SMOOTH",
"182 412 OFFCURVE",
"232 382 OFFCURVE",
"319 381 CURVE"
);
},
{
closed = 1;
nodes = (
"924 385 OFFCURVE",
"970 414 OFFCURVE",
"970 468 CURVE SMOOTH",
"970 524 OFFCURVE",
"919 555 OFFCURVE",
"817 555 CURVE SMOOTH",
"781 555 OFFCURVE",
"748 551 OFFCURVE",
"722 545 CURVE",
"725 521 LINE",
"749 527 OFFCURVE",
"783 531 OFFCURVE",
"822 531 CURVE SMOOTH",
"895 531 OFFCURVE",
"948 516 OFFCURVE",
"948 468 CURVE SMOOTH",
"948 410 OFFCURVE",
"871 397 OFFCURVE",
"833 397 CURVE SMOOTH",
"810 397 LINE",
"807 373 LINE",
"817 373 LINE SMOOTH",
"946 370 OFFCURVE",
"1048 305 OFFCURVE",
"1048 182 CURVE SMOOTH",
"1048 77 OFFCURVE",
"974 4 OFFCURVE",
"820 4 CURVE SMOOTH",
"700 4 OFFCURVE",
"626 48 OFFCURVE",
"588 140 CURVE",
"564 140 LINE",
"535 67 OFFCURVE",
"472 4 OFFCURVE",
"337 4 CURVE SMOOTH",
"188 4 OFFCURVE",
"102 81 OFFCURVE",
"102 190 CURVE SMOOTH",
"102 281 OFFCURVE",
"162 373 OFFCURVE",
"303 373 CURVE SMOOTH",
"373 373 OFFCURVE",
"418 350 OFFCURVE",
"418 302 CURVE SMOOTH",
"418 248 OFFCURVE",
"359 232 OFFCURVE",
"296 232 CURVE SMOOTH",
"236 232 OFFCURVE",
"164 246 OFFCURVE",
"116 282 CURVE",
"104 266 LINE",
"164 222 OFFCURVE",
"236 207 OFFCURVE",
"294 207 CURVE SMOOTH",
"380 207 OFFCURVE",
"442 241 OFFCURVE",
"442 303 CURVE SMOOTH",
"442 366 OFFCURVE",
"380 397 OFFCURVE",
"300 397 CURVE SMOOTH",
"166 397 OFFCURVE",
"80 309 OFFCURVE",
"80 189 CURVE SMOOTH",
"80 56 OFFCURVE",
"184 -21 OFFCURVE",
"335 -21 CURVE SMOOTH",
"441 -21 OFFCURVE",
"537 17 OFFCURVE",
"576 113 CURVE",
"619 10 OFFCURVE",
"721 -21 OFFCURVE",
"822 -21 CURVE SMOOTH",
"977 -21 OFFCURVE",
"1070 53 OFFCURVE",
"1070 178 CURVE SMOOTH",
"1070 302 OFFCURVE",
"978 378 OFFCURVE",
"842 389 CURVE",
"844 382 LINE"
);
}
);
width = 1150;
},
{
associatedMasterId = "034236B8-3FA8-43DA-9EDA-EFF269A687EC";
background = {
guideLines = (
{
angle = 90;
position = "{318, 417}";
}
);
paths = (
{
closed = 1;
nodes = (
"458 -21 OFFCURVE",
"554 17 OFFCURVE",
"593 113 CURVE",
"635 15 OFFCURVE",
"725 -21 OFFCURVE",
"844 -21 CURVE SMOOTH",
"993 -21 OFFCURVE",
"1089 38 OFFCURVE",
"1089 180 CURVE SMOOTH",
"1089 311 OFFCURVE",
"984 385 OFFCURVE",
"777 403 CURVE",
"773 381 LINE",
"936 370 OFFCURVE",
"1067 311 OFFCURVE",
"1067 181 CURVE SMOOTH",
"1067 58 OFFCURVE",
"985 4 OFFCURVE",
"844 4 CURVE SMOOTH",
"712 4 OFFCURVE",
"644 48 OFFCURVE",
"605 140 CURVE",
"581 140 LINE",
"551 64 OFFCURVE",
"485 4 OFFCURVE",
"355 4 CURVE SMOOTH",
"204 4 OFFCURVE",
"119 84 OFFCURVE",
"119 202 CURVE SMOOTH",
"119 301 OFFCURVE",
"179 395 OFFCURVE",
"319 395 CURVE SMOOTH",
"390 395 OFFCURVE",
"435 371 OFFCURVE",
"435 323 CURVE SMOOTH",
"435 268 OFFCURVE",
"377 252 OFFCURVE",
"313 252 CURVE SMOOTH",
"253 252 OFFCURVE",
"181 266 OFFCURVE",
"133 302 CURVE",
"121 286 LINE",
"181 242 OFFCURVE",
"253 227 OFFCURVE",
"311 227 CURVE SMOOTH",
"397 227 OFFCURVE",
"459 261 OFFCURVE",
"459 323 CURVE SMOOTH",
"459 386 OFFCURVE",
"397 417 OFFCURVE",
"318 417 CURVE SMOOTH",
"183 417 OFFCURVE",
"97 328 OFFCURVE",
"97 200 CURVE SMOOTH",
"97 59 OFFCURVE",
"201 -21 OFFCURVE",
"353 -21 CURVE SMOOTH"
);
},
{
closed = 1;
nodes = (
"336 416 LINE",
"309 417 OFFCURVE",
"253 429 OFFCURVE",
"253 479 CURVE SMOOTH",
"253 524 OFFCURVE",
"297 540 OFFCURVE",
"357 540 CURVE SMOOTH",
"372 540 OFFCURVE",
"403 539 OFFCURVE",
"432 531 CURVE",
"435 554 LINE",
"409 560 OFFCURVE",
"378 563 OFFCURVE",
"353 563 CURVE SMOOTH",
"276 563 OFFCURVE",
"231 533 OFFCURVE",
"231 480 CURVE SMOOTH",
"231 431 OFFCURVE",
"269 402 OFFCURVE",
"336 401 CURVE"
);
},
{
closed = 1;
nodes = (
"336 416 LINE",
"309 417 OFFCURVE",
"253 429 OFFCURVE",
"253 479 CURVE SMOOTH",
"253 524 OFFCURVE",
"297 540 OFFCURVE",
"357 540 CURVE SMOOTH",
"372 540 OFFCURVE",
"403 539 OFFCURVE",
"432 531 CURVE",
"435 554 LINE",
"409 560 OFFCURVE",
"378 563 OFFCURVE",
"353 563 CURVE SMOOTH",
"276 563 OFFCURVE",
"231 533 OFFCURVE",
"231 480 CURVE SMOOTH",
"231 431 OFFCURVE",
"269 402 OFFCURVE",
"336 401 CURVE"
);
}
);
};
components = (
{
name = _part.headline;
transform = "{1, 0, 0, 1, 668, 0}";
piece = {
Width = 339;
};
},
{
name = knCHA.base;
}
);
guideLines = (
{
angle = 90;
position = "{318, 457}";
}
);
layerId = "E462B619-0C8C-4894-980B-31F764BFE6C7";
name = "Light Sep 18 15, 15:53";
paths = (
{
closed = 1;
nodes = (
"318 417 LINE",
"291 418 OFFCURVE",
"235 430 OFFCURVE",
"235 480 CURVE SMOOTH",
"235 525 OFFCURVE",
"279 541 OFFCURVE",
"339 541 CURVE SMOOTH",
"354 541 OFFCURVE",
"385 540 OFFCURVE",
"414 532 CURVE",
"417 555 LINE",
"391 561 OFFCURVE",
"360 564 OFFCURVE",
"335 564 CURVE SMOOTH",
"258 564 OFFCURVE",
"213 534 OFFCURVE",
"213 481 CURVE SMOOTH",
"213 432 OFFCURVE",
"251 403 OFFCURVE",
"318 402 CURVE"
);
}
);
width = 1180;
},
{
associatedMasterId = "034236B8-3FA8-43DA-9EDA-EFF269A687EC";
background = {
guideLines = (
{
angle = 90;
position = "{308, 417}";
}
);
paths = (
{
closed = 1;
nodes = (
"842 377 LINE",
"981 365 OFFCURVE",
"1072 288 OFFCURVE",
"1072 172 CURVE SMOOTH",
"1072 35 OFFCURVE",
"976 -21 OFFCURVE",
"827 -21 CURVE SMOOTH",
"708 -21 OFFCURVE",
"618 15 OFFCURVE",
"576 113 CURVE",
"537 17 OFFCURVE",
"441 -21 OFFCURVE",
"336 -21 CURVE SMOOTH",
"184 -21 OFFCURVE",
"80 55 OFFCURVE",
"80 190 CURVE SMOOTH",
"80 308 OFFCURVE",
"166 397 OFFCURVE",
"301 397 CURVE SMOOTH",
"380 397 OFFCURVE",
"442 366 OFFCURVE",
"442 303 CURVE SMOOTH",
"442 241 OFFCURVE",
"380 207 OFFCURVE",
"294 207 CURVE SMOOTH",
"236 207 OFFCURVE",
"164 222 OFFCURVE",
"104 266 CURVE",
"116 282 LINE",
"164 246 OFFCURVE",
"236 232 OFFCURVE",
"296 232 CURVE SMOOTH",
"360 232 OFFCURVE",
"418 248 OFFCURVE",
"418 303 CURVE SMOOTH",
"418 351 OFFCURVE",
"373 375 OFFCURVE",
"302 375 CURVE SMOOTH",
"162 375 OFFCURVE",
"102 281 OFFCURVE",
"102 192 CURVE SMOOTH",
"102 80 OFFCURVE",
"187 4 OFFCURVE",
"338 4 CURVE SMOOTH",
"468 4 OFFCURVE",
"534 64 OFFCURVE",
"564 140 CURVE",
"588 140 LINE",
"627 48 OFFCURVE",
"695 4 OFFCURVE",
"827 4 CURVE SMOOTH",
"968 4 OFFCURVE",
"1050 55 OFFCURVE",
"1050 173 CURVE SMOOTH",
"1050 295 OFFCURVE",
"941 358 OFFCURVE",
"807 361 CURVE",
"810 385 LINE",
"841 385 LINE SMOOTH",
"874 385 OFFCURVE",
"944 398 OFFCURVE",
"944 458 CURVE SMOOTH",
"944 508 OFFCURVE",
"896 529 OFFCURVE",
"830 529 CURVE SMOOTH",
"813 529 OFFCURVE",
"778 528 OFFCURVE",
"745 519 CURVE",
"742 542 LINE",
"771 549 OFFCURVE",
"806 552 OFFCURVE",
"834 552 CURVE SMOOTH",
"917 552 OFFCURVE",
"966 518 OFFCURVE",
"966 459 CURVE SMOOTH",
"966 400 OFFCURVE",
"920 371 OFFCURVE",
"842 370 CURVE"
);
},
{
closed = 1;
nodes = (
"319 396 LINE",
"286 397 OFFCURVE",
"216 409 OFFCURVE",
"216 469 CURVE SMOOTH",
"216 521 OFFCURVE",
"264 540 OFFCURVE",
"330 540 CURVE SMOOTH",
"347 540 OFFCURVE",
"382 539 OFFCURVE",
"415 530 CURVE",
"418 553 LINE",
"395 559 OFFCURVE",
"368 563 OFFCURVE",
"328 563 CURVE SMOOTH",
"243 563 OFFCURVE",
"194 529 OFFCURVE",
"194 470 CURVE SMOOTH",
"194 411 OFFCURVE",
"240 382 OFFCURVE",
"319 381 CURVE"
);
}
);
};
guideLines = (
{
angle = 90;
position = "{308, 457}";
}
);
layerId = "8A36C71D-DE89-444D-88D6-54C491D711A0";
name = "Light Sep 18 15, 15:59";
paths = (
{
closed = 1;
nodes = (
"842 397 LINE",
"981 385 OFFCURVE",
"1072 308 OFFCURVE",
"1072 182 CURVE SMOOTH",
"1072 38 OFFCURVE",
"976 -21 OFFCURVE",
"827 -21 CURVE SMOOTH",
"708 -21 OFFCURVE",
"618 15 OFFCURVE",
"576 113 CURVE",
"537 17 OFFCURVE",
"441 -21 OFFCURVE",
"336 -21 CURVE SMOOTH",
"184 -21 OFFCURVE",
"80 59 OFFCURVE",
"80 200 CURVE SMOOTH",
"80 328 OFFCURVE",
"166 417 OFFCURVE",
"301 417 CURVE SMOOTH",
"380 417 OFFCURVE",
"442 386 OFFCURVE",
"442 323 CURVE SMOOTH",
"442 261 OFFCURVE",
"380 227 OFFCURVE",
"294 227 CURVE SMOOTH",
"236 227 OFFCURVE",
"164 242 OFFCURVE",
"104 286 CURVE",
"116 302 LINE",
"164 266 OFFCURVE",
"236 252 OFFCURVE",
"296 252 CURVE SMOOTH",
"360 252 OFFCURVE",
"418 268 OFFCURVE",
"418 323 CURVE SMOOTH",
"418 371 OFFCURVE",
"373 395 OFFCURVE",
"302 395 CURVE SMOOTH",
"162 395 OFFCURVE",
"102 301 OFFCURVE",
"102 202 CURVE SMOOTH",
"102 84 OFFCURVE",
"187 4 OFFCURVE",
"338 4 CURVE SMOOTH",
"468 4 OFFCURVE",
"534 64 OFFCURVE",
"564 140 CURVE",
"588 140 LINE",
"627 48 OFFCURVE",
"695 4 OFFCURVE",
"827 4 CURVE SMOOTH",
"968 4 OFFCURVE",
"1050 58 OFFCURVE",
"1050 183 CURVE SMOOTH",
"1050 315 OFFCURVE",
"941 378 OFFCURVE",
"807 381 CURVE",
"810 405 LINE",
"841 405 LINE SMOOTH",
"868 405 OFFCURVE",
"924 418 OFFCURVE",
"924 468 CURVE SMOOTH",
"924 513 OFFCURVE",
"880 529 OFFCURVE",
"820 529 CURVE SMOOTH",
"805 529 OFFCURVE",
"774 528 OFFCURVE",
"745 520 CURVE",
"742 543 LINE",
"768 549 OFFCURVE",
"799 552 OFFCURVE",
"824 552 CURVE SMOOTH",
"901 552 OFFCURVE",
"946 522 OFFCURVE",
"946 469 CURVE SMOOTH",
"946 420 OFFCURVE",
"908 391 OFFCURVE",
"842 390 CURVE"
);
},
{
closed = 1;
nodes = (
"319 416 LINE",
"292 417 OFFCURVE",
"236 429 OFFCURVE",
"236 479 CURVE SMOOTH",
"236 524 OFFCURVE",
"280 540 OFFCURVE",
"340 540 CURVE SMOOTH",
"355 540 OFFCURVE",
"386 539 OFFCURVE",
"415 531 CURVE",
"418 554 LINE",
"392 560 OFFCURVE",
"361 563 OFFCURVE",
"336 563 CURVE SMOOTH",
"259 563 OFFCURVE",
"214 533 OFFCURVE",
"214 480 CURVE SMOOTH",
"214 431 OFFCURVE",
"252 402 OFFCURVE",
"319 401 CURVE"
);
},
{
closed = 1;
nodes = (
"319 416 LINE",
"292 417 OFFCURVE",
"236 429 OFFCURVE",
"236 479 CURVE SMOOTH",
"236 524 OFFCURVE",
"280 540 OFFCURVE",
"340 540 CURVE SMOOTH",
"355 540 OFFCURVE",
"386 539 OFFCURVE",
"415 531 CURVE",
"418 554 LINE",
"392 560 OFFCURVE",
"361 563 OFFCURVE",
"336 563 CURVE SMOOTH",
"259 563 OFFCURVE",
"214 533 OFFCURVE",
"214 480 CURVE SMOOTH",
"214 431 OFFCURVE",
"252 402 OFFCURVE",
"319 401 CURVE"
);
}
);
width = 1152;
}
);
leftMetricsKey = knLLLA.base;
rightMetricsKey = knLLLA.base;
unicode = 0C9F;
},
{
glyphname = knDDA;
lastChange = "2015-09-28 22:19:15 +0000";
layers = (
{
background = {
paths = (
{
closed = 1;
nodes = (
"65 21 OFFCURVE",
"172 -21 OFFCURVE",
"307 -21 CURVE SMOOTH",
"408 -21 OFFCURVE",
"502 2 OFFCURVE",
"521 76 CURVE",
"543 1 OFFCURVE",
"642 -21 OFFCURVE",
"737 -21 CURVE SMOOTH",
"871 -21 OFFCURVE",
"977 21 OFFCURVE",
"977 126 CURVE SMOOTH",
"977 300 OFFCURVE",
"688 370 OFFCURVE",
"548 372 CURVE",
"544 353 LINE",
"667 353 OFFCURVE",
"933 281 OFFCURVE",
"933 126 CURVE SMOOTH",
"933 38 OFFCURVE",
"848 4 OFFCURVE",
"733 4 CURVE SMOOTH",
"624 4 OFFCURVE",
"561 36 OFFCURVE",
"543 101 CURVE",
"498 101 LINE",
"483 34 OFFCURVE",
"417 4 OFFCURVE",
"309 4 CURVE SMOOTH",
"194 4 OFFCURVE",
"108 38 OFFCURVE",
"108 126 CURVE SMOOTH",
"108 280 OFFCURVE",
"372 353 OFFCURVE",
"496 353 CURVE",
"492 372 LINE",
"353 370 OFFCURVE",
"65 300 OFFCURVE",
"65 127 CURVE SMOOTH"
);
}
);
};
components = (
{
name = knDDA.base;
},
{
name = _part.headline;
transform = "{1, 0, 0, 1, 585, 0}";
}
);
guideLines = (
{
angle = 90;
position = "{1005, 129}";
}
);
layerId = "034236B8-3FA8-43DA-9EDA-EFF269A687EC";
name = Light;
width = 1095;
}
);
leftMetricsKey = knDA.base;
unicode = 0CA1;
},
{
glyphname = knDDHA;
lastChange = "2015-09-28 22:19:15 +0000";
layers = (
{
background = {
paths = (
{
closed = 1;
nodes = (
"233 -9 CURVE SMOOTH",
"307 -9 OFFCURVE",
"365 37 OFFCURVE",
"374 104 CURVE",
"382 40 OFFCURVE",
"444 -9 OFFCURVE",
"534 -9 CURVE SMOOTH",
"644 -9 OFFCURVE",
"719 81 OFFCURVE",
"719 210 CURVE SMOOTH",
"719 395 OFFCURVE",
"594 536 OFFCURVE",
"368 536 CURVE SMOOTH",
"180 536 OFFCURVE",
"38 394 OFFCURVE",
"38 209 CURVE SMOOTH",
"38 81 OFFCURVE",
"110 -9 OFFCURVE"
);
},
{
closed = 1;
nodes = (
"330 -186 LINE",
"417 -186 LINE",
"417 -172 LINE",
"387 4 LINE",
"360 4 LINE",
"330 -172 LINE"
);
},
{
closed = 1;
nodes = (
"233 43 CURVE SMOOTH",
"149 43 OFFCURVE",
"100 114 OFFCURVE",
"100 210 CURVE SMOOTH",
"100 365 OFFCURVE",
"223 492 OFFCURVE",
"378 492 CURVE SMOOTH",
"459 492 OFFCURVE",
"505 474 OFFCURVE",
"552 444 CURVE",
"540 464 LINE",
"454 463 OFFCURVE",
"404 403 OFFCURVE",
"404 338 CURVE SMOOTH",
"404 269 OFFCURVE",
"456 216 OFFCURVE",
"532 216 CURVE SMOOTH",
"612 216 OFFCURVE",
"661 275 OFFCURVE",
"662 344 CURVE",
"616 363 LINE",
"649 316 OFFCURVE",
"662 270 OFFCURVE",
"662 211 CURVE SMOOTH",
"662 110 OFFCURVE",
"610 43 OFFCURVE",
"534 43 CURVE SMOOTH",
"457 43 OFFCURVE",
"405 95 OFFCURVE",
"405 168 CURVE SMOOTH",
"405 199 LINE",
"343 199 LINE",
"343 168 LINE SMOOTH",
"343 95 OFFCURVE",
"296 43 OFFCURVE"
);
},
{
closed = 1;
nodes = (
"539 267 CURVE SMOOTH",
"492 267 OFFCURVE",
"462 298 OFFCURVE",
"462 341 CURVE SMOOTH",
"462 384 OFFCURVE",
"494 418 OFFCURVE",
"539 418 CURVE SMOOTH",
"583 418 OFFCURVE",
"614 384 OFFCURVE",
"614 341 CURVE SMOOTH",
"614 300 OFFCURVE",
"583 267 OFFCURVE"
);
},
{
closed = 1;
nodes = (
"44 492 LINE",
"612 492 LINE SMOOTH",
"685 492 OFFCURVE",
"719 523 OFFCURVE",
"719 577 CURVE SMOOTH",
"719 590 OFFCURVE",
"717 602 OFFCURVE",
"713 615 CURVE",
"654 615 LINE",
"656 606 OFFCURVE",
"658 598 OFFCURVE",
"658 591 CURVE SMOOTH",
"658 560 OFFCURVE",
"636 546 OFFCURVE",
"595 546 CURVE SMOOTH",
"44 546 LINE"
);
}
);
};
components = (
{
name = knDDA.base;
},
{
name = _part.headline;
transform = "{1, 0, 0, 1, 585, 0}";
},
{
name = _part.teardrop;
transform = "{1, 0, 0, 1, 425, -21}";
}
);
layerId = "034236B8-3FA8-43DA-9EDA-EFF269A687EC";
name = Light;
width = 1095;
}
);
leftMetricsKey = knDA.base;
unicode = 0CA2;
},
{
glyphname = knTHA;
lastChange = "2015-09-28 22:19:15 +0000";
layers = (
{
background = {
paths = (
{
closed = 1;
nodes = (
"218 -9 CURVE SMOOTH",
"302 -9 OFFCURVE",
"345 34 OFFCURVE",
"355 104 CURVE",
"364 34 OFFCURVE",
"408 -9 OFFCURVE",
"490 -9 CURVE SMOOTH",
"599 -9 OFFCURVE",
"671 82 OFFCURVE",
"671 216 CURVE SMOOTH",
"671 411 OFFCURVE",
"542 540 OFFCURVE",
"355 540 CURVE SMOOTH",
"168 540 OFFCURVE",
"38 411 OFFCURVE",
"38 216 CURVE SMOOTH",
"38 82 OFFCURVE",
"111 -9 OFFCURVE"
);
},
{
closed = 1;
nodes = (
"312 -186 LINE",
"398 -186 LINE",
"398 -172 LINE",
"369 4 LINE",
"342 4 LINE",
"312 -172 LINE"
);
},
{
closed = 1;
nodes = (
"222 43 CURVE SMOOTH",
"149 43 OFFCURVE",
"100 114 OFFCURVE",
"100 217 CURVE SMOOTH",
"100 380 OFFCURVE",
"204 492 OFFCURVE",
"354 492 CURVE SMOOTH",
"504 492 OFFCURVE",
"609 380 OFFCURVE",
"609 217 CURVE SMOOTH",
"609 114 OFFCURVE",
"561 43 OFFCURVE",
"489 43 CURVE SMOOTH",
"419 43 OFFCURVE",
"385 100 OFFCURVE",
"385 174 CURVE SMOOTH",
"385 209 LINE",
"323 209 LINE",
"323 174 LINE SMOOTH",
"323 100 OFFCURVE",
"289 43 OFFCURVE"
);
},
{
closed = 1;
nodes = (
"355 301 CURVE SMOOTH",
"381 301 OFFCURVE",
"402 322 OFFCURVE",
"402 349 CURVE SMOOTH",
"402 376 OFFCURVE",
"381 397 OFFCURVE",
"355 397 CURVE SMOOTH",
"327 397 OFFCURVE",
"306 376 OFFCURVE",
"306 349 CURVE SMOOTH",
"306 322 OFFCURVE",
"327 301 OFFCURVE"
);
},
{
closed = 1;
nodes = (
"44 492 LINE",
"564 492 LINE SMOOTH",
"637 492 OFFCURVE",
"671 523 OFFCURVE",
"671 577 CURVE SMOOTH",
"671 590 OFFCURVE",
"669 602 OFFCURVE",
"665 615 CURVE",
"607 615 LINE",
"609 606 OFFCURVE",
"610 598 OFFCURVE",
"610 591 CURVE SMOOTH",
"610 560 OFFCURVE",
"589 546 OFFCURVE",
"548 546 CURVE SMOOTH",
"44 546 LINE"
);
}
);
};
components = (
{
name = knTHA.base;
},
{
name = _part.headline;
transform = "{1, 0, 0, 1, 585, 0}";
piece = {
Width = 288;
};
}
);
layerId = "034236B8-3FA8-43DA-9EDA-EFF269A687EC";
name = Light;
width = 1098;
}
);
unicode = 0CA5;
},
{
glyphname = knDHA;
lastChange = "2015-09-28 22:19:15 +0000";
layers = (
{
background = {
paths = (
{
closed = 1;
nodes = (
"218 -9 CURVE SMOOTH",
"302 -9 OFFCURVE",
"345 34 OFFCURVE",
"355 104 CURVE",
"364 34 OFFCURVE",
"408 -9 OFFCURVE",
"490 -9 CURVE SMOOTH",
"599 -9 OFFCURVE",
"671 82 OFFCURVE",
"671 216 CURVE SMOOTH",
"671 411 OFFCURVE",
"542 540 OFFCURVE",
"355 540 CURVE SMOOTH",
"168 540 OFFCURVE",
"38 411 OFFCURVE",
"38 216 CURVE SMOOTH",
"38 82 OFFCURVE",
"111 -9 OFFCURVE"
);
},
{
closed = 1;
nodes = (
"312 -186 LINE",
"398 -186 LINE",
"398 -172 LINE",
"369 4 LINE",
"342 4 LINE",
"312 -172 LINE"
);
},
{
closed = 1;
nodes = (
"222 43 CURVE SMOOTH",
"149 43 OFFCURVE",
"100 114 OFFCURVE",
"100 217 CURVE SMOOTH",
"100 380 OFFCURVE",
"204 492 OFFCURVE",
"354 492 CURVE SMOOTH",
"504 492 OFFCURVE",
"609 380 OFFCURVE",
"609 217 CURVE SMOOTH",
"609 114 OFFCURVE",
"561 43 OFFCURVE",
"489 43 CURVE SMOOTH",
"419 43 OFFCURVE",
"385 100 OFFCURVE",
"385 174 CURVE SMOOTH",
"385 209 LINE",
"323 209 LINE",
"323 174 LINE SMOOTH",
"323 100 OFFCURVE",
"289 43 OFFCURVE"
);
},
{
closed = 1;
nodes = (
"44 492 LINE",
"564 492 LINE SMOOTH",
"637 492 OFFCURVE",
"671 523 OFFCURVE",
"671 577 CURVE SMOOTH",
"671 590 OFFCURVE",
"669 602 OFFCURVE",
"665 615 CURVE",
"607 615 LINE",
"609 606 OFFCURVE",
"610 598 OFFCURVE",
"610 591 CURVE SMOOTH",
"610 560 OFFCURVE",
"589 546 OFFCURVE",
"548 546 CURVE SMOOTH",
"44 546 LINE"
);
}
);
};
components = (
{
name = knDHA.base;
},
{
name = _part.headline;
transform = "{1, 0, 0, 1, 585, 0}";
piece = {
Width = 288;
};
}
);
layerId = "034236B8-3FA8-43DA-9EDA-EFF269A687EC";
name = Light;
width = 1098;
}
);
unicode = 0CA7;
},
{
glyphname = knNA;
lastChange = "2015-09-28 22:19:15 +0000";
layers = (
{
background = {
anchors = (
{
name = headline;
position = "{833, 381}";
},
{
name = knmU;
position = "{825, -21}";
},
{
name = knmUU;
position = "{833, -31}";
},
{
name = virama;
position = "{833, 381}";
}
);
paths = (
{
closed = 1;
nodes = (
"184 415 LINE",
"182 415 LINE",
"182 1 LINE",
"184 1 LINE"
);
},
{
closed = 1;
nodes = (
"322 415 LINE",
"320 415 LINE",
"320 1 LINE",
"322 1 LINE"
);
},
{
closed = 1;
nodes = (
"460 415 LINE",
"458 415 LINE",
"458 1 LINE",
"460 1 LINE"
);
},
{
closed = 1;
nodes = (
"598 415 LINE",
"596 415 LINE",
"596 1 LINE",
"598 1 LINE"
);
},
{
closed = 1;
nodes = (
"736 415 LINE",
"734 415 LINE",
"734 1 LINE",
"736 1 LINE"
);
},
{
closed = 1;
nodes = (
"874 415 LINE",
"872 415 LINE",
"872 1 LINE",
"874 1 LINE"
);
},
{
closed = 1;
nodes = (
"874 414 LINE",
"874 416 LINE",
"44 416 LINE",
"44 414 LINE"
);
},
{
closed = 1;
nodes = (
"874 276 LINE",
"874 278 LINE",
"44 278 LINE",
"44 276 LINE"
);
},
{
closed = 1;
nodes = (
"874 138 LINE",
"874 140 LINE",
"44 140 LINE",
"44 138 LINE"
);
},
{
closed = 1;
nodes = (
"874 0 LINE",
"874 2 LINE",
"44 2 LINE",
"44 0 LINE"
);
},
{
closed = 1;
nodes = (
"46 415 LINE",
"44 415 LINE",
"44 1 LINE",
"46 1 LINE"
);
},
{
closed = 1;
nodes = (
"226 3 LINE",
"148 3 OFFCURVE",
"108 46 OFFCURVE",
"108 103 CURVE SMOOTH",
"108 167 OFFCURVE",
"155 210 OFFCURVE",
"238 210 CURVE SMOOTH",
"434 210 OFFCURVE",
"401 -19 OFFCURVE",
"643 -19 CURVE SMOOTH",
"763 -19 OFFCURVE",
"833 40 OFFCURVE",
"833 148 CURVE SMOOTH",
"833 309 OFFCURVE",
"692 399 OFFCURVE",
"438 399 CURVE",
"438 381 LINE",
"677 380 OFFCURVE",
"810 297 OFFCURVE",
"810 148 CURVE SMOOTH",
"810 56 OFFCURVE",
"752 5 OFFCURVE",
"644 5 CURVE SMOOTH",
"409 5 OFFCURVE",
"455 234 OFFCURVE",
"240 234 CURVE SMOOTH",
"144 234 OFFCURVE",
"85 186 OFFCURVE",
"85 103 CURVE SMOOTH",
"85 22 OFFCURVE",
"144 -21 OFFCURVE",
"224 -21 CURVE"
);
}
);
};
components = (
{
name = knNA.base;
},
{
name = _part.headline;
transform = "{1, 0, 0, 1, 413, 0}";
piece = {
Width = 250;
};
}
);
layerId = "034236B8-3FA8-43DA-9EDA-EFF269A687EC";
name = Light;
width = 928;
}
);
unicode = 0CA8;
},
{
glyphname = knPHA;
lastChange = "2015-09-28 22:19:15 +0000";
layers = (
{
background = {
paths = (
{
closed = 1;
nodes = (
"410 353 LINE SMOOTH",
"475 353 OFFCURVE",
"511 377 OFFCURVE",
"511 423 CURVE SMOOTH",
"511 445 OFFCURVE",
"503 463 OFFCURVE",
"494 474 CURVE",
"477 465 LINE",
"484 453 OFFCURVE",
"487 439 OFFCURVE",
"487 427 CURVE SMOOTH",
"487 392 OFFCURVE",
"462 377 OFFCURVE",
"408 377 CURVE SMOOTH",
"2 377 LINE",
"2 353 LINE"
);
},
{
closed = 1;
nodes = (
"174 148 LINE",
"159 158 OFFCURVE",
"138 163 OFFCURVE",
"117 163 CURVE SMOOTH",
"68 163 OFFCURVE",
"36 134 OFFCURVE",
"36 84 CURVE SMOOTH",
"36 31 OFFCURVE",
"72 4 OFFCURVE",
"129 4 CURVE SMOOTH",
"194 4 OFFCURVE",
"231 38 OFFCURVE",
"238 101 CURVE",
"262 101 LINE",
"272 36 OFFCURVE",
"306 4 OFFCURVE",
"365 4 CURVE SMOOTH",
"426 4 OFFCURVE",
"476 39 OFFCURVE",
"476 122 CURVE SMOOTH",
"476 197 OFFCURVE",
"436 233 OFFCURVE",
"389 260 CURVE",
"399 277 LINE",
"464 243 OFFCURVE",
"500 201 OFFCURVE",
"500 124 CURVE SMOOTH",
"500 23 OFFCURVE",
"439 -21 OFFCURVE",
"367 -21 CURVE SMOOTH",
"315 -21 OFFCURVE",
"262 1 OFFCURVE",
"250 76 CURVE",
"242 14 OFFCURVE",
"202 -21 OFFCURVE",
"130 -21 CURVE SMOOTH",
"57 -21 OFFCURVE",
"12 15 OFFCURVE",
"12 82 CURVE SMOOTH",
"12 148 OFFCURVE",
"56 185 OFFCURVE",
"116 185 CURVE SMOOTH",
"142 185 OFFCURVE",
"166 178 OFFCURVE",
"184 163 CURVE"
);
},
{
closed = 1;
nodes = (
"218 219 OFFCURVE",
"232 204 OFFCURVE",
"253 204 CURVE SMOOTH",
"274 204 OFFCURVE",
"288 219 OFFCURVE",
"288 238 CURVE SMOOTH",
"288 257 OFFCURVE",
"274 272 OFFCURVE",
"253 272 CURVE SMOOTH",
"232 272 OFFCURVE",
"218 257 OFFCURVE",
"218 238 CURVE SMOOTH"
);
}
);
};
components = (
{
name = knPHA.base;
},
{
name = _part.headline;
transform = "{1, 0, 0, 1, 492, 0}";
piece = {
Width = 280.312;
};
}
);
guideLines = (
{
angle = 90;
position = "{896, 124}";
}
);
layerId = "034236B8-3FA8-43DA-9EDA-EFF269A687EC";
name = Light;
width = 997;
}
);
unicode = 0CAB;
},
{
glyphname = knBHA;
lastChange = "2015-09-28 22:19:15 +0000";
layers = (
{
background = {
paths = (
{
closed = 1;
nodes = (
"205 -9 CURVE SMOOTH",
"286 -9 OFFCURVE",
"343 30 OFFCURVE",
"359 99 CURVE",
"370 30 OFFCURVE",
"420 -9 OFFCURVE",
"494 -9 CURVE SMOOTH",
"605 -9 OFFCURVE",
"678 86 OFFCURVE",
"678 245 CURVE SMOOTH",
"678 402 OFFCURVE",
"565 522 OFFCURVE",
"435 523 CURVE",
"403 492 LINE",
"537 491 OFFCURVE",
"615 354 OFFCURVE",
"615 244 CURVE SMOOTH",
"615 134 OFFCURVE",
"582 43 OFFCURVE",
"495 43 CURVE SMOOTH",
"432 43 OFFCURVE",
"391 94 OFFCURVE",
"391 165 CURVE",
"391 209 LINE",
"329 209 LINE",
"329 165 LINE",
"329 96 OFFCURVE",
"281 43 OFFCURVE",
"209 43 CURVE SMOOTH",
"145 43 OFFCURVE",
"110 79 OFFCURVE",
"110 132 CURVE SMOOTH",
"110 265 OFFCURVE",
"334 276 OFFCURVE",
"334 423 CURVE SMOOTH",
"334 492 OFFCURVE",
"280 557 OFFCURVE",
"201 557 CURVE SMOOTH",
"115 557 OFFCURVE",
"64 500 OFFCURVE",
"64 423 CURVE SMOOTH",
"64 409 OFFCURVE",
"66 394 OFFCURVE",
"70 379 CURVE",
"129 379 LINE",
"126 394 OFFCURVE",
"124 407 OFFCURVE",
"124 420 CURVE SMOOTH",
"124 476 OFFCURVE",
"158 504 OFFCURVE",
"201 504 CURVE SMOOTH",
"248 504 OFFCURVE",
"274 471 OFFCURVE",
"274 422 CURVE SMOOTH",
"274 303 OFFCURVE",
"47 293 OFFCURVE",
"47 132 CURVE SMOOTH",
"47 47 OFFCURVE",
"112 -9 OFFCURVE"
);
},
{
closed = 1;
nodes = (
"315 -186 LINE",
"402 -186 LINE",
"402 -172 LINE",
"372 4 LINE",
"345 4 LINE",
"315 -172 LINE"
);
},
{
closed = 1;
nodes = (
"404 492 LINE",
"546 492 LINE SMOOTH",
"619 492 OFFCURVE",
"653 523 OFFCURVE",
"653 577 CURVE SMOOTH",
"653 590 OFFCURVE",
"652 602 OFFCURVE",
"647 615 CURVE",
"589 615 LINE",
"591 606 OFFCURVE",
"592 598 OFFCURVE",
"592 591 CURVE SMOOTH",
"592 560 OFFCURVE",
"571 546 OFFCURVE",
"530 546 CURVE SMOOTH",
"404 546 LINE"
);
}
);
};
components = (
{
name = knBHA.base;
},
{
name = _part.headline;
transform = "{1, 0, 0, 1, 562, 0}";
piece = {
Width = 319;
};
}
);
layerId = "034236B8-3FA8-43DA-9EDA-EFF269A687EC";
name = Light;
width = 1060;
}
);
unicode = 0CAD;
},
{
glyphname = knMA;
lastChange = "2015-09-28 22:19:15 +0000";
layers = (
{
anchors = (
{
name = headline;
position = "{1406, 381}";
},
{
name = knmU;
position = "{1406, -21}";
}
);
background = {
paths = (
{
closed = 1;
nodes = (
"212 -9 CURVE SMOOTH",
"287 -9 OFFCURVE",
"340 30 OFFCURVE",
"352 99 CURVE",
"362 30 OFFCURVE",
"418 -9 OFFCURVE",
"493 -9 CURVE SMOOTH",
"599 -9 OFFCURVE",
"668 75 OFFCURVE",
"668 217 CURVE SMOOTH",
"668 373 OFFCURVE",
"560 520 OFFCURVE",
"357 520 CURVE SMOOTH",
"345 520 OFFCURVE",
"337 519 OFFCURVE",
"324 516 CURVE",
"314 492 LINE",
"507 492 OFFCURVE",
"605 353 OFFCURVE",
"605 218 CURVE SMOOTH",
"605 107 OFFCURVE",
"563 43 OFFCURVE",
"493 43 CURVE SMOOTH",
"424 43 OFFCURVE",
"382 96 OFFCURVE",
"382 165 CURVE",
"382 209 LINE",
"320 209 LINE",
"320 165 LINE SMOOTH",
"320 94 OFFCURVE",
"275 43 OFFCURVE",
"212 43 CURVE SMOOTH",
"139 43 OFFCURVE",
"99 93 OFFCURVE",
"99 157 CURVE SMOOTH",
"99 230 OFFCURVE",
"149 272 OFFCURVE",
"213 272 CURVE SMOOTH",
"222 272 OFFCURVE",
"232 271 OFFCURVE",
"242 269 CURVE",
"242 326 LINE",
"232 328 OFFCURVE",
"219 329 OFFCURVE",
"210 329 CURVE SMOOTH",
"112 329 OFFCURVE",
"38 260 OFFCURVE",
"38 156 CURVE SMOOTH",
"38 60 OFFCURVE",
"104 -9 OFFCURVE"
);
},
{
closed = 1;
nodes = (
"56 492 LINE",
"531 492 LINE SMOOTH",
"605 492 OFFCURVE",
"638 523 OFFCURVE",
"638 577 CURVE SMOOTH",
"638 590 OFFCURVE",
"636 602 OFFCURVE",
"633 615 CURVE",
"574 615 LINE",
"576 606 OFFCURVE",
"577 598 OFFCURVE",
"577 591 CURVE SMOOTH",
"577 560 OFFCURVE",
"556 546 OFFCURVE",
"515 546 CURVE SMOOTH",
"56 546 LINE"
);
},
{
closed = 1;
nodes = (
"623 217 LINE",
"623 83 OFFCURVE",
"686 -10 OFFCURVE",
"806 -10 CURVE SMOOTH",
"951 -10 OFFCURVE",
"1009 102 OFFCURVE",
"1009 257 CURVE SMOOTH",
"1009 409 OFFCURVE",
"911 546 OFFCURVE",
"744 546 CURVE",
"744 491 LINE",
"863 491 OFFCURVE",
"947 389 OFFCURVE",
"947 255 CURVE SMOOTH",
"947 130 OFFCURVE",
"907 42 OFFCURVE",
"802 42 CURVE SMOOTH",
"722 42 OFFCURVE",
"668 109 OFFCURVE",
"667 218 CURVE"
);
}
);
};
components = (
{
disableAlignment = 1;
name = knVA;
},
{
name = _part.knmU;
transform = "{1, 0, 0, 1, 1003, 0}";
piece = {
"Terminal Height" = 170;
};
}
);
guideLines = (
{
angle = 90;
position = "{1369, 190}";
}
);
layerId = "034236B8-3FA8-43DA-9EDA-EFF269A687EC";
name = Light;
width = 1449;
}
);
leftMetricsKey = knPA.base;
rightMetricsKey = _part.knmU;
unicode = 0CAE;
},
{
glyphname = knLA;
lastChange = "2015-09-28 22:19:15 +0000";
layers = (
{
background = {
paths = (
{
closed = 1;
nodes = (
"385 393 OFFCURVE",
"434 371 OFFCURVE",
"434 323 CURVE SMOOTH",
"434 268 OFFCURVE",
"373 252 OFFCURVE",
"304 252 CURVE SMOOTH",
"240 252 OFFCURVE",
"165 266 OFFCURVE",
"114 302 CURVE",
"102 286 LINE",
"165 242 OFFCURVE",
"241 227 OFFCURVE",
"302 227 CURVE SMOOTH",
"394 227 OFFCURVE",
"458 261 OFFCURVE",
"458 323 CURVE SMOOTH",
"458 386 OFFCURVE",
"394 417 OFFCURVE",
"310 417 CURVE SMOOTH",
"168 417 OFFCURVE",
"78 328 OFFCURVE",
"78 220 CURVE SMOOTH",
"78 60 OFFCURVE",
"274 -21 OFFCURVE",
"529 -21 CURVE SMOOTH",
"791 -21 OFFCURVE",
"954 64 OFFCURVE",
"954 202 CURVE SMOOTH",
"954 314 OFFCURVE",
"847 387 OFFCURVE",
"706 405 CURVE",
"698 384 LINE",
"830 367 OFFCURVE",
"931 306 OFFCURVE",
"931 205 CURVE SMOOTH",
"931 80 OFFCURVE",
"777 4 OFFCURVE",
"529 4 CURVE SMOOTH",
"279 4 OFFCURVE",
"100 81 OFFCURVE",
"100 222 CURVE SMOOTH",
"100 304 OFFCURVE",
"163 393 OFFCURVE",
"312 393 CURVE SMOOTH"
);
}
);
};
components = (
{
name = knLA.base;
}
);
layerId = "034236B8-3FA8-43DA-9EDA-EFF269A687EC";
name = Light;
width = 1046;
}
);
unicode = 0CB2;
},
{
glyphname = knVA;
lastChange = "2015-09-28 22:19:15 +0000";
layers = (
{
background = {
anchors = (
{
name = headline;
position = "{1088, 381}";
},
{
name = teardrop;
position = "{592, 0}";
}
);
components = (
{
name = _part.teardrop;
transform = "{1, 0, 0, 1, 467, 0}";
},
{
name = _part.headline;
transform = "{1, 0, 0, 1, 669, 0}";
piece = {
Width = 339;
};
}
);
paths = (
{
closed = 1;
nodes = (
"634 16 OFFCURVE",
"724 -21 OFFCURVE",
"847 -21 CURVE SMOOTH",
"994 -21 OFFCURVE",
"1088 38 OFFCURVE",
"1088 173 CURVE SMOOTH",
"1088 298 OFFCURVE",
"991 381 OFFCURVE",
"767 404 CURVE",
"760 384 LINE",
"946 366 OFFCURVE",
"1066 302 OFFCURVE",
"1066 175 CURVE SMOOTH",
"1066 55 OFFCURVE",
"980 4 OFFCURVE",
"844 4 CURVE SMOOTH",
"713 4 OFFCURVE",
"641 48 OFFCURVE",
"604 140 CURVE",
"580 140 LINE",
"551 64 OFFCURVE",
"484 4 OFFCURVE",
"354 4 CURVE SMOOTH",
"203 4 OFFCURVE",
"120 84 OFFCURVE",
"120 202 CURVE SMOOTH",
"120 301 OFFCURVE",
"178 393 OFFCURVE",
"319 393 CURVE SMOOTH",
"388 393 OFFCURVE",
"434 371 OFFCURVE",
"434 323 CURVE SMOOTH",
"434 268 OFFCURVE",
"376 252 OFFCURVE",
"312 252 CURVE SMOOTH",
"252 252 OFFCURVE",
"180 266 OFFCURVE",
"132 302 CURVE",
"120 286 LINE",
"180 242 OFFCURVE",
"252 227 OFFCURVE",
"310 227 CURVE SMOOTH",
"396 227 OFFCURVE",
"458 261 OFFCURVE",
"458 323 CURVE SMOOTH",
"458 386 OFFCURVE",
"396 417 OFFCURVE",
"317 417 CURVE SMOOTH",
"182 417 OFFCURVE",
"98 328 OFFCURVE",
"98 200 CURVE SMOOTH",
"98 59 OFFCURVE",
"200 -21 OFFCURVE",
"352 -21 CURVE SMOOTH",
"456 -21 OFFCURVE",
"553 18 OFFCURVE",
"592 113 CURVE"
);
}
);
};
components = (
{
name = _part.headline;
transform = "{1, 0, 0, 1, 515, 0}";
piece = {
Width = 280.312;
};
}
);
layerId = "034236B8-3FA8-43DA-9EDA-EFF269A687EC";
name = Light;
paths = (
{
closed = 1;
nodes = (
"372 -21 OFFCURVE",
"448 23 OFFCURVE",
"492 113 CURVE",
"538 15 OFFCURVE",
"631 -21 OFFCURVE",
"728 -21 CURVE SMOOTH",
"854 -21 OFFCURVE",
"935 39 OFFCURVE",
"935 167 CURVE SMOOTH",
"935 307 OFFCURVE",
"823 376 OFFCURVE",
"631 400 CURVE",
"628 381 LINE",
"808 358 OFFCURVE",
"913 295 OFFCURVE",
"913 169 CURVE SMOOTH",
"913 50 OFFCURVE",
"833 4 OFFCURVE",
"726 4 CURVE SMOOTH",
"615 4 OFFCURVE",
"542 54 OFFCURVE",
"504 140 CURVE",
"480 140 LINE",
"441 52 OFFCURVE",
"373 4 OFFCURVE",
"256 4 CURVE SMOOTH",
"160 4 OFFCURVE",
"92 36 OFFCURVE",
"92 108 CURVE SMOOTH",
"92 175 OFFCURVE",
"152 206 OFFCURVE",
"239 206 CURVE SMOOTH",
"274 206 OFFCURVE",
"307 201 OFFCURVE",
"335 191 CURVE",
"340 212 LINE",
"321 221 OFFCURVE",
"281 228 OFFCURVE",
"239 228 CURVE SMOOTH",
"141 228 OFFCURVE",
"70 189 OFFCURVE",
"70 105 CURVE SMOOTH",
"70 19 OFFCURVE",
"145 -21 OFFCURVE",
"256 -21 CURVE SMOOTH"
);
},
{
closed = 1;
nodes = (
"689 381 LINE",
"689 405 LINE",
"58 405 LINE",
"58 381 LINE"
);
}
);
width = 1015;
}
);
leftMetricsKey = knPA.base;
unicode = 0CB5;
},
{
glyphname = knSSA;
lastChange = "2015-09-28 22:19:15 +0000";
layers = (
{
background = {
paths = (
{
closed = 1;
nodes = (
"903 -28 LINE",
"918 -9 LINE",
"597.755 236.681 LINE",
"584.245 219.319 LINE"
);
},
{
closed = 1;
nodes = (
"917 -30 OFFCURVE",
"922 -25 OFFCURVE",
"922 -18 CURVE SMOOTH",
"922 -11 OFFCURVE",
"917 -6 OFFCURVE",
"910 -6 CURVE SMOOTH",
"903 -6 OFFCURVE",
"898 -11 OFFCURVE",
"898 -18 CURVE SMOOTH",
"898 -25 OFFCURVE",
"903 -30 OFFCURVE",
"910 -30 CURVE SMOOTH"
);
}
);
};
components = (
{
name = knSSA.base;
},
{
name = _part.headline;
transform = "{1, 0, 0, 1, 492, 0}";
piece = {
Width = 280.312;
};
}
);
layerId = "034236B8-3FA8-43DA-9EDA-EFF269A687EC";
name = Light;
width = 997;
}
);
unicode = 0CB7;
},
{
glyphname = knRRA;
lastChange = "2015-09-28 22:19:15 +0000";
layers = (
{
background = {
paths = (
{
closed = 1;
nodes = (
"253 -9 CURVE SMOOTH",
"331 -9 OFFCURVE",
"387 30 OFFCURVE",
"399 99 CURVE",
"410 30 OFFCURVE",
"466 -9 OFFCURVE",
"544 -9 CURVE SMOOTH",
"693 -9 OFFCURVE",
"750 114 OFFCURVE",
"750 280 CURVE SMOOTH",
"750 418 OFFCURVE",
"690 556 OFFCURVE",
"563 556 CURVE SMOOTH",
"481 556 OFFCURVE",
"424 492 OFFCURVE",
"424 418 CURVE SMOOTH",
"424 341 OFFCURVE",
"482 277 OFFCURVE",
"562 277 CURVE SMOOTH",
"640 277 OFFCURVE",
"693 333 OFFCURVE",
"693 415 CURVE",
"673 414 LINE",
"682 372 OFFCURVE",
"691 314 OFFCURVE",
"691 277 CURVE SMOOTH",
"691 148 OFFCURVE",
"649 43 OFFCURVE",
"544 43 CURVE SMOOTH",
"475 43 OFFCURVE",
"429 92 OFFCURVE",
"429 165 CURVE",
"429 201 LINE",
"367 201 LINE",
"367 165 LINE",
"367 92 OFFCURVE",
"322 43 OFFCURVE",
"253 43 CURVE SMOOTH",
"148 43 OFFCURVE",
"106 148 OFFCURVE",
"106 277 CURVE SMOOTH",
"106 314 OFFCURVE",
"115 372 OFFCURVE",
"124 414 CURVE",
"104 415 LINE",
"104 333 OFFCURVE",
"157 277 OFFCURVE",
"234 277 CURVE SMOOTH",
"315 277 OFFCURVE",
"372 341 OFFCURVE",
"372 418 CURVE SMOOTH",
"372 492 OFFCURVE",
"316 556 OFFCURVE",
"234 556 CURVE SMOOTH",
"107 556 OFFCURVE",
"47 418 OFFCURVE",
"47 280 CURVE SMOOTH",
"47 114 OFFCURVE",
"104 -9 OFFCURVE"
);
},
{
closed = 1;
nodes = (
"232 329 CURVE SMOOTH",
"177 329 OFFCURVE",
"145 368 OFFCURVE",
"145 413 CURVE SMOOTH",
"145 462 OFFCURVE",
"182 503 OFFCURVE",
"229 503 CURVE SMOOTH",
"279 503 OFFCURVE",
"311 465 OFFCURVE",
"311 417 CURVE SMOOTH",
"311 370 OFFCURVE",
"281 329 OFFCURVE"
);
},
{
closed = 1;
nodes = (
"565 329 CURVE SMOOTH",
"516 329 OFFCURVE",
"487 370 OFFCURVE",
"487 417 CURVE SMOOTH",
"487 465 OFFCURVE",
"518 503 OFFCURVE",
"568 503 CURVE SMOOTH",
"615 503 OFFCURVE",
"653 462 OFFCURVE",
"653 413 CURVE SMOOTH",
"653 368 OFFCURVE",
"620 329 OFFCURVE"
);
}
);
};
components = (
{
name = knRRA.base;
}
);
layerId = "034236B8-3FA8-43DA-9EDA-EFF269A687EC";
name = Light;
width = 1152;
}
);
unicode = 0CB1;
},
{
glyphname = knLLLA;
lastChange = "2015-09-28 22:19:15 +0000";
layers = (
{
background = {
paths = (
{
closed = 1;
nodes = (
"626 19 OFFCURVE",
"710 -21 OFFCURVE",
"836 -21 CURVE SMOOTH",
"974 -21 OFFCURVE",
"1082 59 OFFCURVE",
"1082 202 CURVE SMOOTH",
"1082 327 OFFCURVE",
"996 417 OFFCURVE",
"860 417 CURVE SMOOTH",
"782 417 OFFCURVE",
"722 386 OFFCURVE",
"722 323 CURVE SMOOTH",
"722 261 OFFCURVE",
"782 227 OFFCURVE",
"868 227 CURVE SMOOTH",
"926 227 OFFCURVE",
"998 242 OFFCURVE",
"1058 286 CURVE",
"1046 302 LINE",
"998 266 OFFCURVE",
"927 252 OFFCURVE",
"865 252 CURVE SMOOTH",
"802 252 OFFCURVE",
"746 268 OFFCURVE",
"746 323 CURVE SMOOTH",
"746 371 OFFCURVE",
"791 393 OFFCURVE",
"858 393 CURVE SMOOTH",
"1000 393 OFFCURVE",
"1058 301 OFFCURVE",
"1058 204 CURVE SMOOTH",
"1058 78 OFFCURVE",
"964 4 OFFCURVE",
"835 4 CURVE SMOOTH",
"699 4 OFFCURVE",
"634 53 OFFCURVE",
"598 140 CURVE",
"574 140 LINE",
"538 53 OFFCURVE",
"473 4 OFFCURVE",
"337 4 CURVE SMOOTH",
"208 4 OFFCURVE",
"114 78 OFFCURVE",
"114 204 CURVE SMOOTH",
"114 301 OFFCURVE",
"172 393 OFFCURVE",
"314 393 CURVE SMOOTH",
"381 393 OFFCURVE",
"426 371 OFFCURVE",
"426 323 CURVE SMOOTH",
"426 268 OFFCURVE",
"370 252 OFFCURVE",
"307 252 CURVE SMOOTH",
"245 252 OFFCURVE",
"174 266 OFFCURVE",
"126 302 CURVE",
"114 286 LINE",
"174 242 OFFCURVE",
"246 227 OFFCURVE",
"304 227 CURVE SMOOTH",
"390 227 OFFCURVE",
"450 261 OFFCURVE",
"450 323 CURVE SMOOTH",
"450 386 OFFCURVE",
"390 417 OFFCURVE",
"312 417 CURVE SMOOTH",
"176 417 OFFCURVE",
"90 327 OFFCURVE",
"90 202 CURVE SMOOTH",
"90 59 OFFCURVE",
"198 -21 OFFCURVE",
"336 -21 CURVE SMOOTH",
"462 -21 OFFCURVE",
"546 19 OFFCURVE",
"586 113 CURVE"
);
}
);
};
components = (
{
name = knLLLA.base;
}
);
layerId = "034236B8-3FA8-43DA-9EDA-EFF269A687EC";
name = Light;
width = 1152;
}
);
unicode = 0CDE;
},
{
glyphname = knCandrabindu;
lastChange = "2015-09-28 22:19:15 +0000";
layers = (
{
background = {
paths = (
{
closed = 1;
nodes = (
"148 603 LINE",
"135 527 OFFCURVE",
"85 480 OFFCURVE",
"0 480 CURVE SMOOTH",
"-85 480 OFFCURVE",
"-135 527 OFFCURVE",
"-148 603 CURVE",
"-170 601 LINE",
"-157 520 OFFCURVE",
"-104 455 OFFCURVE",
"0 455 CURVE SMOOTH",
"104 455 OFFCURVE",
"157 520 OFFCURVE",
"170 601 CURVE"
);
}
);
};
components = (
{
name = _part.dot;
transform = "{1, 0, 0, 1, -125, 498}";
}
);
guideLines = (
{
position = "{148, 728}";
}
);
layerId = "034236B8-3FA8-43DA-9EDA-EFF269A687EC";
name = Light;
paths = (
{
closed = 1;
nodes = (
"148 728 LINE",
"133 657 OFFCURVE",
"88 615 OFFCURVE",
"0 615 CURVE SMOOTH",
"-88 615 OFFCURVE",
"-133 657 OFFCURVE",
"-148 728 CURVE",
"-169 722 LINE",
"-155 649 OFFCURVE",
"-108 590 OFFCURVE",
"0 590 CURVE SMOOTH",
"108 590 OFFCURVE",
"155 649 OFFCURVE",
"169 722 CURVE"
);
}
);
width = 0;
}
);
unicode = 0C81;
},
{
glyphname = knVisarga;
lastChange = "2015-09-28 22:19:15 +0000";
layers = (
{
background = {
paths = (
{
closed = 0;
nodes = (
"204 157 LINE",
"125 157 OFFCURVE",
"60 128 OFFCURVE",
"60 69 CURVE SMOOTH",
"60 9 OFFCURVE",
"121 -21 OFFCURVE",
"204 -21 CURVE"
);
},
{
closed = 1;
nodes = (
"287 239 OFFCURVE",
"348 269 OFFCURVE",
"348 329 CURVE SMOOTH",
"348 388 OFFCURVE",
"283 417 OFFCURVE",
"204 417 CURVE SMOOTH",
"125 417 OFFCURVE",
"60 388 OFFCURVE",
"60 329 CURVE SMOOTH",
"60 269 OFFCURVE",
"121 239 OFFCURVE",
"204 239 CURVE SMOOTH"
);
},
{
closed = 1;
nodes = (
"132 263 OFFCURVE",
"85 289 OFFCURVE",
"85 328 CURVE SMOOTH",
"85 368 OFFCURVE",
"129 395 OFFCURVE",
"204 395 CURVE SMOOTH",
"279 395 OFFCURVE",
"323 368 OFFCURVE",
"323 328 CURVE SMOOTH",
"323 289 OFFCURVE",
"276 263 OFFCURVE",
"204 263 CURVE SMOOTH"
);
},
{
closed = 0;
nodes = (
"204 3 LINE",
"131 3 OFFCURVE",
"83 29 OFFCURVE",
"83 68 CURVE SMOOTH",
"83 109 OFFCURVE",
"128 136 OFFCURVE",
"204 136 CURVE"
);
}
);
};
layerId = "034236B8-3FA8-43DA-9EDA-EFF269A687EC";
name = Light;
paths = (
{
closed = 1;
nodes = (
"288 -21 OFFCURVE",
"348 10 OFFCURVE",
"348 68 CURVE SMOOTH",
"348 129 OFFCURVE",
"282 157 OFFCURVE",
"204 157 CURVE SMOOTH",
"126 157 OFFCURVE",
"60 129 OFFCURVE",
"60 68 CURVE SMOOTH",
"60 10 OFFCURVE",
"120 -21 OFFCURVE",
"204 -21 CURVE SMOOTH"
);
},
{
closed = 1;
nodes = (
"132 3 OFFCURVE",
"83 27 OFFCURVE",
"83 69 CURVE SMOOTH",
"83 109 OFFCURVE",
"127 136 OFFCURVE",
"204 136 CURVE SMOOTH",
"281 136 OFFCURVE",
"325 109 OFFCURVE",
"325 69 CURVE SMOOTH",
"325 27 OFFCURVE",
"276 3 OFFCURVE",
"204 3 CURVE SMOOTH"
);
},
{
closed = 1;
nodes = (
"288 239 OFFCURVE",
"348 270 OFFCURVE",
"348 328 CURVE SMOOTH",
"348 389 OFFCURVE",
"282 417 OFFCURVE",
"204 417 CURVE SMOOTH",
"126 417 OFFCURVE",
"60 389 OFFCURVE",
"60 328 CURVE SMOOTH",
"60 270 OFFCURVE",
"120 239 OFFCURVE",
"204 239 CURVE SMOOTH"
);
},
{
closed = 1;
nodes = (
"132 263 OFFCURVE",
"83 287 OFFCURVE",
"83 329 CURVE SMOOTH",
"83 369 OFFCURVE",
"127 396 OFFCURVE",
"204 396 CURVE SMOOTH",
"281 396 OFFCURVE",
"325 369 OFFCURVE",
"325 329 CURVE SMOOTH",
"325 287 OFFCURVE",
"276 263 OFFCURVE",
"204 263 CURVE SMOOTH"
);
}
);
width = 408;
}
);
unicode = 0C83;
},
{
glyphname = knVirama;
lastChange = "2015-09-28 22:19:15 +0000";
layers = (
{
background = {
paths = (
{
closed = 1;
nodes = (
"62 439 OFFCURVE",
"120 521 OFFCURVE",
"229 521 CURVE SMOOTH",
"284 521 OFFCURVE",
"326 500 OFFCURVE",
"353 470 CURVE",
"369 485 LINE",
"332 524 OFFCURVE",
"280 541 OFFCURVE",
"228 541 CURVE SMOOTH",
"107 541 OFFCURVE",
"38 450 OFFCURVE",
"38 328 CURVE SMOOTH",
"38 214 OFFCURVE",
"99 133 OFFCURVE",
"215 133 CURVE SMOOTH",
"305 133 OFFCURVE",
"354 182 OFFCURVE",
"354 257 CURVE SMOOTH",
"354 335 OFFCURVE",
"305 377 OFFCURVE",
"157 377 CURVE SMOOTH",
"-114 377 LINE",
"-114 353 LINE",
"159 353 LINE SMOOTH",
"294 353 OFFCURVE",
"330 319 OFFCURVE",
"330 257 CURVE SMOOTH",
"330 198 OFFCURVE",
"294 158 OFFCURVE",
"216 158 CURVE SMOOTH",
"115 158 OFFCURVE",
"62 225 OFFCURVE",
"62 330 CURVE SMOOTH"
);
}
);
};
components = (
{
name = _part.knVirama;
}
);
layerId = "034236B8-3FA8-43DA-9EDA-EFF269A687EC";
name = Light;
width = 540;
}
);
unicode = 0CCD;
},
{
glyphname = knZero;
lastChange = "2015-09-28 22:19:15 +0000";
layers = (
{
background = {
paths = (
{
closed = 1;
nodes = (
"566 -21 OFFCURVE",
"703 43 OFFCURVE",
"703 184 CURVE SMOOTH",
"703 334 OFFCURVE",
"559 396 OFFCURVE",
"384 396 CURVE SMOOTH",
"209 396 OFFCURVE",
"65 334 OFFCURVE",
"65 184 CURVE SMOOTH",
"65 43 OFFCURVE",
"202 -21 OFFCURVE",
"384 -21 CURVE SMOOTH"
);
},
{
closed = 1;
nodes = (
"217 4 OFFCURVE",
"88 66 OFFCURVE",
"88 189 CURVE SMOOTH",
"88 317 OFFCURVE",
"220 381 OFFCURVE",
"384 381 CURVE SMOOTH",
"548 381 OFFCURVE",
"680 317 OFFCURVE",
"680 189 CURVE SMOOTH",
"680 66 OFFCURVE",
"551 4 OFFCURVE",
"384 4 CURVE SMOOTH"
);
}
);
};
guideLines = (
{
position = "{632, 198}";
}
);
layerId = "034236B8-3FA8-43DA-9EDA-EFF269A687EC";
name = Light;
paths = (
{
closed = 1;
nodes = (
"560 -21 OFFCURVE",
"693 47 OFFCURVE",
"693 198 CURVE SMOOTH",
"693 349 OFFCURVE",
"560 417 OFFCURVE",
"384 417 CURVE SMOOTH",
"208 417 OFFCURVE",
"75 349 OFFCURVE",
"75 198 CURVE SMOOTH",
"75 47 OFFCURVE",
"208 -21 OFFCURVE",
"384 -21 CURVE SMOOTH"
);
},
{
closed = 1;
nodes = (
"223 6 OFFCURVE",
"97 71 OFFCURVE",
"97 199 CURVE SMOOTH",
"97 327 OFFCURVE",
"223 392 OFFCURVE",
"384 392 CURVE SMOOTH",
"545 392 OFFCURVE",
"671 327 OFFCURVE",
"671 199 CURVE SMOOTH",
"671 71 OFFCURVE",
"545 6 OFFCURVE",
"384 6 CURVE SMOOTH"
);
}
);
width = 768;
}
);
unicode = 0CE6;
},
{
glyphname = knOne;
lastChange = "2015-09-28 22:19:15 +0000";
layers = (
{
background = {
paths = (
{
closed = 1;
nodes = (
"568 -21 OFFCURVE",
"701 47 OFFCURVE",
"701 198 CURVE SMOOTH",
"701 349 OFFCURVE",
"568 417 OFFCURVE",
"392 417 CURVE SMOOTH",
"216 417 OFFCURVE",
"83 349 OFFCURVE",
"83 198 CURVE SMOOTH",
"83 47 OFFCURVE",
"216 -21 OFFCURVE",
"392 -21 CURVE SMOOTH"
);
},
{
closed = 1;
nodes = (
"231 6 OFFCURVE",
"105 71 OFFCURVE",
"105 199 CURVE SMOOTH",
"105 327 OFFCURVE",
"231 392 OFFCURVE",
"392 392 CURVE SMOOTH",
"553 392 OFFCURVE",
"679 327 OFFCURVE",
"679 199 CURVE SMOOTH",
"679 71 OFFCURVE",
"553 6 OFFCURVE",
"392 6 CURVE SMOOTH"
);
}
);
};
guideLines = (
{
angle = 90;
position = "{392, 392}";
},
{
angle = 90;
position = "{302, 392}";
},
{
angle = 90;
position = "{482, 392}";
}
);
layerId = "034236B8-3FA8-43DA-9EDA-EFF269A687EC";
name = Light;
paths = (
{
closed = 1;
nodes = (
"215 417 OFFCURVE",
"75 347 OFFCURVE",
"75 194 CURVE SMOOTH",
"75 71 OFFCURVE",
"170 0 OFFCURVE",
"294 -29 CURVE",
"301 -5 LINE",
"180 24 OFFCURVE",
"97 86 OFFCURVE",
"97 195 CURVE SMOOTH",
"97 327 OFFCURVE",
"226 392 OFFCURVE",
"392 392 CURVE SMOOTH",
"558 392 OFFCURVE",
"687 327 OFFCURVE",
"687 195 CURVE SMOOTH",
"687 86 OFFCURVE",
"604 24 OFFCURVE",
"483 -5 CURVE",
"490 -29 LINE",
"614 0 OFFCURVE",
"709 71 OFFCURVE",
"709 194 CURVE SMOOTH",
"709 347 OFFCURVE",
"569 417 OFFCURVE",
"392 417 CURVE SMOOTH"
);
}
);
width = 784;
}
);
unicode = 0CE7;
},
{
glyphname = knTwo;
lastChange = "2015-09-28 22:19:15 +0000";
layers = (
{
background = {
paths = (
{
closed = 1;
nodes = (
"220 0 LINE SMOOTH",
"412 0 OFFCURVE",
"502 94 OFFCURVE",
"502 227 CURVE SMOOTH",
"502 348 OFFCURVE",
"417 417 OFFCURVE",
"291 417 CURVE SMOOTH",
"205 417 OFFCURVE",
"145 385 OFFCURVE",
"145 322 CURVE SMOOTH",
"145 261 OFFCURVE",
"199 230 OFFCURVE",
"269 230 CURVE SMOOTH",
"295 230 OFFCURVE",
"325 234 OFFCURVE",
"349 242 CURVE",
"344 266 LINE",
"322 258 OFFCURVE",
"297 254 OFFCURVE",
"270 254 CURVE SMOOTH",
"208 254 OFFCURVE",
"167 275 OFFCURVE",
"167 321 CURVE SMOOTH",
"167 371 OFFCURVE",
"215 393 OFFCURVE",
"289 393 CURVE SMOOTH",
"403 393 OFFCURVE",
"480 341 OFFCURVE",
"480 226 CURVE SMOOTH",
"480 103 OFFCURVE",
"404 24 OFFCURVE",
"216 24 CURVE SMOOTH",
"-25 24 LINE",
"-25 0 LINE"
);
}
);
};
layerId = "034236B8-3FA8-43DA-9EDA-EFF269A687EC";
name = Light;
paths = (
{
closed = 1;
nodes = (
"220 0 LINE SMOOTH",
"414 0 OFFCURVE",
"502 95 OFFCURVE",
"502 224 CURVE SMOOTH",
"502 349 OFFCURVE",
"417 417 OFFCURVE",
"291 417 CURVE SMOOTH",
"205 417 OFFCURVE",
"145 385 OFFCURVE",
"145 322 CURVE SMOOTH",
"145 261 OFFCURVE",
"199 230 OFFCURVE",
"269 230 CURVE SMOOTH",
"295 230 OFFCURVE",
"325 234 OFFCURVE",
"349 242 CURVE",
"344 266 LINE",
"322 258 OFFCURVE",
"297 254 OFFCURVE",
"270 254 CURVE SMOOTH",
"208 254 OFFCURVE",
"167 275 OFFCURVE",
"167 321 CURVE SMOOTH",
"167 371 OFFCURVE",
"215 393 OFFCURVE",
"290 393 CURVE SMOOTH",
"403 393 OFFCURVE",
"480 342 OFFCURVE",
"480 223 CURVE SMOOTH",
"480 104 OFFCURVE",
"403 24 OFFCURVE",
"216 24 CURVE SMOOTH",
"-25 24 LINE",
"-25 0 LINE"
);
}
);
width = 579;
}
);
unicode = 0CE8;
},
{
glyphname = knThree;
lastChange = "2015-09-28 22:19:15 +0000";
layers = (
{
background = {
guideLines = (
{
position = "{318, 230}";
},
{
angle = 90;
position = "{379, 242}";
},
{
angle = 90;
position = "{175, 291}";
}
);
paths = (
{
closed = 1;
nodes = (
"167 261 OFFCURVE",
"221 230 OFFCURVE",
"291 230 CURVE SMOOTH",
"317 230 OFFCURVE",
"347 234 OFFCURVE",
"371 242 CURVE",
"366 266 LINE",
"344 258 OFFCURVE",
"319 254 OFFCURVE",
"292 254 CURVE SMOOTH",
"230 254 OFFCURVE",
"189 275 OFFCURVE",
"189 321 CURVE SMOOTH",
"189 371 OFFCURVE",
"237 393 OFFCURVE",
"311 393 CURVE SMOOTH",
"425 393 OFFCURVE",
"504 341 OFFCURVE",
"504 232 CURVE SMOOTH",
"504 101 OFFCURVE",
"390 8 OFFCURVE",
"204 8 CURVE SMOOTH",
"114 8 OFFCURVE",
"47 29 OFFCURVE",
"47 83 CURVE SMOOTH",
"47 134 OFFCURVE",
"91 155 OFFCURVE",
"159 155 CURVE SMOOTH",
"282 155 OFFCURVE",
"347 96 OFFCURVE",
"411 51 CURVE SMOOTH",
"461 16 OFFCURVE",
"522 -21 OFFCURVE",
"621 -21 CURVE SMOOTH",
"680 -21 OFFCURVE",
"725 -8 OFFCURVE",
"757 11 CURVE",
"751 30 LINE",
"726 15 OFFCURVE",
"678 4 OFFCURVE",
"622 4 CURVE SMOOTH",
"528 4 OFFCURVE",
"474 34 OFFCURVE",
"429 65 CURVE SMOOTH",
"354 117 OFFCURVE",
"288 177 OFFCURVE",
"160 177 CURVE SMOOTH",
"66 177 OFFCURVE",
"25 138 OFFCURVE",
"25 83 CURVE SMOOTH",
"25 7 OFFCURVE",
"111 -17 OFFCURVE",
"204 -17 CURVE SMOOTH",
"397 -17 OFFCURVE",
"526 92 OFFCURVE",
"526 233 CURVE SMOOTH",
"526 348 OFFCURVE",
"439 417 OFFCURVE",
"313 417 CURVE SMOOTH",
"227 417 OFFCURVE",
"167 385 OFFCURVE",
"167 322 CURVE SMOOTH"
);
},
{
closed = 0;
nodes = (
"622 -21 LINE SMOOTH"
);
}
);
};
guideLines = (
{
angle = -34.992;
position = "{429, 64}";
},
{
angle = -62.3992;
position = "{739, 33}";
showMeasurement = 1;
}
);
layerId = "034236B8-3FA8-43DA-9EDA-EFF269A687EC";
name = Light;
paths = (
{
closed = 1;
nodes = (
"162 261 OFFCURVE",
"216 230 OFFCURVE",
"286 230 CURVE SMOOTH",
"312 230 OFFCURVE",
"342 234 OFFCURVE",
"366 242 CURVE",
"361 266 LINE",
"339 258 OFFCURVE",
"314 254 OFFCURVE",
"287 254 CURVE SMOOTH",
"225 254 OFFCURVE",
"184 275 OFFCURVE",
"184 321 CURVE SMOOTH",
"184 371 OFFCURVE",
"232 393 OFFCURVE",
"306 393 CURVE SMOOTH",
"420 393 OFFCURVE",
"499 341 OFFCURVE",
"499 232 CURVE SMOOTH",
"499 101 OFFCURVE",
"386 8 OFFCURVE",
"197 8 CURVE SMOOTH",
"109 8 OFFCURVE",
"42 28 OFFCURVE",
"42 86 CURVE SMOOTH",
"42 133 OFFCURVE",
"86 155 OFFCURVE",
"157 155 CURVE SMOOTH",
"273 155 OFFCURVE",
"342 97 OFFCURVE",
"406 51 CURVE SMOOTH",
"458 14 OFFCURVE",
"520 -21 OFFCURVE",
"616 -21 CURVE SMOOTH",
"676 -21 OFFCURVE",
"721 -9 OFFCURVE",
"754 9 CURVE",
"746 30 LINE",
"721 15 OFFCURVE",
"673 4 OFFCURVE",
"617 4 CURVE SMOOTH",
"523 4 OFFCURVE",
"469 34 OFFCURVE",
"424 65 CURVE SMOOTH",
"356 112 OFFCURVE",
"284 177 OFFCURVE",
"158 177 CURVE SMOOTH",
"60 177 OFFCURVE",
"20 138 OFFCURVE",
"20 85 CURVE SMOOTH",
"20 7 OFFCURVE",
"105 -17 OFFCURVE",
"197 -17 CURVE SMOOTH",
"393 -17 OFFCURVE",
"521 92 OFFCURVE",
"521 233 CURVE SMOOTH",
"521 348 OFFCURVE",
"434 417 OFFCURVE",
"308 417 CURVE SMOOTH",
"222 417 OFFCURVE",
"162 385 OFFCURVE",
"162 322 CURVE SMOOTH"
);
},
{
closed = 0;
nodes = (
"617 -21 LINE SMOOTH"
);
}
);
width = 677;
}
);
unicode = 0CE9;
},
{
glyphname = knFour;
lastChange = "2015-09-28 22:19:15 +0000";
layers = (
{
background = {
guideLines = (
{
position = "{199, 264}";
},
{
angle = 90;
position = "{37, 301}";
},
{
angle = 90;
position = "{334, 342}";
}
);
paths = (
{
closed = 1;
nodes = (
"647 398 LINE",
"686 378 OFFCURVE",
"710 353 OFFCURVE",
"710 312 CURVE SMOOTH",
"710 271 OFFCURVE",
"697 240 OFFCURVE",
"647 216 CURVE SMOOTH",
"612 199 OFFCURVE",
"559 184 OFFCURVE",
"504 174 CURVE SMOOTH",
"426 160 OFFCURVE",
"346 143 OFFCURVE",
"306 122 CURVE SMOOTH",
"274 105 OFFCURVE",
"255 82 OFFCURVE",
"255 49 CURVE SMOOTH",
"255 -7 OFFCURVE",
"307 -34 OFFCURVE",
"404 -34 CURVE SMOOTH",
"507 -34 OFFCURVE",
"557 -4 OFFCURVE",
"557 51 CURVE SMOOTH",
"557 143 OFFCURVE",
"425 150 OFFCURVE",
"289 177 CURVE SMOOTH",
"159 202 OFFCURVE",
"80 229 OFFCURVE",
"80 305 CURVE SMOOTH",
"80 366 OFFCURVE",
"135 392 OFFCURVE",
"208 392 CURVE SMOOTH",
"272 392 OFFCURVE",
"308 375 OFFCURVE",
"308 342 CURVE SMOOTH",
"308 307 OFFCURVE",
"265 288 OFFCURVE",
"212 288 CURVE SMOOTH",
"189 288 OFFCURVE",
"173 290 OFFCURVE",
"149 297 CURVE",
"146 273 LINE",
"166 267 OFFCURVE",
"186 264 OFFCURVE",
"212 264 CURVE SMOOTH",
"276 264 OFFCURVE",
"330 292 OFFCURVE",
"330 342 CURVE SMOOTH",
"330 389 OFFCURVE",
"284 417 OFFCURVE",
"207 417 CURVE SMOOTH",
"128 417 OFFCURVE",
"58 382 OFFCURVE",
"58 302 CURVE SMOOTH",
"58 214 OFFCURVE",
"142 183 OFFCURVE",
"267 157 CURVE SMOOTH",
"434 122 OFFCURVE",
"534 119 OFFCURVE",
"534 51 CURVE SMOOTH",
"534 9 OFFCURVE",
"491 -9 OFFCURVE",
"403 -9 CURVE SMOOTH",
"322 -9 OFFCURVE",
"277 7 OFFCURVE",
"277 50 CURVE SMOOTH",
"277 72 OFFCURVE",
"285 87 OFFCURVE",
"313 102 CURVE SMOOTH",
"362 128 OFFCURVE",
"434 138 OFFCURVE",
"506 152 CURVE SMOOTH",
"561 163 OFFCURVE",
"616 176 OFFCURVE",
"659 198 CURVE SMOOTH",
"718 227 OFFCURVE",
"732 265 OFFCURVE",
"732 313 CURVE SMOOTH",
"732 363 OFFCURVE",
"705 392 OFFCURVE",
"659 417 CURVE"
);
}
);
};
guideLines = (
{
angle = 193.671;
position = "{538, 160}";
}
);
layerId = "034236B8-3FA8-43DA-9EDA-EFF269A687EC";
name = Light;
paths = (
{
closed = 1;
nodes = (
"649 398 LINE",
"695 374 OFFCURVE",
"712 350 OFFCURVE",
"712 309 CURVE SMOOTH",
"712 265 OFFCURVE",
"693 238 OFFCURVE",
"649 216 CURVE SMOOTH",
"616 200 OFFCURVE",
"570 186 OFFCURVE",
"506 174 CURVE SMOOTH",
"431 160 OFFCURVE",
"352 145 OFFCURVE",
"308 122 CURVE SMOOTH",
"276 105 OFFCURVE",
"257 82 OFFCURVE",
"257 48 CURVE SMOOTH",
"257 -7 OFFCURVE",
"309 -34 OFFCURVE",
"406 -34 CURVE SMOOTH",
"509 -34 OFFCURVE",
"559 -4 OFFCURVE",
"559 52 CURVE SMOOTH",
"559 139 OFFCURVE",
"439 149 OFFCURVE",
"291 177 CURVE SMOOTH",
"160 202 OFFCURVE",
"82 230 OFFCURVE",
"82 304 CURVE SMOOTH",
"82 366 OFFCURVE",
"136 392 OFFCURVE",
"212 392 CURVE SMOOTH",
"273 392 OFFCURVE",
"310 375 OFFCURVE",
"310 342 CURVE SMOOTH",
"310 307 OFFCURVE",
"268 288 OFFCURVE",
"211 288 CURVE SMOOTH",
"192 288 OFFCURVE",
"175 290 OFFCURVE",
"151 297 CURVE",
"148 273 LINE",
"168 267 OFFCURVE",
"189 264 OFFCURVE",
"211 264 CURVE SMOOTH",
"279 264 OFFCURVE",
"332 292 OFFCURVE",
"332 342 CURVE SMOOTH",
"332 389 OFFCURVE",
"285 417 OFFCURVE",
"211 417 CURVE SMOOTH",
"129 417 OFFCURVE",
"60 382 OFFCURVE",
"60 302 CURVE SMOOTH",
"60 212 OFFCURVE",
"147 183 OFFCURVE",
"269 157 CURVE SMOOTH",
"429 123 OFFCURVE",
"536 120 OFFCURVE",
"536 52 CURVE SMOOTH",
"536 9 OFFCURVE",
"494 -9 OFFCURVE",
"405 -9 CURVE SMOOTH",
"322 -9 OFFCURVE",
"279 7 OFFCURVE",
"279 52 CURVE SMOOTH",
"279 71 OFFCURVE",
"287 87 OFFCURVE",
"315 102 CURVE SMOOTH",
"362 128 OFFCURVE",
"456 142 OFFCURVE",
"508 152 CURVE SMOOTH",
"563 163 OFFCURVE",
"618 176 OFFCURVE",
"661 198 CURVE SMOOTH",
"718 227 OFFCURVE",
"734 263 OFFCURVE",
"734 308 CURVE SMOOTH",
"734 365 OFFCURVE",
"709 390 OFFCURVE",
"662 417 CURVE"
);
}
);
width = 794;
}
);
unicode = 0CEA;
},
{
glyphname = knFive;
lastChange = "2015-09-28 22:19:15 +0000";
layers = (
{
background = {
guideLines = (
{
angle = 90;
position = "{35, 71}";
},
{
position = "{338, 195}";
}
);
paths = (
{
closed = 1;
nodes = (
"301 396 OFFCURVE",
"356 334 OFFCURVE",
"356 209 CURVE SMOOTH",
"356 58 OFFCURVE",
"262 3 OFFCURVE",
"170 3 CURVE SMOOTH",
"102 3 OFFCURVE",
"68 33 OFFCURVE",
"68 82 CURVE SMOOTH",
"68 161 OFFCURVE",
"156 169 OFFCURVE",
"257 174 CURVE SMOOTH",
"322 177 OFFCURVE",
"407 180 OFFCURVE",
"439 182 CURVE SMOOTH",
"583 189 OFFCURVE",
"681 212 OFFCURVE",
"681 316 CURVE SMOOTH",
"681 377 OFFCURVE",
"647 417 OFFCURVE",
"583 417 CURVE SMOOTH",
"519 417 OFFCURVE",
"479 378 OFFCURVE",
"479 302 CURVE SMOOTH",
"479 204 OFFCURVE",
"546 176 OFFCURVE",
"546 60 CURVE SMOOTH",
"546 36 OFFCURVE",
"543 22 OFFCURVE",
"535 0 CURVE",
"560 -4 LINE",
"567 18 OFFCURVE",
"570 36 OFFCURVE",
"570 62 CURVE SMOOTH",
"570 187 OFFCURVE",
"501 207 OFFCURVE",
"501 302 CURVE SMOOTH",
"501 366 OFFCURVE",
"532 393 OFFCURVE",
"581 393 CURVE SMOOTH",
"630 393 OFFCURVE",
"658 365 OFFCURVE",
"658 316 CURVE SMOOTH",
"658 228 OFFCURVE",
"568 211 OFFCURVE",
"451 205 CURVE SMOOTH",
"411 203 OFFCURVE",
"410 203 OFFCURVE",
"272 198 CURVE SMOOTH",
"151 193 OFFCURVE",
"45 183 OFFCURVE",
"45 83 CURVE SMOOTH",
"45 20 OFFCURVE",
"86 -21 OFFCURVE",
"168 -21 CURVE SMOOTH",
"282 -21 OFFCURVE",
"376 58 OFFCURVE",
"378 212 CURVE SMOOTH",
"379 339 OFFCURVE",
"318 417 OFFCURVE",
"191 417 CURVE SMOOTH",
"124 417 OFFCURVE",
"78 391 OFFCURVE",
"78 341 CURVE SMOOTH",
"78 290 OFFCURVE",
"122 265 OFFCURVE",
"178 265 CURVE SMOOTH",
"199 265 OFFCURVE",
"223 268 OFFCURVE",
"243 274 CURVE",
"239 296 LINE",
"222 289 OFFCURVE",
"201 285 OFFCURVE",
"178 285 CURVE SMOOTH",
"131 285 OFFCURVE",
"98 301 OFFCURVE",
"98 341 CURVE SMOOTH",
"98 379 OFFCURVE",
"133 396 OFFCURVE",
"189 396 CURVE SMOOTH"
);
},
{
closed = 0;
nodes = (
"560 -4 LINE"
);
}
);
};
guideLines = (
{
angle = 106.699;
position = "{247, 256}";
showMeasurement = 1;
},
{
angle = 90;
position = "{78, 329}";
},
{
position = "{194, 265}";
}
);
layerId = "034236B8-3FA8-43DA-9EDA-EFF269A687EC";
name = Light;
paths = (
{
closed = 1;
nodes = (
"300 393 OFFCURVE",
"356 334 OFFCURVE",
"356 213 CURVE SMOOTH",
"356 56 OFFCURVE",
"262 3 OFFCURVE",
"172 3 CURVE SMOOTH",
"102 3 OFFCURVE",
"68 33 OFFCURVE",
"68 80 CURVE SMOOTH",
"68 161 OFFCURVE",
"156 169 OFFCURVE",
"257 174 CURVE SMOOTH",
"310 177 OFFCURVE",
"389 179 OFFCURVE",
"439 182 CURVE SMOOTH",
"577 190 OFFCURVE",
"681 208 OFFCURVE",
"681 316 CURVE SMOOTH",
"681 377 OFFCURVE",
"647 417 OFFCURVE",
"583 417 CURVE SMOOTH",
"514 417 OFFCURVE",
"475 372 OFFCURVE",
"475 312 CURVE SMOOTH",
"475 200 OFFCURVE",
"574 168 OFFCURVE",
"574 60 CURVE SMOOTH",
"574 42 OFFCURVE",
"570 27 OFFCURVE",
"558 3 CURVE",
"582 -4 LINE",
"594 22 OFFCURVE",
"598 41 OFFCURVE",
"598 62 CURVE SMOOTH",
"598 179 OFFCURVE",
"497 203 OFFCURVE",
"497 310 CURVE SMOOTH",
"497 361 OFFCURVE",
"527 393 OFFCURVE",
"581 393 CURVE SMOOTH",
"630 393 OFFCURVE",
"658 365 OFFCURVE",
"658 314 CURVE SMOOTH",
"658 228 OFFCURVE",
"568 211 OFFCURVE",
"451 205 CURVE SMOOTH",
"401 202 OFFCURVE",
"433 204 OFFCURVE",
"272 198 CURVE SMOOTH",
"151 193 OFFCURVE",
"45 183 OFFCURVE",
"45 77 CURVE SMOOTH",
"45 20 OFFCURVE",
"86 -21 OFFCURVE",
"168 -21 CURVE SMOOTH",
"282 -21 OFFCURVE",
"376 58 OFFCURVE",
"378 212 CURVE SMOOTH",
"380 334 OFFCURVE",
"321 417 OFFCURVE",
"195 417 CURVE SMOOTH",
"124 417 OFFCURVE",
"78 391 OFFCURVE",
"78 340 CURVE SMOOTH",
"78 290 OFFCURVE",
"122 265 OFFCURVE",
"179 265 CURVE SMOOTH",
"199 265 OFFCURVE",
"223 268 OFFCURVE",
"243 274 CURVE",
"239 298 LINE",
"222 292 OFFCURVE",
"201 289 OFFCURVE",
"179 289 CURVE SMOOTH",
"132 289 OFFCURVE",
"100 303 OFFCURVE",
"100 340 CURVE SMOOTH",
"100 377 OFFCURVE",
"133 393 OFFCURVE",
"190 393 CURVE SMOOTH"
);
},
{
closed = 0;
nodes = (
"582 -4 LINE"
);
}
);
width = 731;
}
);
unicode = 0CEB;
},
{
glyphname = knSix;
lastChange = "2015-09-28 22:19:15 +0000";
layers = (
{
background = {
paths = (
{
closed = 1;
nodes = (
"197 190 OFFCURVE",
"242 167 OFFCURVE",
"323 167 CURVE SMOOTH",
"404 167 OFFCURVE",
"448 189 OFFCURVE",
"448 236 CURVE SMOOTH",
"448 289 OFFCURVE",
"394 308 OFFCURVE",
"304 308 CURVE SMOOTH",
"183 308 OFFCURVE",
"97 274 OFFCURVE",
"97 166 CURVE SMOOTH",
"97 74 OFFCURVE",
"161 24 OFFCURVE",
"293 24 CURVE SMOOTH",
"613 24 LINE",
"613 0 LINE",
"297 0 LINE SMOOTH",
"145 0 OFFCURVE",
"75 65 OFFCURVE",
"75 166 CURVE SMOOTH",
"75 280 OFFCURVE",
"166 332 OFFCURVE",
"303 332 CURVE SMOOTH",
"409 332 OFFCURVE",
"470 301 OFFCURVE",
"470 237 CURVE SMOOTH",
"470 175 OFFCURVE",
"412 142 OFFCURVE",
"323 142 CURVE SMOOTH",
"236 142 OFFCURVE",
"175 175 OFFCURVE",
"175 246 CURVE SMOOTH",
"175 296 OFFCURVE",
"205 323 OFFCURVE",
"205 364 CURVE SMOOTH",
"205 401 OFFCURVE",
"184 417 OFFCURVE",
"144 417 CURVE SMOOTH",
"120 417 OFFCURVE",
"97 411 OFFCURVE",
"81 404 CURVE",
"75 426 LINE",
"95 434 OFFCURVE",
"120 440 OFFCURVE",
"144 440 CURVE SMOOTH",
"196 440 OFFCURVE",
"227 413 OFFCURVE",
"227 365 CURVE SMOOTH",
"227 321 OFFCURVE",
"197 296 OFFCURVE",
"197 248 CURVE SMOOTH"
);
}
);
};
layerId = "034236B8-3FA8-43DA-9EDA-EFF269A687EC";
name = Light;
paths = (
{
closed = 1;
nodes = (
"183 190 OFFCURVE",
"227 167 OFFCURVE",
"309 167 CURVE SMOOTH",
"390 167 OFFCURVE",
"434 189 OFFCURVE",
"434 236 CURVE SMOOTH",
"434 289 OFFCURVE",
"380 308 OFFCURVE",
"290 308 CURVE SMOOTH",
"171 308 OFFCURVE",
"83 274 OFFCURVE",
"83 166 CURVE SMOOTH",
"83 74 OFFCURVE",
"147 24 OFFCURVE",
"279 24 CURVE SMOOTH",
"599 24 LINE",
"599 0 LINE",
"283 0 LINE SMOOTH",
"131 0 OFFCURVE",
"61 65 OFFCURVE",
"61 165 CURVE SMOOTH",
"61 281 OFFCURVE",
"155 332 OFFCURVE",
"290 332 CURVE SMOOTH",
"395 332 OFFCURVE",
"456 301 OFFCURVE",
"456 237 CURVE SMOOTH",
"456 175 OFFCURVE",
"398 142 OFFCURVE",
"310 142 CURVE SMOOTH",
"222 142 OFFCURVE",
"161 175 OFFCURVE",
"161 246 CURVE SMOOTH",
"161 296 OFFCURVE",
"191 322 OFFCURVE",
"191 365 CURVE SMOOTH",
"191 401 OFFCURVE",
"169 417 OFFCURVE",
"130 417 CURVE SMOOTH",
"106 417 OFFCURVE",
"83 411 OFFCURVE",
"67 404 CURVE",
"61 426 LINE",
"81 434 OFFCURVE",
"106 440 OFFCURVE",
"130 440 CURVE SMOOTH",
"183 440 OFFCURVE",
"213 412 OFFCURVE",
"213 366 CURVE SMOOTH",
"213 320 OFFCURVE",
"183 296 OFFCURVE",
"183 248 CURVE SMOOTH"
);
}
);
width = 589;
}
);
unicode = 0CEC;
},
{
glyphname = knSeven;
lastChange = "2015-09-28 22:19:15 +0000";
layers = (
{
background = {
guideLines = (
{
angle = 104.444;
position = "{224, 216}";
showMeasurement = 1;
}
);
paths = (
{
closed = 1;
nodes = (
"296 247 OFFCURVE",
"343 271 OFFCURVE",
"343 340 CURVE SMOOTH",
"343 398 OFFCURVE",
"308 438 OFFCURVE",
"233 438 CURVE SMOOTH",
"165 438 OFFCURVE",
"112 405 OFFCURVE",
"112 336 CURVE SMOOTH",
"112 320 OFFCURVE",
"115 304 OFFCURVE",
"119 292 CURVE",
"142 290 LINE",
"137 305 OFFCURVE",
"134 321 OFFCURVE",
"134 336 CURVE SMOOTH",
"134 391 OFFCURVE",
"170 414 OFFCURVE",
"231 414 CURVE SMOOTH",
"297 414 OFFCURVE",
"321 385 OFFCURVE",
"321 341 CURVE SMOOTH",
"321 278 OFFCURVE",
"275 264 OFFCURVE",
"209 247 CURVE SMOOTH",
"136 227 OFFCURVE",
"65 207 OFFCURVE",
"65 124 CURVE SMOOTH",
"65 31 OFFCURVE",
"154 0 OFFCURVE",
"266 0 CURVE",
"671 0 LINE",
"671 24 LINE",
"269 24 LINE SMOOTH",
"162 24 OFFCURVE",
"87 52 OFFCURVE",
"87 125 CURVE SMOOTH",
"87 191 OFFCURVE",
"152 209 OFFCURVE",
"227 229 CURVE SMOOTH"
);
}
);
};
guideLines = (
{
angle = 90;
position = "{671, 103}";
},
{
angle = 90;
position = "{372, 317}";
}
);
layerId = "034236B8-3FA8-43DA-9EDA-EFF269A687EC";
name = Light;
paths = (
{
closed = 1;
nodes = (
"294 235 OFFCURVE",
"343 258 OFFCURVE",
"343 324 CURVE SMOOTH",
"343 379 OFFCURVE",
"308 417 OFFCURVE",
"233 417 CURVE SMOOTH",
"165 417 OFFCURVE",
"112 386 OFFCURVE",
"112 320 CURVE SMOOTH",
"112 305 OFFCURVE",
"115 289 OFFCURVE",
"119 278 CURVE",
"142 276 LINE",
"137 290 OFFCURVE",
"134 306 OFFCURVE",
"134 320 CURVE SMOOTH",
"134 372 OFFCURVE",
"170 393 OFFCURVE",
"231 393 CURVE SMOOTH",
"297 393 OFFCURVE",
"321 366 OFFCURVE",
"321 325 CURVE SMOOTH",
"321 265 OFFCURVE",
"273 253 OFFCURVE",
"208 236 CURVE SMOOTH",
"135 217 OFFCURVE",
"65 197 OFFCURVE",
"65 114 CURVE SMOOTH",
"65 26 OFFCURVE",
"150 0 OFFCURVE",
"256 0 CURVE SMOOTH",
"671 0 LINE",
"671 23 LINE",
"259 23 LINE SMOOTH",
"158 23 OFFCURVE",
"87 46 OFFCURVE",
"87 115 CURVE SMOOTH",
"87 182 OFFCURVE",
"152 199 OFFCURVE",
"227 218 CURVE SMOOTH"
);
}
);
width = 671;
}
);
unicode = 0CED;
},
{
glyphname = knEight;
lastChange = "2015-09-28 22:19:15 +0000";
layers = (
{
background = {
paths = (
{
closed = 1;
nodes = (
"684 285 OFFCURVE",
"800 300 OFFCURVE",
"800 160 CURVE SMOOTH",
"800 57 OFFCURVE",
"702 -21 OFFCURVE",
"475 -21 CURVE SMOOTH",
"268 -21 OFFCURVE",
"76 47 OFFCURVE",
"76 220 CURVE SMOOTH",
"76 328 OFFCURVE",
"156 417 OFFCURVE",
"282 417 CURVE SMOOTH",
"359 417 OFFCURVE",
"418 386 OFFCURVE",
"418 323 CURVE SMOOTH",
"418 261 OFFCURVE",
"359 227 OFFCURVE",
"276 227 CURVE SMOOTH",
"221 227 OFFCURVE",
"152 242 OFFCURVE",
"96 286 CURVE",
"106 302 LINE",
"152 266 OFFCURVE",
"220 252 OFFCURVE",
"277 252 CURVE SMOOTH",
"341 252 OFFCURVE",
"397 268 OFFCURVE",
"397 323 CURVE SMOOTH",
"397 371 OFFCURVE",
"352 393 OFFCURVE",
"284 393 CURVE SMOOTH",
"150 393 OFFCURVE",
"98 304 OFFCURVE",
"98 222 CURVE SMOOTH",
"98 68 OFFCURVE",
"270 4 OFFCURVE",
"475 4 CURVE SMOOTH",
"693 4 OFFCURVE",
"780 76 OFFCURVE",
"780 160 CURVE SMOOTH",
"780 293 OFFCURVE",
"663 261 OFFCURVE",
"663 352 CURVE SMOOTH",
"663 383 OFFCURVE",
"682 405 OFFCURVE",
"730 405 CURVE SMOOTH",
"864 405 LINE",
"864 381 LINE",
"728 381 LINE SMOOTH",
"694 381 OFFCURVE",
"684 371 OFFCURVE",
"684 350 CURVE SMOOTH"
);
}
);
};
layerId = "034236B8-3FA8-43DA-9EDA-EFF269A687EC";
name = Light;
paths = (
{
closed = 1;
nodes = (
"666 288 OFFCURVE",
"800 310 OFFCURVE",
"800 164 CURVE SMOOTH",
"800 57 OFFCURVE",
"702 -21 OFFCURVE",
"475 -21 CURVE SMOOTH",
"268 -21 OFFCURVE",
"76 47 OFFCURVE",
"76 220 CURVE SMOOTH",
"76 328 OFFCURVE",
"156 417 OFFCURVE",
"282 417 CURVE SMOOTH",
"359 417 OFFCURVE",
"418 386 OFFCURVE",
"418 323 CURVE SMOOTH",
"418 261 OFFCURVE",
"359 227 OFFCURVE",
"276 227 CURVE SMOOTH",
"221 227 OFFCURVE",
"152 242 OFFCURVE",
"96 286 CURVE",
"106 302 LINE",
"152 266 OFFCURVE",
"220 252 OFFCURVE",
"277 252 CURVE SMOOTH",
"341 252 OFFCURVE",
"397 268 OFFCURVE",
"397 323 CURVE SMOOTH",
"397 371 OFFCURVE",
"352 393 OFFCURVE",
"284 393 CURVE SMOOTH",
"150 393 OFFCURVE",
"98 304 OFFCURVE",
"98 222 CURVE SMOOTH",
"98 68 OFFCURVE",
"270 4 OFFCURVE",
"475 4 CURVE",
"693 4 OFFCURVE",
"780 76 OFFCURVE",
"780 164 CURVE SMOOTH",
"780 302 OFFCURVE",
"645 266 OFFCURVE",
"645 352 CURVE SMOOTH",
"645 383 OFFCURVE",
"672 405 OFFCURVE",
"720 405 CURVE SMOOTH",
"864 405 LINE",
"864 381 LINE",
"718 381 LINE SMOOTH",
"684 381 OFFCURVE",
"666 371 OFFCURVE",
"666 350 CURVE SMOOTH"
);
}
);
width = 905;
}
);
unicode = 0CEE;
},
{
glyphname = knNine;
lastChange = "2015-09-28 22:19:15 +0000";
layers = (
{
background = {
paths = (
{
closed = 1;
nodes = (
"151 17 OFFCURVE",
"239 -34 OFFCURVE",
"367 -34 CURVE",
"370 -9 LINE",
"244 -9 OFFCURVE",
"171 35 OFFCURVE",
"171 129 CURVE SMOOTH",
"171 240 OFFCURVE",
"273 258 OFFCURVE",
"348 258 CURVE SMOOTH",
"424 258 OFFCURVE",
"484 240 OFFCURVE",
"484 188 CURVE SMOOTH",
"484 135 OFFCURVE",
"421 117 OFFCURVE",
"324 117 CURVE SMOOTH",
"183 117 OFFCURVE",
"82 155 OFFCURVE",
"82 263 CURVE SMOOTH",
"82 329 OFFCURVE",
"119 381 OFFCURVE",
"235 381 CURVE SMOOTH",
"642 381 LINE",
"642 405 LINE",
"236 405 LINE SMOOTH",
"117 405 OFFCURVE",
"60 351 OFFCURVE",
"60 265 CURVE SMOOTH",
"60 134 OFFCURVE",
"192 92 OFFCURVE",
"326 92 CURVE SMOOTH",
"441 92 OFFCURVE",
"506 123 OFFCURVE",
"506 186 CURVE SMOOTH",
"506 248 OFFCURVE",
"445 282 OFFCURVE",
"351 282 CURVE SMOOTH",
"286 282 OFFCURVE",
"151 266 OFFCURVE",
"151 131 CURVE SMOOTH"
);
}
);
};
guideLines = (
{
angle = 90;
position = "{506, 251}";
},
{
position = "{25, 198}";
},
{
angle = 90;
position = "{151, 251}";
},
{
angle = 90;
position = "{326, 251}";
}
);
layerId = "034236B8-3FA8-43DA-9EDA-EFF269A687EC";
name = Light;
paths = (
{
closed = 1;
nodes = (
"151 18 OFFCURVE",
"239 -34 OFFCURVE",
"367 -34 CURVE",
"370 -9 LINE",
"244 -9 OFFCURVE",
"171 35 OFFCURVE",
"171 129 CURVE SMOOTH",
"171 240 OFFCURVE",
"273 258 OFFCURVE",
"348 258 CURVE SMOOTH",
"424 258 OFFCURVE",
"484 240 OFFCURVE",
"484 188 CURVE SMOOTH",
"484 135 OFFCURVE",
"421 117 OFFCURVE",
"324 117 CURVE SMOOTH",
"183 117 OFFCURVE",
"82 155 OFFCURVE",
"82 263 CURVE SMOOTH",
"82 329 OFFCURVE",
"119 381 OFFCURVE",
"235 381 CURVE SMOOTH",
"642 381 LINE",
"642 405 LINE",
"236 405 LINE SMOOTH",
"117 405 OFFCURVE",
"60 351 OFFCURVE",
"60 265 CURVE SMOOTH",
"60 134 OFFCURVE",
"192 92 OFFCURVE",
"326 92 CURVE SMOOTH",
"441 92 OFFCURVE",
"506 123 OFFCURVE",
"506 186 CURVE SMOOTH",
"506 248 OFFCURVE",
"445 282 OFFCURVE",
"350 282 CURVE SMOOTH",
"284 282 OFFCURVE",
"151 266 OFFCURVE",
"151 129 CURVE SMOOTH"
);
}
);
width = 622;
}
);
unicode = 0CEF;
},
{
glyphname = .notdef;
lastChange = "2015-09-28 22:19:15 +0000";
layers = (
{
layerId = "034236B8-3FA8-43DA-9EDA-EFF269A687EC";
name = Light;
paths = (
{
closed = 1;
nodes = (
"570 0 LINE",
"570 701 LINE",
"180 701 LINE",
"180 0 LINE"
);
},
{
closed = 1;
nodes = (
"234 651 LINE",
"516 651 LINE",
"516 50 LINE",
"234 50 LINE"
);
}
);
width = 750;
}
);
},
{
glyphname = indianrupee;
lastChange = "2015-09-28 22:19:15 +0000";
layers = (
{
layerId = "034236B8-3FA8-43DA-9EDA-EFF269A687EC";
name = Light;
paths = (
{
closed = 1;
nodes = (
"166 264 LINE SMOOTH",
"306 264 OFFCURVE",
"394 343 OFFCURVE",
"394 458 CURVE SMOOTH",
"394 582 OFFCURVE",
"328 652 OFFCURVE",
"159 652 CURVE SMOOTH",
"67 652 LINE",
"67 617 LINE",
"166 617 LINE SMOOTH",
"280 617 OFFCURVE",
"332 554 OFFCURVE",
"332 458 CURVE SMOOTH",
"332 371 OFFCURVE",
"275 319 OFFCURVE",
"166 319 CURVE SMOOTH",
"65 319 LINE",
"65 264 LINE"
);
},
{
closed = 1;
nodes = (
"346 0 LINE",
"138 264 LINE",
"65 264 LINE",
"269 0 LINE"
);
},
{
closed = 1;
nodes = (
"486 445 LINE",
"486 502 LINE",
"65 502 LINE",
"65 445 LINE"
);
},
{
closed = 1;
nodes = (
"486 617 LINE",
"486 674 LINE",
"65 674 LINE",
"65 617 LINE"
);
}
);
width = 536;
}
);
},
{
glyphname = zerowidthnonjoiner;
lastChange = "2015-09-28 22:19:15 +0000";
layers = (
{
layerId = "034236B8-3FA8-43DA-9EDA-EFF269A687EC";
name = Light;
paths = (
{
closed = 1;
nodes = (
"24 -230 LINE",
"24 811 LINE",
"-23 811 LINE",
"-23 -230 LINE"
);
}
);
width = 0;
}
);
unicode = 200C;
},
{
glyphname = zerowidthjoiner;
lastChange = "2015-09-28 22:19:15 +0000";
layers = (
{
layerId = "034236B8-3FA8-43DA-9EDA-EFF269A687EC";
name = Light;
paths = (
{
closed = 1;
nodes = (
"24 -230 LINE",
"24 635 LINE",
"96 560 LINE",
"129 593 LINE",
"33 688 LINE",
"129 784 LINE",
"97 816 LINE",
"1 721 LINE",
"-94 816 LINE",
"-127 783 LINE",
"-32 688 LINE",
"-125 595 LINE",
"-92 562 LINE",
"-23 635 LINE",
"-23 -230 LINE"
);
}
);
width = 0;
}
);
unicode = FEFF;
},
{
glyphname = dottedcircle;
lastChange = "2015-09-30 05:14:36 +0000";
layers = (
{
background = {
paths = (
{
closed = 1;
nodes = (
"351 491 OFFCURVE",
"365 505 OFFCURVE",
"365 523 CURVE SMOOTH",
"365 541 OFFCURVE",
"351 555 OFFCURVE",
"333 555 CURVE SMOOTH",
"315 555 OFFCURVE",
"301 541 OFFCURVE",
"301 523 CURVE SMOOTH",
"301 505 OFFCURVE",
"315 491 OFFCURVE",
"333 491 CURVE SMOOTH"
);
},
{
closed = 1;
nodes = (
"351 -21 OFFCURVE",
"365 -7 OFFCURVE",
"365 11 CURVE SMOOTH",
"365 29 OFFCURVE",
"351 43 OFFCURVE",
"333 43 CURVE SMOOTH",
"315 43 OFFCURVE",
"301 29 OFFCURVE",
"301 11 CURVE SMOOTH",
"301 -7 OFFCURVE",
"315 -21 OFFCURVE",
"333 -21 CURVE SMOOTH"
);
},
{
closed = 1;
nodes = (
"557 249 OFFCURVE",
"571 235 OFFCURVE",
"589 235 CURVE SMOOTH",
"607 235 OFFCURVE",
"621 249 OFFCURVE",
"621 267 CURVE SMOOTH",
"621 285 OFFCURVE",
"607 299 OFFCURVE",
"589 299 CURVE SMOOTH",
"571 299 OFFCURVE",
"557 285 OFFCURVE",
"557 267 CURVE SMOOTH"
);
},
{
closed = 1;
nodes = (
"45 249 OFFCURVE",
"59 235 OFFCURVE",
"77 235 CURVE SMOOTH",
"95 235 OFFCURVE",
"109 249 OFFCURVE",
"109 267 CURVE SMOOTH",
"109 285 OFFCURVE",
"95 299 OFFCURVE",
"77 299 CURVE SMOOTH",
"59 299 OFFCURVE",
"45 285 OFFCURVE",
"45 267 CURVE SMOOTH"
);
},
{
closed = 1;
nodes = (
"165 421 OFFCURVE",
"179 435 OFFCURVE",
"179 453 CURVE SMOOTH",
"179 471 OFFCURVE",
"165 485 OFFCURVE",
"147 485 CURVE SMOOTH",
"129 485 OFFCURVE",
"115 471 OFFCURVE",
"115 453 CURVE SMOOTH",
"115 435 OFFCURVE",
"129 421 OFFCURVE",
"147 421 CURVE SMOOTH"
);
},
{
closed = 1;
nodes = (
"165 49 OFFCURVE",
"179 63 OFFCURVE",
"179 81 CURVE SMOOTH",
"179 99 OFFCURVE",
"165 113 OFFCURVE",
"147 113 CURVE SMOOTH",
"129 113 OFFCURVE",
"115 99 OFFCURVE",
"115 81 CURVE SMOOTH",
"115 63 OFFCURVE",
"129 49 OFFCURVE",
"147 49 CURVE SMOOTH"
);
},
{
closed = 1;
nodes = (
"537 421 OFFCURVE",
"551 435 OFFCURVE",
"551 453 CURVE SMOOTH",
"551 471 OFFCURVE",
"537 485 OFFCURVE",
"519 485 CURVE SMOOTH",
"501 485 OFFCURVE",
"487 471 OFFCURVE",
"487 453 CURVE SMOOTH",
"487 435 OFFCURVE",
"501 421 OFFCURVE",
"519 421 CURVE SMOOTH"
);
},
{
closed = 1;
nodes = (
"537 49 OFFCURVE",
"551 63 OFFCURVE",
"551 81 CURVE SMOOTH",
"551 99 OFFCURVE",
"537 113 OFFCURVE",
"519 113 CURVE SMOOTH",
"501 113 OFFCURVE",
"487 99 OFFCURVE",
"487 81 CURVE SMOOTH",
"487 63 OFFCURVE",
"501 49 OFFCURVE",
"519 49 CURVE SMOOTH"
);
}
);
};
layerId = "034236B8-3FA8-43DA-9EDA-EFF269A687EC";
name = Light;
paths = (
{
closed = 1;
nodes = (
"45 248 OFFCURVE",
"64 235 OFFCURVE",
"87 235 CURVE SMOOTH",
"111 235 OFFCURVE",
"130 248 OFFCURVE",
"130 267 CURVE SMOOTH",
"130 286 OFFCURVE",
"111 299 OFFCURVE",
"87 299 CURVE SMOOTH",
"64 299 OFFCURVE",
"45 286 OFFCURVE",
"45 267 CURVE SMOOTH"
);
},
{
closed = 1;
nodes = (
"536 248 OFFCURVE",
"555 235 OFFCURVE",
"578 235 CURVE SMOOTH",
"602 235 OFFCURVE",
"621 248 OFFCURVE",
"621 267 CURVE SMOOTH",
"621 286 OFFCURVE",
"602 299 OFFCURVE",
"578 299 CURVE SMOOTH",
"555 299 OFFCURVE",
"536 286 OFFCURVE",
"536 267 CURVE SMOOTH"
);
},
{
closed = 1;
nodes = (
"314 64 OFFCURVE",
"301 45 OFFCURVE",
"301 22 CURVE SMOOTH",
"301 -2 OFFCURVE",
"314 -21 OFFCURVE",
"333 -21 CURVE SMOOTH",
"352 -21 OFFCURVE",
"365 -2 OFFCURVE",
"365 22 CURVE SMOOTH",
"365 45 OFFCURVE",
"352 64 OFFCURVE",
"333 64 CURVE SMOOTH"
);
},
{
closed = 1;
nodes = (
"314 555 OFFCURVE",
"301 536 OFFCURVE",
"301 513 CURVE SMOOTH",
"301 489 OFFCURVE",
"314 470 OFFCURVE",
"333 470 CURVE SMOOTH",
"352 470 OFFCURVE",
"365 489 OFFCURVE",
"365 513 CURVE SMOOTH",
"365 536 OFFCURVE",
"352 555 OFFCURVE",
"333 555 CURVE SMOOTH"
);
},
{
closed = 1;
nodes = (
"116 457 OFFCURVE",
"120 435 OFFCURVE",
"136 418 CURVE SMOOTH",
"153 401 OFFCURVE",
"176 397 OFFCURVE",
"189 411 CURVE SMOOTH",
"203 424 OFFCURVE",
"199 447 OFFCURVE",
"182 464 CURVE SMOOTH",
"165 480 OFFCURVE",
"143 484 OFFCURVE",
"129 471 CURVE SMOOTH"
);
},
{
closed = 1;
nodes = (
"463 110 OFFCURVE",
"467 87 OFFCURVE",
"484 71 CURVE SMOOTH",
"501 54 OFFCURVE",
"523 50 OFFCURVE",
"537 63 CURVE SMOOTH",
"550 77 OFFCURVE",
"546 99 OFFCURVE",
"529 116 CURVE SMOOTH",
"513 133 OFFCURVE",
"490 137 OFFCURVE",
"477 123 CURVE SMOOTH"
);
},
{
closed = 1;
nodes = (
"176 137 OFFCURVE",
"153 133 OFFCURVE",
"137 116 CURVE SMOOTH",
"120 99 OFFCURVE",
"116 77 OFFCURVE",
"129 63 CURVE SMOOTH",
"143 50 OFFCURVE",
"165 54 OFFCURVE",
"182 71 CURVE SMOOTH",
"199 87 OFFCURVE",
"203 110 OFFCURVE",
"189 123 CURVE SMOOTH"
);
},
{
closed = 1;
nodes = (
"523 484 OFFCURVE",
"501 480 OFFCURVE",
"484 464 CURVE SMOOTH",
"467 447 OFFCURVE",
"463 424 OFFCURVE",
"477 411 CURVE SMOOTH",
"490 397 OFFCURVE",
"513 401 OFFCURVE",
"530 418 CURVE SMOOTH",
"546 435 OFFCURVE",
"550 457 OFFCURVE",
"537 471 CURVE SMOOTH"
);
}
);
width = 666;
}
);
unicode = 25CC;
},
{
glyphname = knReph;
lastChange = "2015-09-28 22:19:15 +0000";
layers = (
{
layerId = "034236B8-3FA8-43DA-9EDA-EFF269A687EC";
name = Light;
paths = (
{
closed = 1;
nodes = (
"185 4 LINE",
"117 59 OFFCURVE",
"102 115 OFFCURVE",
"102 153 CURVE SMOOTH",
"102 209 OFFCURVE",
"143 257 OFFCURVE",
"216 257 CURVE SMOOTH",
"293 257 LINE",
"293 313 LINE",
"209 313 LINE SMOOTH",
"140 313 OFFCURVE",
"104 349 OFFCURVE",
"104 401 CURVE SMOOTH",
"104 458 OFFCURVE",
"144 490 OFFCURVE",
"209 490 CURVE SMOOTH",
"451 490 LINE",
"451 546 LINE",
"200 546 LINE SMOOTH",
"104 546 OFFCURVE",
"42 486 OFFCURVE",
"42 413 CURVE SMOOTH",
"42 348 OFFCURVE",
"76 300 OFFCURVE",
"140 283 CURVE",
"73 266 OFFCURVE",
"40 218 OFFCURVE",
"40 153 CURVE SMOOTH",
"40 103 OFFCURVE",
"62 46 OFFCURVE",
"106 0 CURVE",
"185 0 LINE"
);
}
);
width = 482;
}
);
},
{
glyphname = knKAc2;
lastChange = "2015-09-28 22:19:15 +0000";
layers = (
{
layerId = "034236B8-3FA8-43DA-9EDA-EFF269A687EC";
name = Light;
paths = (
{
closed = 1;
nodes = (
"36 -360 CURVE SMOOTH",
"116 -360 OFFCURVE",
"176 -312 OFFCURVE",
"176 -242 CURVE SMOOTH",
"176 -176 OFFCURVE",
"117 -133 OFFCURVE",
"36 -133 CURVE SMOOTH",
"-45 -133 OFFCURVE",
"-103 -178 OFFCURVE",
"-103 -247 CURVE SMOOTH",
"-103 -314 OFFCURVE",
"-43 -360 OFFCURVE"
);
},
{
closed = 1;
nodes = (
"36 -318 CURVE SMOOTH",
"-20 -318 OFFCURVE",
"-56 -291 OFFCURVE",
"-56 -242 CURVE SMOOTH",
"-56 -197 OFFCURVE",
"-17 -163 OFFCURVE",
"36 -163 CURVE SMOOTH",
"90 -163 OFFCURVE",
"128 -196 OFFCURVE",
"128 -240 CURVE SMOOTH",
"128 -290 OFFCURVE",
"91 -318 OFFCURVE"
);
},
{
closed = 1;
nodes = (
"-115 -165 LINE",
"1 -165 LINE",
"35 -154 LINE",
"74 -165 LINE",
"189 -165 LINE",
"189 -127 LINE",
"-115 -127 LINE"
);
},
{
closed = 1;
nodes = (
"55 -141 LINE",
"67 -112 OFFCURVE",
"73 -81 OFFCURVE",
"73 -50 CURVE SMOOTH",
"73 -11 OFFCURVE",
"64 26 OFFCURVE",
"44 58 CURVE",
"-2 58 LINE",
"18 26 OFFCURVE",
"27 -11 OFFCURVE",
"27 -48 CURVE SMOOTH",
"27 -81 OFFCURVE",
"20 -112 OFFCURVE",
"8 -141 CURVE"
);
}
);
width = 59;
}
);
},
{
glyphname = knKHAc2;
lastChange = "2015-09-28 22:19:15 +0000";
layers = (
{
layerId = "034236B8-3FA8-43DA-9EDA-EFF269A687EC";
name = Light;
paths = (
{
closed = 1;
nodes = (
"-1 58 LINE",
"20 2 OFFCURVE",
"30 -69 OFFCURVE",
"30 -150 CURVE SMOOTH",
"30 -256 OFFCURVE",
"-5 -318 OFFCURVE",
"-64 -318 CURVE SMOOTH",
"-145 -318 OFFCURVE",
"-198 -220 OFFCURVE",
"-280 -220 CURVE SMOOTH",
"-326 -220 OFFCURVE",
"-358 -247 OFFCURVE",
"-358 -286 CURVE SMOOTH",
"-358 -341 OFFCURVE",
"-297 -360 OFFCURVE",
"-254 -360 CURVE SMOOTH",
"-156 -360 OFFCURVE",
"-78 -285 OFFCURVE",
"-78 -186 CURVE SMOOTH",
"-78 -111 OFFCURVE",
"-125 -53 OFFCURVE",
"-192 -53 CURVE SMOOTH",
"-240 -53 OFFCURVE",
"-275 -79 OFFCURVE",
"-275 -120 CURVE SMOOTH",
"-275 -168 OFFCURVE",
"-233 -190 OFFCURVE",
"-195 -190 CURVE SMOOTH",
"-180 -190 OFFCURVE",
"-170 -188 OFFCURVE",
"-159 -184 CURVE",
"-159 -144 LINE",
"-169 -148 OFFCURVE",
"-179 -149 OFFCURVE",
"-189 -149 CURVE SMOOTH",
"-213 -149 OFFCURVE",
"-229 -140 OFFCURVE",
"-229 -122 CURVE SMOOTH",
"-229 -105 OFFCURVE",
"-214 -94 OFFCURVE",
"-191 -94 CURVE SMOOTH",
"-140 -94 OFFCURVE",
"-124 -147 OFFCURVE",
"-124 -184 CURVE SMOOTH",
"-124 -266 OFFCURVE",
"-182 -320 OFFCURVE",
"-253 -320 CURVE SMOOTH",
"-278 -320 OFFCURVE",
"-313 -315 OFFCURVE",
"-313 -286 CURVE SMOOTH",
"-313 -272 OFFCURVE",
"-300 -261 OFFCURVE",
"-280 -261 CURVE SMOOTH",
"-224 -261 OFFCURVE",
"-160 -360 OFFCURVE",
"-64 -360 CURVE SMOOTH",
"21 -360 OFFCURVE",
"75 -288 OFFCURVE",
"75 -151 CURVE SMOOTH",
"75 -71 OFFCURVE",
"65 -3 OFFCURVE",
"44 58 CURVE"
);
}
);
width = 60;
}
);
},
{
glyphname = knGAc2;
lastChange = "2015-09-28 22:19:15 +0000";
layers = (
{
layerId = "034236B8-3FA8-43DA-9EDA-EFF269A687EC";
name = Light;
paths = (
{
closed = 1;
nodes = (
"-107 -360 LINE",
"-118 -321 OFFCURVE",
"-124 -276 OFFCURVE",
"-124 -227 CURVE SMOOTH",
"-124 -146 OFFCURVE",
"-93 -95 OFFCURVE",
"-42 -95 CURVE SMOOTH",
"10 -95 OFFCURVE",
"39 -146 OFFCURVE",
"39 -227 CURVE SMOOTH",
"39 -273 OFFCURVE",
"33 -316 OFFCURVE",
"22 -360 CURVE",
"68 -360 LINE",
"80 -317 OFFCURVE",
"86 -275 OFFCURVE",
"86 -227 CURVE SMOOTH",
"86 -115 OFFCURVE",
"31 -53 OFFCURVE",
"-42 -53 CURVE SMOOTH",
"-117 -53 OFFCURVE",
"-172 -115 OFFCURVE",
"-172 -227 CURVE SMOOTH",
"-172 -277 OFFCURVE",
"-165 -320 OFFCURVE",
"-155 -360 CURVE"
);
}
);
width = 0;
}
);
},
{
glyphname = knGHAc2;
lastChange = "2015-09-28 22:19:15 +0000";
layers = (
{
layerId = "034236B8-3FA8-43DA-9EDA-EFF269A687EC";
name = Light;
paths = (
{
closed = 1;
nodes = (
"-160 -469 LINE",
"-102 -469 LINE",
"-102 -457 LINE",
"-122 -350 LINE",
"-140 -350 LINE",
"-160 -457 LINE"
);
},
{
closed = 1;
nodes = (
"-45 -360 CURVE SMOOTH",
"40 -360 OFFCURVE",
"75 -288 OFFCURVE",
"75 -151 CURVE SMOOTH",
"75 -71 OFFCURVE",
"65 -3 OFFCURVE",
"44 58 CURVE",
"-1 58 LINE",
"20 2 OFFCURVE",
"30 -69 OFFCURVE",
"30 -150 CURVE SMOOTH",
"30 -256 OFFCURVE",
"12 -318 OFFCURVE",
"-47 -318 CURVE SMOOTH",
"-87 -318 OFFCURVE",
"-109 -286 OFFCURVE",
"-109 -239 CURVE SMOOTH",
"-109 -216 LINE",
"-156 -216 LINE",
"-156 -239 LINE SMOOTH",
"-156 -287 OFFCURVE",
"-182 -318 OFFCURVE",
"-225 -318 CURVE SMOOTH",
"-269 -318 OFFCURVE",
"-297 -291 OFFCURVE",
"-297 -250 CURVE SMOOTH",
"-297 -202 OFFCURVE",
"-266 -179 OFFCURVE",
"-226 -179 CURVE SMOOTH",
"-217 -179 OFFCURVE",
"-204 -180 OFFCURVE",
"-195 -183 CURVE",
"-195 -142 LINE",
"-204 -139 OFFCURVE",
"-217 -137 OFFCURVE",
"-228 -137 CURVE SMOOTH",
"-292 -137 OFFCURVE",
"-344 -181 OFFCURVE",
"-344 -250 CURVE SMOOTH",
"-344 -315 OFFCURVE",
"-293 -360 OFFCURVE",
"-226 -360 CURVE SMOOTH",
"-183 -360 OFFCURVE",
"-145 -336 OFFCURVE",
"-132 -303 CURVE",
"-121 -335 OFFCURVE",
"-85 -360 OFFCURVE"
);
},
{
closed = 1;
nodes = (
"97 111 LINE",
"110 94 OFFCURVE",
"117 72 OFFCURVE",
"117 56 CURVE SMOOTH",
"117 32 OFFCURVE",
"106 22 OFFCURVE",
"89 22 CURVE SMOOTH",
"70 22 OFFCURVE",
"55 37 OFFCURVE",
"44 58 CURVE",
"36 36 LINE",
"51 3 OFFCURVE",
"75 -11 OFFCURVE",
"104 -11 CURVE SMOOTH",
"133 -11 OFFCURVE",
"162 8 OFFCURVE",
"162 53 CURVE SMOOTH",
"162 75 OFFCURVE",
"156 93 OFFCURVE",
"143 111 CURVE"
);
}
);
width = 177;
}
);
},
{
glyphname = knNGAc2;
lastChange = "2015-09-28 22:19:15 +0000";
layers = (
{
layerId = "034236B8-3FA8-43DA-9EDA-EFF269A687EC";
name = Light;
paths = (
{
closed = 1;
nodes = (
"-88 -141 LINE",
"-18 -86 OFFCURVE",
"20 -53 OFFCURVE",
"73 -53 CURVE SMOOTH",
"118 -53 OFFCURVE",
"146 -81 OFFCURVE",
"146 -119 CURVE SMOOTH",
"146 -129 OFFCURVE",
"144 -139 OFFCURVE",
"140 -150 CURVE",
"90 -150 LINE",
"95 -141 OFFCURVE",
"98 -130 OFFCURVE",
"98 -121 CURVE SMOOTH",
"98 -108 OFFCURVE",
"91 -94 OFFCURVE",
"69 -94 CURVE SMOOTH",
"46 -94 OFFCURVE",
"22 -108 OFFCURVE",
"-10 -131 CURVE SMOOTH",
"-127 -218 OFFCURVE",
"-166 -238 OFFCURVE",
"-166 -275 CURVE SMOOTH",
"-166 -298 OFFCURVE",
"-151 -318 OFFCURVE",
"-118 -318 CURVE SMOOTH",
"-81 -318 OFFCURVE",
"-56 -291 OFFCURVE",
"-56 -257 CURVE SMOOTH",
"-56 -237 LINE",
"-10 -237 LINE",
"-10 -257 LINE SMOOTH",
"-10 -295 OFFCURVE",
"9 -318 OFFCURVE",
"47 -318 CURVE SMOOTH",
"80 -318 OFFCURVE",
"101 -298 OFFCURVE",
"101 -266 CURVE SMOOTH",
"101 -250 OFFCURVE",
"98 -238 OFFCURVE",
"93 -228 CURVE",
"142 -228 LINE",
"146 -238 OFFCURVE",
"149 -253 OFFCURVE",
"149 -268 CURVE SMOOTH",
"149 -322 OFFCURVE",
"110 -360 OFFCURVE",
"50 -360 CURVE SMOOTH",
"3 -360 OFFCURVE",
"-31 -332 OFFCURVE",
"-36 -299 CURVE",
"-30 -300 LINE",
"-38 -334 OFFCURVE",
"-74 -360 OFFCURVE",
"-120 -360 CURVE SMOOTH",
"-173 -360 OFFCURVE",
"-213 -326 OFFCURVE",
"-213 -276 CURVE SMOOTH",
"-213 -194 OFFCURVE",
"-99 -170 OFFCURVE",
"-99 -125 CURVE SMOOTH",
"-99 -105 OFFCURVE",
"-112 -93 OFFCURVE",
"-130 -93 CURVE SMOOTH",
"-152 -93 OFFCURVE",
"-165 -108 OFFCURVE",
"-165 -130 CURVE SMOOTH",
"-165 -137 OFFCURVE",
"-164 -143 OFFCURVE",
"-161 -153 CURVE",
"-203 -153 LINE",
"-207 -144 OFFCURVE",
"-208 -133 OFFCURVE",
"-208 -125 CURVE SMOOTH",
"-208 -82 OFFCURVE",
"-176 -53 OFFCURVE",
"-130 -53 CURVE SMOOTH",
"-93 -53 OFFCURVE",
"-59 -82 OFFCURVE",
"-59 -128 CURVE"
);
},
{
closed = 1;
nodes = (
"39 -216 CURVE SMOOTH",
"57 -216 OFFCURVE",
"69 -203 OFFCURVE",
"69 -184 CURVE SMOOTH",
"69 -167 OFFCURVE",
"57 -154 OFFCURVE",
"39 -154 CURVE SMOOTH",
"21 -154 OFFCURVE",
"8 -167 OFFCURVE",
"8 -184 CURVE SMOOTH",
"8 -202 OFFCURVE",
"21 -216 OFFCURVE"
);
}
);
width = 0;
}
);
},
{
glyphname = knCAc2;
lastChange = "2015-09-28 22:19:15 +0000";
layers = (
{
layerId = "034236B8-3FA8-43DA-9EDA-EFF269A687EC";
name = Light;
paths = (
{
closed = 1;
nodes = (
"165 -193 LINE",
"165 -154 LINE",
"26 -154 LINE",
"26 -193 LINE"
);
},
{
closed = 1;
nodes = (
"-202 -153 CURVE",
"-161 -153 LINE",
"-164 -143 OFFCURVE",
"-165 -137 OFFCURVE",
"-165 -130 CURVE SMOOTH",
"-165 -108 OFFCURVE",
"-151 -92 OFFCURVE",
"-130 -92 CURVE SMOOTH",
"-112 -92 OFFCURVE",
"-99 -104 OFFCURVE",
"-99 -124 CURVE SMOOTH",
"-99 -170 OFFCURVE",
"-213 -193 OFFCURVE",
"-213 -276 CURVE SMOOTH",
"-213 -326 OFFCURVE",
"-172 -360 OFFCURVE",
"-120 -360 CURVE SMOOTH",
"-68 -360 OFFCURVE",
"-37 -330 OFFCURVE",
"-30 -300 CURVE",
"-36 -299 LINE",
"-31 -332 OFFCURVE",
"3 -360 OFFCURVE",
"51 -360 CURVE SMOOTH",
"109 -360 OFFCURVE",
"148 -321 OFFCURVE",
"148 -265 CURVE SMOOTH",
"148 -202 OFFCURVE",
"101 -171 OFFCURVE",
"46 -171 CURVE SMOOTH",
"38 -171 OFFCURVE",
"31 -172 OFFCURVE",
"26 -173 CURVE",
"26 -193 LINE",
"78 -191 OFFCURVE",
"101 -225 OFFCURVE",
"101 -261 CURVE SMOOTH",
"101 -296 OFFCURVE",
"81 -319 OFFCURVE",
"47 -319 CURVE SMOOTH",
"10 -319 OFFCURVE",
"-10 -295 OFFCURVE",
"-10 -257 CURVE SMOOTH",
"-10 -237 LINE",
"-56 -237 LINE",
"-56 -257 LINE SMOOTH",
"-56 -291 OFFCURVE",
"-81 -319 OFFCURVE",
"-117 -319 CURVE SMOOTH",
"-150 -319 OFFCURVE",
"-166 -299 OFFCURVE",
"-166 -277 CURVE SMOOTH",
"-166 -214 OFFCURVE",
"-53 -196 OFFCURVE",
"-53 -124 CURVE SMOOTH",
"-53 -80 OFFCURVE",
"-87 -53 OFFCURVE",
"-130 -53 CURVE SMOOTH",
"-176 -53 OFFCURVE",
"-207 -82 OFFCURVE",
"-207 -125 CURVE SMOOTH",
"-207 -133 OFFCURVE",
"-206 -144 OFFCURVE"
);
}
);
width = 0;
}
);
},
{
glyphname = knCHAc2;
lastChange = "2015-09-28 22:19:15 +0000";
layers = (
{
layerId = "034236B8-3FA8-43DA-9EDA-EFF269A687EC";
name = Light;
paths = (
{
closed = 1;
nodes = (
"-149 -466 LINE",
"-91 -466 LINE",
"-91 -454 LINE",
"-110 -347 LINE",
"-130 -347 LINE",
"-149 -454 LINE"
);
},
{
closed = 1;
nodes = (
"-205 -183 CURVE",
"-235 -183 OFFCURVE",
"-258 -167 OFFCURVE",
"-258 -137 CURVE SMOOTH",
"-258 -106 OFFCURVE",
"-233 -89 OFFCURVE",
"-207 -89 CURVE SMOOTH",
"-178 -89 OFFCURVE",
"-157 -107 OFFCURVE",
"-157 -134 CURVE SMOOTH",
"-157 -163 OFFCURVE",
"-176 -182 OFFCURVE"
);
},
{
closed = 1;
nodes = (
"-39 -360 CURVE SMOOTH",
"42 -360 OFFCURVE",
"75 -288 OFFCURVE",
"75 -151 CURVE SMOOTH",
"75 -82 OFFCURVE",
"66 -3 OFFCURVE",
"45 58 CURVE",
"-1 58 LINE",
"20 2 OFFCURVE",
"30 -69 OFFCURVE",
"30 -150 CURVE SMOOTH",
"30 -257 OFFCURVE",
"13 -319 OFFCURVE",
"-43 -319 CURVE SMOOTH",
"-76 -319 OFFCURVE",
"-95 -294 OFFCURVE",
"-95 -263 CURVE SMOOTH",
"-95 -247 LINE",
"-142 -247 LINE",
"-142 -262 LINE SMOOTH",
"-142 -296 OFFCURVE",
"-167 -319 OFFCURVE",
"-202 -319 CURVE SMOOTH",
"-262 -319 OFFCURVE",
"-282 -264 OFFCURVE",
"-282 -210 CURVE SMOOTH",
"-282 -182 OFFCURVE",
"-274 -152 OFFCURVE",
"-270 -136 CURVE",
"-284 -137 LINE",
"-285 -192 OFFCURVE",
"-245 -223 OFFCURVE",
"-200 -223 CURVE SMOOTH",
"-147 -223 OFFCURVE",
"-110 -189 OFFCURVE",
"-110 -135 CURVE SMOOTH",
"-110 -81 OFFCURVE",
"-152 -48 OFFCURVE",
"-205 -48 CURVE SMOOTH",
"-282 -48 OFFCURVE",
"-326 -114 OFFCURVE",
"-326 -211 CURVE SMOOTH",
"-326 -279 OFFCURVE",
"-293 -360 OFFCURVE",
"-201 -360 CURVE SMOOTH",
"-157 -360 OFFCURVE",
"-125 -336 OFFCURVE",
"-116 -295 CURVE",
"-121 -294 LINE",
"-116 -335 OFFCURVE",
"-84 -360 OFFCURVE"
);
}
);
width = 60;
}
);
},
{
glyphname = knJAc2;
lastChange = "2015-09-28 22:19:15 +0000";
layers = (
{
layerId = "034236B8-3FA8-43DA-9EDA-EFF269A687EC";
name = Light;
paths = (
{
closed = 1;
nodes = (
"-202 -151 CURVE",
"-158 -151 LINE",
"-161 -141 OFFCURVE",
"-162 -137 OFFCURVE",
"-162 -130 CURVE SMOOTH",
"-162 -106 OFFCURVE",
"-147 -91 OFFCURVE",
"-124 -91 CURVE SMOOTH",
"-101 -91 OFFCURVE",
"-88 -106 OFFCURVE",
"-88 -125 CURVE SMOOTH",
"-88 -187 OFFCURVE",
"-215 -193 OFFCURVE",
"-215 -281 CURVE SMOOTH",
"-215 -328 OFFCURVE",
"-174 -360 OFFCURVE",
"-123 -360 CURVE SMOOTH",
"-75 -360 OFFCURVE",
"-44 -338 OFFCURVE",
"-35 -300 CURVE",
"-40 -300 LINE",
"-35 -335 OFFCURVE",
"-3 -360 OFFCURVE",
"41 -360 CURVE SMOOTH",
"95 -360 OFFCURVE",
"132 -322 OFFCURVE",
"132 -270 CURVE SMOOTH",
"132 -249 OFFCURVE",
"127 -231 OFFCURVE",
"120 -216 CURVE",
"73 -216 LINE",
"84 -236 OFFCURVE",
"87 -250 OFFCURVE",
"87 -270 CURVE SMOOTH",
"87 -300 OFFCURVE",
"69 -319 OFFCURVE",
"38 -319 CURVE SMOOTH",
"3 -319 OFFCURVE",
"-15 -292 OFFCURVE",
"-15 -255 CURVE SMOOTH",
"-15 -238 LINE",
"-59 -238 LINE",
"-59 -257 LINE SMOOTH",
"-59 -293 OFFCURVE",
"-83 -319 OFFCURVE",
"-121 -319 CURVE SMOOTH",
"-151 -319 OFFCURVE",
"-169 -302 OFFCURVE",
"-169 -281 CURVE SMOOTH",
"-169 -216 OFFCURVE",
"-48 -215 OFFCURVE",
"-48 -126 CURVE",
"-61 -116 LINE",
"-42 -148 OFFCURVE",
"-8 -166 OFFCURVE",
"29 -166 CURVE SMOOTH",
"78 -166 OFFCURVE",
"114 -136 OFFCURVE",
"114 -94 CURVE SMOOTH",
"114 -81 OFFCURVE",
"112 -70 OFFCURVE",
"105 -57 CURVE",
"58 -57 LINE",
"63 -65 OFFCURVE",
"67 -78 OFFCURVE",
"67 -88 CURVE SMOOTH",
"67 -109 OFFCURVE",
"57 -125 OFFCURVE",
"27 -125 CURVE SMOOTH",
"-34 -125 OFFCURVE",
"-55 -51 OFFCURVE",
"-126 -51 CURVE SMOOTH",
"-173 -51 OFFCURVE",
"-206 -82 OFFCURVE",
"-206 -125 CURVE SMOOTH",
"-206 -133 OFFCURVE",
"-205 -142 OFFCURVE"
);
}
);
width = 0;
}
);
},
{
glyphname = knJHAc2;
lastChange = "2015-09-28 22:19:15 +0000";
layers = (
{
layerId = "034236B8-3FA8-43DA-9EDA-EFF269A687EC";
name = Light;
paths = (
{
closed = 1;
nodes = (
"-192 -361 CURVE SMOOTH",
"-119 -361 OFFCURVE",
"-67 -300 OFFCURVE",
"-67 -203 CURVE SMOOTH",
"-67 -110 OFFCURVE",
"-120 -49 OFFCURVE",
"-192 -49 CURVE SMOOTH",
"-265 -49 OFFCURVE",
"-318 -109 OFFCURVE",
"-318 -203 CURVE SMOOTH",
"-318 -301 OFFCURVE",
"-266 -361 OFFCURVE"
);
},
{
closed = 1;
nodes = (
"-98 -207 LINE",
"-98 -299 OFFCURVE",
"-64 -361 OFFCURVE",
"9 -361 CURVE SMOOTH",
"81 -361 OFFCURVE",
"127 -300 OFFCURVE",
"127 -203 CURVE SMOOTH",
"127 -109 OFFCURVE",
"72 -49 OFFCURVE",
"0 -49 CURVE",
"0 -90 LINE",
"48 -90 OFFCURVE",
"80 -130 OFFCURVE",
"80 -203 CURVE SMOOTH",
"80 -279 OFFCURVE",
"56 -320 OFFCURVE",
"9 -320 CURVE SMOOTH",
"-39 -320 OFFCURVE",
"-67 -282 OFFCURVE",
"-67 -206 CURVE"
);
},
{
closed = 1;
nodes = (
"-192 -320 CURVE SMOOTH",
"-240 -320 OFFCURVE",
"-272 -278 OFFCURVE",
"-272 -203 CURVE SMOOTH",
"-272 -131 OFFCURVE",
"-240 -90 OFFCURVE",
"-192 -90 CURVE SMOOTH",
"-144 -90 OFFCURVE",
"-113 -130 OFFCURVE",
"-113 -203 CURVE SMOOTH",
"-113 -279 OFFCURVE",
"-144 -320 OFFCURVE"
);
},
{
closed = 1;
nodes = (
"96 -207 LINE",
"96 -299 OFFCURVE",
"130 -361 OFFCURVE",
"203 -361 CURVE SMOOTH",
"275 -361 OFFCURVE",
"320 -300 OFFCURVE",
"320 -203 CURVE SMOOTH",
"320 -109 OFFCURVE",
"266 -49 OFFCURVE",
"194 -49 CURVE",
"194 -90 LINE",
"242 -90 OFFCURVE",
"274 -130 OFFCURVE",
"274 -203 CURVE SMOOTH",
"274 -279 OFFCURVE",
"250 -320 OFFCURVE",
"202 -320 CURVE SMOOTH",
"155 -320 OFFCURVE",
"127 -282 OFFCURVE",
"127 -206 CURVE"
);
},
{
closed = 1;
nodes = (
"80 -467 LINE",
"138 -467 LINE",
"138 -455 LINE",
"119 -348 LINE",
"100 -348 LINE",
"80 -455 LINE"
);
}
);
width = 0;
}
);
},
{
glyphname = knNYAc2;
lastChange = "2015-09-28 22:19:15 +0000";
layers = (
{
layerId = "034236B8-3FA8-43DA-9EDA-EFF269A687EC";
name = Light;
paths = (
{
closed = 1;
nodes = (
"93 -168 LINE",
"93 -141 OFFCURVE",
"93 -93 OFFCURVE",
"127 -93 CURVE SMOOTH",
"147 -93 OFFCURVE",
"155 -111 OFFCURVE",
"155 -129 CURVE SMOOTH",
"155 -137 OFFCURVE",
"154 -145 OFFCURVE",
"152 -151 CURVE",
"195 -151 LINE",
"198 -140 OFFCURVE",
"199 -132 OFFCURVE",
"199 -118 CURVE SMOOTH",
"199 -82 OFFCURVE",
"174 -51 OFFCURVE",
"133 -51 CURVE SMOOTH",
"90 -51 OFFCURVE",
"65 -84 OFFCURVE",
"65 -126 CURVE"
);
},
{
closed = 1;
nodes = (
"-251 -188 CURVE",
"-208 -188 LINE",
"-214 -173 OFFCURVE",
"-216 -159 OFFCURVE",
"-216 -146 CURVE SMOOTH",
"-216 -114 OFFCURVE",
"-194 -93 OFFCURVE",
"-163 -93 CURVE SMOOTH",
"-131 -93 OFFCURVE",
"-108 -119 OFFCURVE",
"-108 -154 CURVE SMOOTH",
"-108 -170 LINE",
"-61 -170 LINE",
"-61 -154 LINE SMOOTH",
"-61 -120 OFFCURVE",
"-45 -93 OFFCURVE",
"-13 -93 CURVE SMOOTH",
"38 -93 OFFCURVE",
"48 -148 OFFCURVE",
"48 -180 CURVE SMOOTH",
"48 -255 OFFCURVE",
"-1 -341 OFFCURVE",
"-87 -341 CURVE SMOOTH",
"-117 -341 OFFCURVE",
"-141 -331 OFFCURVE",
"-141 -304 CURVE SMOOTH",
"-141 -280 OFFCURVE",
"-121 -265 OFFCURVE",
"-88 -265 CURVE SMOOTH",
"-42 -265 OFFCURVE",
"28 -290 OFFCURVE",
"58 -381 CURVE",
"102 -381 LINE",
"71 -270 OFFCURVE",
"-17 -225 OFFCURVE",
"-87 -225 CURVE SMOOTH",
"-153 -225 OFFCURVE",
"-188 -260 OFFCURVE",
"-188 -303 CURVE SMOOTH",
"-188 -351 OFFCURVE",
"-146 -380 OFFCURVE",
"-86 -380 CURVE SMOOTH",
"20 -380 OFFCURVE",
"93 -281 OFFCURVE",
"93 -176 CURVE SMOOTH",
"93 -111 OFFCURVE",
"55 -52 OFFCURVE",
"-9 -52 CURVE SMOOTH",
"-50 -52 OFFCURVE",
"-77 -77 OFFCURVE",
"-85 -116 CURVE",
"-93 -77 OFFCURVE",
"-124 -52 OFFCURVE",
"-167 -52 CURVE SMOOTH",
"-224 -52 OFFCURVE",
"-258 -91 OFFCURVE",
"-258 -145 CURVE SMOOTH",
"-258 -158 OFFCURVE",
"-256 -173 OFFCURVE"
);
}
);
width = 0;
}
);
},
{
glyphname = knTTAc2;
lastChange = "2015-09-28 22:19:15 +0000";
layers = (
{
layerId = "034236B8-3FA8-43DA-9EDA-EFF269A687EC";
name = Light;
paths = (
{
closed = 1;
nodes = (
"-253 -209 CURVE SMOOTH",
"-283 -208 OFFCURVE",
"-300 -191 OFFCURVE",
"-299 -163 CURVE SMOOTH",
"-298 -139 OFFCURVE",
"-282 -119 OFFCURVE",
"-251 -120 CURVE SMOOTH",
"-223 -121 OFFCURVE",
"-208 -141 OFFCURVE",
"-209 -166 CURVE SMOOTH",
"-210 -190 OFFCURVE",
"-225 -210 OFFCURVE"
);
},
{
closed = 1;
nodes = (
"-1 58 LINE",
"12 30 OFFCURVE",
"18 -6 OFFCURVE",
"18 -38 CURVE SMOOTH",
"18 -94 OFFCURVE",
"-13 -120 OFFCURVE",
"-54 -120 CURVE SMOOTH",
"-75 -120 LINE",
"-75 -163 LINE",
"-55 -163 LINE SMOOTH",
"1 -163 OFFCURVE",
"28 -196 OFFCURVE",
"28 -248 CURVE SMOOTH",
"28 -292 OFFCURVE",
"6 -318 OFFCURVE",
"-35 -318 CURVE SMOOTH",
"-81 -318 OFFCURVE",
"-105 -283 OFFCURVE",
"-105 -240 CURVE SMOOTH",
"-105 -223 LINE",
"-151 -223 LINE",
"-151 -240 LINE SMOOTH",
"-151 -283 OFFCURVE",
"-178 -318 OFFCURVE",
"-231 -318 CURVE SMOOTH",
"-293 -318 OFFCURVE",
"-314 -270 OFFCURVE",
"-314 -222 CURVE SMOOTH",
"-314 -195 OFFCURVE",
"-314 -176 OFFCURVE",
"-313 -155 CURVE",
"-323 -165 LINE",
"-323 -227 OFFCURVE",
"-286 -249 OFFCURVE",
"-247 -249 CURVE SMOOTH",
"-199 -249 OFFCURVE",
"-162 -214 OFFCURVE",
"-162 -164 CURVE SMOOTH",
"-162 -114 OFFCURVE",
"-202 -78 OFFCURVE",
"-251 -78 CURVE SMOOTH",
"-318 -78 OFFCURVE",
"-356 -135 OFFCURVE",
"-356 -222 CURVE SMOOTH",
"-356 -298 OFFCURVE",
"-309 -359 OFFCURVE",
"-231 -359 CURVE SMOOTH",
"-181 -359 OFFCURVE",
"-139 -332 OFFCURVE",
"-129 -289 CURVE",
"-118 -332 OFFCURVE",
"-80 -359 OFFCURVE",
"-32 -359 CURVE SMOOTH",
"30 -359 OFFCURVE",
"75 -315 OFFCURVE",
"75 -247 CURVE SMOOTH",
"75 -183 OFFCURVE",
"29 -137 OFFCURVE",
"-42 -137 CURVE",
"-46 -147 LINE",
"29 -147 OFFCURVE",
"65 -99 OFFCURVE",
"65 -39 CURVE SMOOTH",
"65 -5 OFFCURVE",
"57 30 OFFCURVE",
"47 58 CURVE"
);
}
);
width = 60;
}
);
},
{
glyphname = knTTHAc2;
lastChange = "2015-09-28 22:19:15 +0000";
layers = (
{
layerId = "034236B8-3FA8-43DA-9EDA-EFF269A687EC";
name = Light;
paths = (
{
closed = 1;
nodes = (
"-30 -361 CURVE SMOOTH",
"43 -361 OFFCURVE",
"95 -300 OFFCURVE",
"95 -203 CURVE SMOOTH",
"95 -110 OFFCURVE",
"43 -49 OFFCURVE",
"-30 -49 CURVE SMOOTH",
"-103 -49 OFFCURVE",
"-156 -109 OFFCURVE",
"-156 -203 CURVE SMOOTH",
"-156 -301 OFFCURVE",
"-103 -361 OFFCURVE"
);
},
{
closed = 1;
nodes = (
"-30 -320 CURVE SMOOTH",
"-77 -320 OFFCURVE",
"-109 -278 OFFCURVE",
"-109 -203 CURVE SMOOTH",
"-109 -131 OFFCURVE",
"-77 -90 OFFCURVE",
"-30 -90 CURVE SMOOTH",
"18 -90 OFFCURVE",
"49 -130 OFFCURVE",
"49 -203 CURVE SMOOTH",
"49 -279 OFFCURVE",
"18 -320 OFFCURVE"
);
},
{
closed = 1;
nodes = (
"-30 -233 CURVE SMOOTH",
"-12 -233 OFFCURVE",
"1 -220 OFFCURVE",
"1 -203 CURVE SMOOTH",
"1 -185 OFFCURVE",
"-12 -172 OFFCURVE",
"-30 -172 CURVE SMOOTH",
"-47 -172 OFFCURVE",
"-60 -186 OFFCURVE",
"-60 -203 CURVE SMOOTH",
"-60 -220 OFFCURVE",
"-46 -233 OFFCURVE"
);
}
);
width = 0;
}
);
},
{
glyphname = knDDAc2;
lastChange = "2015-09-28 22:19:15 +0000";
layers = (
{
layerId = "034236B8-3FA8-43DA-9EDA-EFF269A687EC";
name = Light;
paths = (
{
closed = 1;
nodes = (
"-113 -361 CURVE SMOOTH",
"-70 -361 OFFCURVE",
"-33 -335 OFFCURVE",
"-28 -296 CURVE",
"-34 -296 LINE",
"-28 -330 OFFCURVE",
"10 -361 OFFCURVE",
"58 -361 CURVE SMOOTH",
"123 -361 OFFCURVE",
"171 -310 OFFCURVE",
"171 -237 CURVE SMOOTH",
"171 -126 OFFCURVE",
"86 -49 OFFCURVE",
"-28 -49 CURVE SMOOTH",
"-140 -49 OFFCURVE",
"-226 -130 OFFCURVE",
"-226 -238 CURVE SMOOTH",
"-226 -312 OFFCURVE",
"-179 -361 OFFCURVE"
);
},
{
closed = 1;
nodes = (
"-55 -246 LINE",
"-55 -254 LINE SMOOTH",
"-55 -292 OFFCURVE",
"-78 -319 OFFCURVE",
"-113 -319 CURVE SMOOTH",
"-154 -319 OFFCURVE",
"-178 -290 OFFCURVE",
"-178 -237 CURVE SMOOTH",
"-178 -151 OFFCURVE",
"-113 -90 OFFCURVE",
"-28 -90 CURVE SMOOTH",
"15 -90 OFFCURVE",
"41 -95 OFFCURVE",
"67 -111 CURVE",
"50 -96 LINE",
"6 -97 OFFCURVE",
"-25 -129 OFFCURVE",
"-25 -168 CURVE SMOOTH",
"-25 -216 OFFCURVE",
"14 -243 OFFCURVE",
"56 -243 CURVE SMOOTH",
"96 -243 OFFCURVE",
"128 -218 OFFCURVE",
"128 -177 CURVE",
"104 -146 LINE",
"121 -171 OFFCURVE",
"125 -201 OFFCURVE",
"125 -237 CURVE SMOOTH",
"125 -290 OFFCURVE",
"96 -319 OFFCURVE",
"56 -319 CURVE SMOOTH",
"17 -319 OFFCURVE",
"-8 -293 OFFCURVE",
"-8 -254 CURVE SMOOTH",
"-8 -246 LINE"
);
},
{
closed = 1;
nodes = (
"60 -203 CURVE SMOOTH",
"36 -203 OFFCURVE",
"21 -186 OFFCURVE",
"21 -165 CURVE SMOOTH",
"21 -142 OFFCURVE",
"38 -126 OFFCURVE",
"60 -126 CURVE SMOOTH",
"83 -126 OFFCURVE",
"99 -142 OFFCURVE",
"99 -165 CURVE SMOOTH",
"99 -185 OFFCURVE",
"83 -203 OFFCURVE"
);
}
);
width = 0;
}
);
},
{
glyphname = knDDHAc2;
lastChange = "2015-09-28 22:19:15 +0000";
layers = (
{
layerId = "034236B8-3FA8-43DA-9EDA-EFF269A687EC";
name = Light;
paths = (
{
closed = 1;
nodes = (
"-57 -467 LINE",
"0 -467 LINE",
"0 -455 LINE",
"-19 -348 LINE",
"-38 -348 LINE",
"-57 -455 LINE"
);
},
{
closed = 1;
nodes = (
"-113 -361 CURVE SMOOTH",
"-70 -361 OFFCURVE",
"-33 -335 OFFCURVE",
"-28 -296 CURVE",
"-34 -296 LINE",
"-28 -330 OFFCURVE",
"10 -361 OFFCURVE",
"58 -361 CURVE SMOOTH",
"123 -361 OFFCURVE",
"171 -310 OFFCURVE",
"171 -237 CURVE SMOOTH",
"171 -126 OFFCURVE",
"86 -49 OFFCURVE",
"-28 -49 CURVE SMOOTH",
"-140 -49 OFFCURVE",
"-226 -130 OFFCURVE",
"-226 -238 CURVE SMOOTH",
"-226 -312 OFFCURVE",
"-179 -361 OFFCURVE"
);
},
{
closed = 1;
nodes = (
"-55 -246 LINE",
"-55 -254 LINE SMOOTH",
"-55 -292 OFFCURVE",
"-78 -319 OFFCURVE",
"-113 -319 CURVE SMOOTH",
"-154 -319 OFFCURVE",
"-178 -290 OFFCURVE",
"-178 -237 CURVE SMOOTH",
"-178 -151 OFFCURVE",
"-113 -90 OFFCURVE",
"-28 -90 CURVE SMOOTH",
"15 -90 OFFCURVE",
"41 -95 OFFCURVE",
"67 -111 CURVE",
"50 -96 LINE",
"6 -97 OFFCURVE",
"-25 -129 OFFCURVE",
"-25 -168 CURVE SMOOTH",
"-25 -216 OFFCURVE",
"14 -243 OFFCURVE",
"56 -243 CURVE SMOOTH",
"96 -243 OFFCURVE",
"128 -218 OFFCURVE",
"128 -177 CURVE",
"104 -146 LINE",
"121 -171 OFFCURVE",
"125 -201 OFFCURVE",
"125 -237 CURVE SMOOTH",
"125 -290 OFFCURVE",
"96 -319 OFFCURVE",
"56 -319 CURVE SMOOTH",
"17 -319 OFFCURVE",
"-8 -293 OFFCURVE",
"-8 -254 CURVE SMOOTH",
"-8 -246 LINE"
);
},
{
closed = 1;
nodes = (
"60 -203 CURVE SMOOTH",
"36 -203 OFFCURVE",
"21 -186 OFFCURVE",
"21 -165 CURVE SMOOTH",
"21 -142 OFFCURVE",
"38 -126 OFFCURVE",
"60 -126 CURVE SMOOTH",
"83 -126 OFFCURVE",
"99 -142 OFFCURVE",
"99 -165 CURVE SMOOTH",
"99 -185 OFFCURVE",
"83 -203 OFFCURVE"
);
}
);
width = 0;
}
);
},
{
glyphname = knNNAc2;
lastChange = "2015-09-28 22:19:15 +0000";
layers = (
{
layerId = "034236B8-3FA8-43DA-9EDA-EFF269A687EC";
name = Light;
paths = (
{
closed = 1;
nodes = (
"-117 -358 CURVE SMOOTH",
"-93 -358 OFFCURVE",
"-73 -353 OFFCURVE",
"-55 -345 CURVE",
"-55 -303 LINE",
"-75 -314 OFFCURVE",
"-93 -318 OFFCURVE",
"-112 -318 CURVE SMOOTH",
"-149 -318 OFFCURVE",
"-170 -305 OFFCURVE",
"-170 -273 CURVE SMOOTH",
"-170 -244 OFFCURVE",
"-145 -227 OFFCURVE",
"-109 -227 CURVE SMOOTH",
"-90 -227 LINE",
"-90 -185 LINE",
"-109 -185 LINE SMOOTH",
"-141 -185 OFFCURVE",
"-162 -169 OFFCURVE",
"-162 -138 CURVE SMOOTH",
"-162 -109 OFFCURVE",
"-138 -92 OFFCURVE",
"-109 -92 CURVE SMOOTH",
"-73 -92 OFFCURVE",
"-52 -116 OFFCURVE",
"-52 -151 CURVE SMOOTH",
"-52 -173 LINE",
"-6 -173 LINE",
"-6 -151 LINE SMOOTH",
"-6 -115 OFFCURVE",
"12 -91 OFFCURVE",
"46 -91 CURVE SMOOTH",
"91 -91 OFFCURVE",
"121 -137 OFFCURVE",
"121 -211 CURVE SMOOTH",
"121 -232 OFFCURVE",
"119 -258 OFFCURVE",
"114 -275 CURVE",
"131 -273 LINE",
"130 -227 OFFCURVE",
"99 -194 OFFCURVE",
"52 -194 CURVE SMOOTH",
"2 -194 OFFCURVE",
"-33 -229 OFFCURVE",
"-33 -277 CURVE SMOOTH",
"-33 -325 OFFCURVE",
"7 -357 OFFCURVE",
"52 -357 CURVE SMOOTH",
"106 -357 OFFCURVE",
"163 -319 OFFCURVE",
"163 -213 CURVE SMOOTH",
"163 -106 OFFCURVE",
"114 -51 OFFCURVE",
"48 -51 CURVE SMOOTH",
"7 -51 OFFCURVE",
"-24 -75 OFFCURVE",
"-32 -112 CURVE",
"-26 -112 LINE",
"-36 -75 OFFCURVE",
"-75 -51 OFFCURVE",
"-115 -51 CURVE SMOOTH",
"-166 -51 OFFCURVE",
"-208 -86 OFFCURVE",
"-208 -133 CURVE SMOOTH",
"-208 -179 OFFCURVE",
"-174 -208 OFFCURVE",
"-139 -209 CURVE",
"-138 -204 LINE",
"-183 -204 OFFCURVE",
"-215 -238 OFFCURVE",
"-215 -278 CURVE SMOOTH",
"-215 -328 OFFCURVE",
"-172 -358 OFFCURVE"
);
},
{
closed = 1;
nodes = (
"55 -317 CURVE SMOOTH",
"29 -317 OFFCURVE",
"10 -300 OFFCURVE",
"10 -275 CURVE SMOOTH",
"10 -249 OFFCURVE",
"30 -233 OFFCURVE",
"54 -233 CURVE SMOOTH",
"84 -233 OFFCURVE",
"101 -249 OFFCURVE",
"101 -275 CURVE SMOOTH",
"101 -300 OFFCURVE",
"83 -317 OFFCURVE"
);
}
);
width = 0;
}
);
},
{
glyphname = knTAc2;
lastChange = "2015-09-28 22:19:15 +0000";
layers = (
{
layerId = "034236B8-3FA8-43DA-9EDA-EFF269A687EC";
name = Light;
paths = (
{
closed = 1;
nodes = (
"-123 -59 CURVE SMOOTH",
"-177 -59 OFFCURVE",
"-216 -96 OFFCURVE",
"-216 -145 CURVE SMOOTH",
"-216 -188 OFFCURVE",
"-188 -218 OFFCURVE",
"-152 -218 CURVE",
"-154 -206 LINE",
"-354 -206 LINE",
"-354 -248 LINE",
"-148 -248 LINE SMOOTH",
"-71 -248 OFFCURVE",
"-29 -208 OFFCURVE",
"-29 -146 CURVE SMOOTH",
"-29 -97 OFFCURVE",
"-70 -59 OFFCURVE"
);
},
{
closed = 1;
nodes = (
"-125 -100 CURVE SMOOTH",
"-98 -100 OFFCURVE",
"-77 -120 OFFCURVE",
"-77 -150 CURVE SMOOTH",
"-77 -182 OFFCURVE",
"-97 -203 OFFCURVE",
"-125 -203 CURVE SMOOTH",
"-154 -203 OFFCURVE",
"-171 -177 OFFCURVE",
"-171 -151 CURVE SMOOTH",
"-171 -119 OFFCURVE",
"-151 -100 OFFCURVE"
);
}
);
width = 0;
}
);
},
{
glyphname = knTHAc2;
lastChange = "2015-09-28 22:19:15 +0000";
layers = (
{
layerId = "034236B8-3FA8-43DA-9EDA-EFF269A687EC";
name = Light;
paths = (
{
closed = 1;
nodes = (
"-25 -49 CURVE SMOOTH",
"-133 -49 OFFCURVE",
"-210 -125 OFFCURVE",
"-210 -234 CURVE SMOOTH",
"-210 -308 OFFCURVE",
"-165 -361 OFFCURVE",
"-104 -361 CURVE SMOOTH",
"-59 -361 OFFCURVE",
"-28 -336 OFFCURVE",
"-22 -297 CURVE",
"-28 -297 LINE",
"-22 -336 OFFCURVE",
"8 -361 OFFCURVE",
"53 -361 CURVE SMOOTH",
"114 -361 OFFCURVE",
"159 -308 OFFCURVE",
"159 -234 CURVE SMOOTH",
"159 -125 OFFCURVE",
"82 -49 OFFCURVE"
);
},
{
closed = 1;
nodes = (
"-25 -90 CURVE SMOOTH",
"55 -90 OFFCURVE",
"113 -146 OFFCURVE",
"113 -233 CURVE SMOOTH",
"113 -288 OFFCURVE",
"89 -320 OFFCURVE",
"52 -320 CURVE SMOOTH",
"17 -320 OFFCURVE",
"-1 -295 OFFCURVE",
"-1 -258 CURVE SMOOTH",
"-1 -235 LINE",
"-50 -235 LINE",
"-50 -258 LINE SMOOTH",
"-50 -295 OFFCURVE",
"-67 -320 OFFCURVE",
"-103 -320 CURVE SMOOTH",
"-139 -320 OFFCURVE",
"-164 -288 OFFCURVE",
"-164 -233 CURVE SMOOTH",
"-164 -146 OFFCURVE",
"-106 -90 OFFCURVE"
);
},
{
closed = 1;
nodes = (
"-26 -185 CURVE SMOOTH",
"-11 -185 OFFCURVE",
"3 -173 OFFCURVE",
"3 -157 CURVE SMOOTH",
"3 -140 OFFCURVE",
"-10 -128 OFFCURVE",
"-26 -128 CURVE SMOOTH",
"-43 -128 OFFCURVE",
"-55 -140 OFFCURVE",
"-55 -157 CURVE SMOOTH",
"-55 -172 OFFCURVE",
"-43 -185 OFFCURVE"
);
},
{
closed = 1;
nodes = (
"-54 -468 LINE",
"5 -468 LINE",
"5 -456 LINE",
"-15 -349 LINE",
"-34 -349 LINE",
"-54 -456 LINE"
);
}
);
width = 0;
}
);
},
{
glyphname = knDAc2;
lastChange = "2015-09-28 22:19:15 +0000";
layers = (
{
layerId = "034236B8-3FA8-43DA-9EDA-EFF269A687EC";
name = Light;
paths = (
{
closed = 1;
nodes = (
"-228 -75 OFFCURVE",
"-373 -119 OFFCURVE",
"-373 -242 CURVE SMOOTH",
"-373 -326 OFFCURVE",
"-310 -353 OFFCURVE",
"-236 -353 CURVE SMOOTH",
"-158 -353 OFFCURVE",
"-110 -324 OFFCURVE",
"-81 -269 CURVE",
"-52 -324 OFFCURVE",
"-4 -353 OFFCURVE",
"74 -353 CURVE SMOOTH",
"148 -353 OFFCURVE",
"211 -326 OFFCURVE",
"211 -242 CURVE SMOOTH",
"211 -119 OFFCURVE",
"66 -75 OFFCURVE",
"-81 -75 CURVE SMOOTH"
);
},
{
closed = 1;
nodes = (
"64 -95 OFFCURVE",
"190 -137 OFFCURVE",
"190 -238 CURVE SMOOTH",
"190 -303 OFFCURVE",
"147 -330 OFFCURVE",
"73 -330 CURVE SMOOTH",
"-4 -330 OFFCURVE",
"-48 -306 OFFCURVE",
"-70 -246 CURVE",
"-92 -246 LINE",
"-114 -306 OFFCURVE",
"-158 -330 OFFCURVE",
"-235 -330 CURVE SMOOTH",
"-309 -330 OFFCURVE",
"-352 -303 OFFCURVE",
"-352 -238 CURVE SMOOTH",
"-352 -137 OFFCURVE",
"-226 -95 OFFCURVE",
"-81 -95 CURVE SMOOTH"
);
}
);
width = 0;
}
);
},
{
glyphname = knDHAc2;
lastChange = "2015-09-28 22:19:15 +0000";
layers = (
{
layerId = "034236B8-3FA8-43DA-9EDA-EFF269A687EC";
name = Light;
paths = (
{
closed = 1;
nodes = (
"-25 -49 CURVE SMOOTH",
"-133 -49 OFFCURVE",
"-210 -125 OFFCURVE",
"-210 -234 CURVE SMOOTH",
"-210 -308 OFFCURVE",
"-165 -361 OFFCURVE",
"-104 -361 CURVE SMOOTH",
"-59 -361 OFFCURVE",
"-28 -336 OFFCURVE",
"-22 -297 CURVE",
"-28 -297 LINE",
"-22 -336 OFFCURVE",
"8 -361 OFFCURVE",
"53 -361 CURVE SMOOTH",
"114 -361 OFFCURVE",
"159 -308 OFFCURVE",
"159 -234 CURVE SMOOTH",
"159 -125 OFFCURVE",
"82 -49 OFFCURVE"
);
},
{
closed = 1;
nodes = (
"-25 -90 CURVE SMOOTH",
"55 -90 OFFCURVE",
"113 -146 OFFCURVE",
"113 -233 CURVE SMOOTH",
"113 -288 OFFCURVE",
"89 -320 OFFCURVE",
"52 -320 CURVE SMOOTH",
"17 -320 OFFCURVE",
"-1 -295 OFFCURVE",
"-1 -258 CURVE SMOOTH",
"-1 -235 LINE",
"-50 -235 LINE",
"-50 -258 LINE SMOOTH",
"-50 -295 OFFCURVE",
"-67 -320 OFFCURVE",
"-103 -320 CURVE SMOOTH",
"-139 -320 OFFCURVE",
"-164 -288 OFFCURVE",
"-164 -233 CURVE SMOOTH",
"-164 -146 OFFCURVE",
"-106 -90 OFFCURVE"
);
},
{
closed = 1;
nodes = (
"-54 -468 LINE",
"5 -468 LINE",
"5 -456 LINE",
"-15 -349 LINE",
"-34 -349 LINE",
"-54 -456 LINE"
);
}
);
width = 0;
}
);
},
{
glyphname = knNAc2;
lastChange = "2015-09-28 22:19:15 +0000";
layers = (
{
layerId = "034236B8-3FA8-43DA-9EDA-EFF269A687EC";
name = Light;
paths = (
{
closed = 1;
nodes = (
"35 -162 CURVE SMOOTH",
"35 -242 OFFCURVE",
"12 -318 OFFCURVE",
"-57 -318 CURVE SMOOTH",
"-97 -318 OFFCURVE",
"-124 -292 OFFCURVE",
"-124 -254 CURVE SMOOTH",
"-124 -210 OFFCURVE",
"-94 -186 OFFCURVE",
"-55 -186 CURVE SMOOTH",
"48 -186 OFFCURVE",
"63 -360 OFFCURVE",
"191 -360 CURVE SMOOTH",
"197 -360 LINE",
"197 -318 LINE",
"191 -318 LINE SMOOTH",
"90 -318 OFFCURVE",
"71 -144 OFFCURVE",
"-56 -144 CURVE SMOOTH",
"-121 -144 OFFCURVE",
"-171 -192 OFFCURVE",
"-171 -254 CURVE SMOOTH",
"-171 -317 OFFCURVE",
"-121 -360 OFFCURVE",
"-58 -360 CURVE SMOOTH",
"50 -360 OFFCURVE",
"78 -245 OFFCURVE",
"78 -166 CURVE SMOOTH",
"78 -82 OFFCURVE",
"64 -8 OFFCURVE",
"45 58 CURVE",
"0 58 LINE",
"19 -4 OFFCURVE",
"35 -76 OFFCURVE"
);
}
);
width = 59;
}
);
},
{
glyphname = knPAc2;
lastChange = "2015-09-28 22:19:15 +0000";
layers = (
{
layerId = "034236B8-3FA8-43DA-9EDA-EFF269A687EC";
name = Light;
paths = (
{
closed = 1;
nodes = (
"-29 -359 CURVE SMOOTH",
"38 -359 OFFCURVE",
"76 -308 OFFCURVE",
"76 -171 CURVE SMOOTH",
"76 -83 OFFCURVE",
"66 -7 OFFCURVE",
"44 58 CURVE",
"-1 58 LINE",
"21 -2 OFFCURVE",
"31 -79 OFFCURVE",
"31 -167 CURVE SMOOTH",
"31 -270 OFFCURVE",
"14 -317 OFFCURVE",
"-29 -317 CURVE SMOOTH",
"-63 -317 OFFCURVE",
"-79 -294 OFFCURVE",
"-79 -256 CURVE SMOOTH",
"-79 -232 LINE",
"-128 -232 LINE",
"-128 -255 LINE SMOOTH",
"-128 -292 OFFCURVE",
"-149 -317 OFFCURVE",
"-186 -317 CURVE SMOOTH",
"-221 -317 OFFCURVE",
"-242 -295 OFFCURVE",
"-242 -263 CURVE SMOOTH",
"-242 -230 OFFCURVE",
"-222 -209 OFFCURVE",
"-192 -209 CURVE SMOOTH",
"-185 -209 OFFCURVE",
"-177 -210 OFFCURVE",
"-173 -211 CURVE",
"-173 -170 LINE",
"-180 -169 OFFCURVE",
"-188 -168 OFFCURVE",
"-194 -168 CURVE SMOOTH",
"-245 -168 OFFCURVE",
"-289 -203 OFFCURVE",
"-289 -264 CURVE SMOOTH",
"-289 -316 OFFCURVE",
"-250 -359 OFFCURVE",
"-187 -359 CURVE SMOOTH",
"-143 -359 OFFCURVE",
"-107 -335 OFFCURVE",
"-100 -297 CURVE",
"-106 -298 LINE",
"-100 -336 OFFCURVE",
"-71 -359 OFFCURVE"
);
}
);
width = 61;
}
);
},
{
glyphname = knPHAc2;
lastChange = "2015-09-28 22:19:15 +0000";
layers = (
{
layerId = "034236B8-3FA8-43DA-9EDA-EFF269A687EC";
name = Light;
paths = (
{
closed = 1;
nodes = (
"-134 -468 LINE",
"-75 -468 LINE",
"-75 -456 LINE",
"-95 -349 LINE",
"-114 -349 LINE",
"-134 -456 LINE"
);
},
{
closed = 1;
nodes = (
"-29 -359 CURVE SMOOTH",
"38 -359 OFFCURVE",
"76 -308 OFFCURVE",
"76 -171 CURVE SMOOTH",
"76 -83 OFFCURVE",
"66 -7 OFFCURVE",
"44 58 CURVE",
"-1 58 LINE",
"21 -2 OFFCURVE",
"31 -79 OFFCURVE",
"31 -167 CURVE SMOOTH",
"31 -270 OFFCURVE",
"14 -317 OFFCURVE",
"-29 -317 CURVE SMOOTH",
"-63 -317 OFFCURVE",
"-79 -294 OFFCURVE",
"-79 -256 CURVE SMOOTH",
"-79 -232 LINE",
"-128 -232 LINE",
"-128 -255 LINE SMOOTH",
"-128 -292 OFFCURVE",
"-149 -317 OFFCURVE",
"-186 -317 CURVE SMOOTH",
"-221 -317 OFFCURVE",
"-242 -295 OFFCURVE",
"-242 -263 CURVE SMOOTH",
"-242 -230 OFFCURVE",
"-222 -209 OFFCURVE",
"-192 -209 CURVE SMOOTH",
"-185 -209 OFFCURVE",
"-177 -210 OFFCURVE",
"-173 -211 CURVE",
"-173 -170 LINE",
"-180 -169 OFFCURVE",
"-188 -168 OFFCURVE",
"-194 -168 CURVE SMOOTH",
"-245 -168 OFFCURVE",
"-289 -203 OFFCURVE",
"-289 -264 CURVE SMOOTH",
"-289 -316 OFFCURVE",
"-250 -359 OFFCURVE",
"-187 -359 CURVE SMOOTH",
"-143 -359 OFFCURVE",
"-107 -335 OFFCURVE",
"-100 -297 CURVE",
"-106 -298 LINE",
"-100 -336 OFFCURVE",
"-71 -359 OFFCURVE"
);
}
);
width = 61;
}
);
},
{
glyphname = knBAc2;
lastChange = "2015-09-28 22:19:15 +0000";
layers = (
{
layerId = "034236B8-3FA8-43DA-9EDA-EFF269A687EC";
name = Light;
paths = (
{
closed = 1;
nodes = (
"-33 -361 CURVE SMOOTH",
"37 -361 OFFCURVE",
"76 -309 OFFCURVE",
"76 -171 CURVE SMOOTH",
"76 -83 OFFCURVE",
"66 -7 OFFCURVE",
"44 58 CURVE",
"-1 58 LINE",
"21 -2 OFFCURVE",
"31 -90 OFFCURVE",
"31 -167 CURVE SMOOTH",
"31 -274 OFFCURVE",
"11 -319 OFFCURVE",
"-35 -319 CURVE SMOOTH",
"-67 -319 OFFCURVE",
"-83 -297 OFFCURVE",
"-83 -259 CURVE SMOOTH",
"-83 -237 LINE",
"-131 -237 LINE",
"-131 -260 LINE SMOOTH",
"-131 -296 OFFCURVE",
"-152 -319 OFFCURVE",
"-188 -319 CURVE SMOOTH",
"-216 -319 OFFCURVE",
"-239 -306 OFFCURVE",
"-239 -278 CURVE SMOOTH",
"-239 -215 OFFCURVE",
"-112 -209 OFFCURVE",
"-112 -125 CURVE SMOOTH",
"-112 -78 OFFCURVE",
"-149 -49 OFFCURVE",
"-193 -49 CURVE SMOOTH",
"-239 -49 OFFCURVE",
"-278 -80 OFFCURVE",
"-278 -125 CURVE SMOOTH",
"-278 -133 OFFCURVE",
"-277 -142 OFFCURVE",
"-275 -150 CURVE",
"-229 -150 LINE",
"-230 -146 OFFCURVE",
"-232 -140 OFFCURVE",
"-232 -129 CURVE SMOOTH",
"-232 -105 OFFCURVE",
"-217 -91 OFFCURVE",
"-194 -91 CURVE SMOOTH",
"-171 -91 OFFCURVE",
"-158 -104 OFFCURVE",
"-158 -125 CURVE SMOOTH",
"-158 -181 OFFCURVE",
"-286 -186 OFFCURVE",
"-286 -280 CURVE SMOOTH",
"-286 -327 OFFCURVE",
"-246 -361 OFFCURVE",
"-190 -361 CURVE SMOOTH",
"-147 -361 OFFCURVE",
"-114 -339 OFFCURVE",
"-104 -300 CURVE",
"-110 -299 LINE",
"-104 -337 OFFCURVE",
"-75 -361 OFFCURVE"
);
}
);
width = 61;
}
);
},
{
glyphname = knBHAc2;
lastChange = "2015-09-28 22:19:15 +0000";
layers = (
{
layerId = "034236B8-3FA8-43DA-9EDA-EFF269A687EC";
name = Light;
paths = (
{
closed = 1;
nodes = (
"-137 -468 LINE",
"-78 -468 LINE",
"-78 -456 LINE",
"-98 -349 LINE",
"-117 -349 LINE",
"-137 -456 LINE"
);
},
{
closed = 1;
nodes = (
"-33 -361 CURVE SMOOTH",
"37 -361 OFFCURVE",
"76 -309 OFFCURVE",
"76 -171 CURVE SMOOTH",
"76 -83 OFFCURVE",
"66 -7 OFFCURVE",
"44 58 CURVE",
"-1 58 LINE",
"21 -2 OFFCURVE",
"31 -90 OFFCURVE",
"31 -167 CURVE SMOOTH",
"31 -274 OFFCURVE",
"11 -319 OFFCURVE",
"-35 -319 CURVE SMOOTH",
"-67 -319 OFFCURVE",
"-83 -297 OFFCURVE",
"-83 -259 CURVE SMOOTH",
"-83 -237 LINE",
"-131 -237 LINE",
"-131 -260 LINE SMOOTH",
"-131 -296 OFFCURVE",
"-152 -319 OFFCURVE",
"-188 -319 CURVE SMOOTH",
"-216 -319 OFFCURVE",
"-239 -306 OFFCURVE",
"-239 -278 CURVE SMOOTH",
"-239 -215 OFFCURVE",
"-112 -209 OFFCURVE",
"-112 -125 CURVE SMOOTH",
"-112 -78 OFFCURVE",
"-149 -49 OFFCURVE",
"-193 -49 CURVE SMOOTH",
"-239 -49 OFFCURVE",
"-278 -80 OFFCURVE",
"-278 -125 CURVE SMOOTH",
"-278 -133 OFFCURVE",
"-277 -142 OFFCURVE",
"-275 -150 CURVE",
"-229 -150 LINE",
"-230 -146 OFFCURVE",
"-232 -140 OFFCURVE",
"-232 -129 CURVE SMOOTH",
"-232 -105 OFFCURVE",
"-217 -91 OFFCURVE",
"-194 -91 CURVE SMOOTH",
"-171 -91 OFFCURVE",
"-158 -104 OFFCURVE",
"-158 -125 CURVE SMOOTH",
"-158 -181 OFFCURVE",
"-286 -186 OFFCURVE",
"-286 -280 CURVE SMOOTH",
"-286 -327 OFFCURVE",
"-246 -361 OFFCURVE",
"-190 -361 CURVE SMOOTH",
"-147 -361 OFFCURVE",
"-114 -339 OFFCURVE",
"-104 -300 CURVE",
"-110 -299 LINE",
"-104 -337 OFFCURVE",
"-75 -361 OFFCURVE"
);
}
);
width = 61;
}
);
},
